<svg width="25" height="25" viewBox="0 0 25 25" fill="none" xmlns="http://www.w3.org/2000/svg">
<g clip-path="url(#clip0_1958_779)">
<path d="M12.8076 2.5C12.8499 2.5213 12.8983 2.54734 12.9466 2.56746C13.0953 2.62634 13.2229 2.72719 13.313 2.85722C13.4032 2.98724 13.4518 3.14056 13.4528 3.29773C13.4637 3.55811 13.4528 3.81968 13.4528 4.08007C13.4528 4.19014 13.4843 4.2363 13.6014 4.25761C14.7895 4.44905 15.8893 4.99198 16.7533 5.8135C17.6172 6.63503 18.2038 7.69581 18.4344 8.85341C18.5118 9.26817 18.5523 9.68874 18.5553 10.1104C18.577 10.9862 18.5396 11.868 18.5927 12.745C18.6343 13.4616 18.8231 14.1627 19.1478 14.8061C19.4725 15.4496 19.9264 16.0223 20.4824 16.4898C20.6517 16.6163 20.7935 16.7746 20.8995 16.9555C21.0056 17.1364 21.0736 17.3362 21.0998 17.5432C21.1235 17.7446 21.1038 17.9487 21.042 18.1422C20.9802 18.3357 20.8777 18.5144 20.7411 18.6667C20.6045 18.8191 20.4368 18.9417 20.2489 19.0266C20.0609 19.1116 19.8569 19.157 19.6499 19.16C19.5968 19.16 19.5436 19.16 19.4904 19.16H5.72008C5.47034 19.1738 5.22088 19.1284 4.99287 19.0276C4.76486 18.9269 4.56503 18.7737 4.41033 18.5812C4.17294 18.2782 4.06618 17.8961 4.11293 17.5169C4.15969 17.1377 4.35623 16.7915 4.66044 16.5526C5.2179 16.0781 5.6787 15.5047 6.01851 14.8624C6.44447 14.0496 6.66178 13.1473 6.65163 12.2337C6.65163 11.436 6.64075 10.6323 6.65163 9.83459C6.6878 8.49366 7.19642 7.20627 8.09119 6.19083C8.98597 5.1754 10.2118 4.49446 11.5607 4.26352C11.7154 4.23749 11.7577 4.17949 11.7528 4.03983C11.748 3.90016 11.7637 3.72737 11.7528 3.5664C11.7118 3.34175 11.755 3.11014 11.8744 2.9142C11.9939 2.71826 12.1815 2.57117 12.4029 2.5C12.5467 2.5 12.6735 2.5 12.8076 2.5Z" fill="#555555"/>
<path d="M9.50684 20.0049H15.71C15.5676 20.7081 15.1806 21.3411 14.615 21.7961C14.0494 22.251 13.3402 22.4997 12.6084 22.4997C11.8766 22.4997 11.1674 22.251 10.6018 21.7961C10.0362 21.3411 9.64921 20.7081 9.50684 20.0049Z" fill="#555555"/>
</g>
<defs>
<clipPath id="clip0_1958_779">
<rect width="17" height="20" fill="white" transform="translate(4.09998 2.5)"/>
</clipPath>
</defs>
</svg>
