<svg width="25" height="25" viewBox="0 0 25 25" fill="none" xmlns="http://www.w3.org/2000/svg">
<path d="M22.29 12.4799C22.29 13.1099 21.77 13.5899 21.18 13.5899H20.07L20.09 19.1499C20.09 19.2399 20.08 19.3399 20.07 19.4299V19.9899C20.07 20.7599 19.45 21.3799 18.68 21.3799H18.12C18.08 21.3799 18.04 21.3799 18.01 21.3799C17.96 21.3799 17.91 21.3799 17.86 21.3799H16.73H15.9C15.13 21.3799 14.51 20.7599 14.51 19.9899V19.1599V16.9399C14.51 16.3299 14.01 15.8299 13.4 15.8299H11.18C10.57 15.8299 10.07 16.3299 10.07 16.9399V19.1599V19.9899C10.07 20.7599 9.45005 21.3799 8.68005 21.3799H7.86005H6.75005C6.70005 21.3799 6.65005 21.3799 6.59005 21.3699C6.55005 21.3699 6.51005 21.3799 6.46005 21.3799H5.91005C5.14005 21.3799 4.52005 20.7599 4.52005 19.9899V16.0999C4.52005 16.0699 4.52005 16.0299 4.52005 15.9999V13.5999H3.41005C2.79005 13.5999 2.30005 13.1099 2.30005 12.4799C2.30005 12.1699 2.40005 11.8899 2.65005 11.6499L11.55 3.88986C11.79 3.64986 12.07 3.60986 12.31 3.60986C12.55 3.60986 12.83 3.67986 13.04 3.84986L21.91 11.6499C22.1901 11.8899 22.33 12.1699 22.29 12.4799Z" fill="#4C28A5"/>
</svg>
