<svg width="95" height="95" viewBox="0 0 95 95" fill="none" xmlns="http://www.w3.org/2000/svg">
<path d="M47.5445 7.04688C55.8259 7.04688 64.1072 7.04688 72.3886 7.04688C78.7189 7.04688 84.0519 10.7323 86.1765 16.5423C86.7835 18.1899 87.0436 19.9242 87.0436 21.6585C87.0436 32.2813 87.087 42.9473 87.0436 53.57C87.0003 61.8948 80.67 68.1817 72.3453 68.1817C70.6977 68.1817 69.0501 68.1817 67.3591 68.1817C65.2779 68.1817 63.717 66.6642 63.6737 64.7131C63.6303 62.6752 65.1478 61.071 67.229 61.0276C68.92 60.9843 70.6543 61.0276 72.3886 61.0276C76.8111 60.9843 79.8462 57.9492 79.8462 53.57C79.8462 42.9907 79.8462 32.4113 79.8462 21.7886C79.8462 17.4094 76.7678 14.2877 72.3886 14.2877C55.7825 14.2877 39.1764 14.2877 22.6136 14.2877C18.2344 14.2877 15.156 17.4094 15.156 21.7886C15.156 32.1945 15.2427 42.5571 15.1127 52.963C15.026 57.5156 18.2778 61.1577 23.264 61.071C33.6265 60.8976 43.9891 61.0276 54.3517 61.0276C56.3462 61.0276 57.6903 61.9815 58.1672 63.6725C58.7742 65.8404 57.2567 68.0083 55.0021 68.2251C54.872 68.2251 54.7419 68.2251 54.5685 68.2251C43.7723 68.2251 32.9328 68.2684 22.1367 68.2251C14.3756 68.1817 8.04531 61.8948 7.95859 54.047C7.87188 43.1641 7.87188 32.2379 7.95859 21.355C8.04531 13.2471 14.4623 7.09023 22.5269 7.04688C30.895 7.04688 39.2197 7.04688 47.5445 7.04688Z" fill="#777777"/>
<path d="M34.3635 37.6142C34.3635 35.0995 34.3635 32.6281 34.3635 30.1133C34.3635 26.3411 37.3119 23.3061 41.084 23.2194C42.168 23.2194 43.2519 23.4795 44.2492 23.9998C49.2787 26.5146 54.3516 29.0293 59.3811 31.5875C61.8092 32.8015 63.0665 34.8827 63.1533 37.5275C63.1966 40.2157 61.9826 42.3403 59.5979 43.5976C54.4817 46.2425 49.322 48.8873 44.0757 51.3587C39.4798 53.57 34.4069 50.2314 34.4069 45.1152C34.3635 42.6004 34.3635 40.129 34.3635 37.6142ZM55.2187 37.5709C55.132 37.4842 55.0019 37.3974 54.9152 37.3541C50.6661 35.2295 46.4604 33.105 42.2113 30.9804C41.6043 30.6769 41.6043 30.9804 41.6043 31.4574C41.6043 35.533 41.6043 39.6087 41.6043 43.641C41.6043 44.4648 41.8211 44.4214 42.4281 44.1179C46.5038 42.0367 50.5794 40.0423 54.6984 37.9611C54.8719 37.9177 55.0887 37.8744 55.2187 37.5709Z" fill="#F1416C"/>
<path d="M61.9394 82.5766C54.8287 82.5766 47.6746 82.5766 40.5639 82.5766C38.3093 82.5766 36.7051 81.0157 36.7484 78.8911C36.7918 77.0267 38.2659 75.5526 40.087 75.4225C40.3038 75.4225 40.4772 75.4225 40.694 75.4225C54.8287 75.4225 69.0068 75.4225 83.1415 75.4225C85.3528 75.4225 86.7402 76.5931 87.0437 78.5443C87.3472 80.452 85.8731 82.3598 83.9219 82.5332C83.5751 82.5766 83.1849 82.5766 82.838 82.5766C75.8574 82.5766 68.9201 82.5766 61.9394 82.5766Z" fill="#777777"/>
<path d="M18.3646 82.5332C16.0233 82.5332 13.7253 82.5765 11.3839 82.5332C9.56291 82.4898 8.13209 81.059 7.95866 79.238C7.78523 77.5904 8.9559 75.9428 10.6469 75.5092C11.0804 75.3791 11.6007 75.3791 12.0777 75.3791C16.24 75.3791 20.4024 75.3791 24.5214 75.3791C25.9522 75.3791 25.9522 75.3791 25.9522 73.9916C25.9522 73.5581 25.9522 73.0811 26.0823 72.6475C26.5593 70.9566 27.9901 69.916 29.7677 70.0027C31.4154 70.0894 32.8028 71.2601 33.063 72.9511C33.3231 74.9889 33.1063 77.0267 33.193 79.1079C33.2364 80.7121 33.193 82.3597 33.193 84.0074C33.193 86.392 31.7189 87.9963 29.551 87.9529C27.4264 87.9529 25.9956 86.3487 25.9956 84.0074C25.9956 82.5765 25.9956 82.5765 24.5648 82.5765C22.4836 82.5765 20.4024 82.5765 18.3646 82.5332Z" fill="#F1416C"/>
</svg>
