<svg width="29" height="29" viewBox="0 0 29 29" fill="none" xmlns="http://www.w3.org/2000/svg">
<rect width="29" height="29" rx="14.5" fill="#F4F4F4"/>
<path fill-rule="evenodd" clip-rule="evenodd" d="M14.5 7.41656C17.1605 7.41656 19.3765 9.62625 19.3765 12.2781C19.3765 13.1441 19.0782 13.9981 18.6612 14.771C18.2421 15.5481 17.6881 16.2725 17.1381 16.8897C16.6587 17.4266 16.1431 17.9303 15.5948 18.3972C15.4158 18.5502 15.231 18.6963 15.0408 18.8353C14.9767 18.8818 14.9107 18.9257 14.843 18.9668C14.7868 19.0001 14.7277 19.0282 14.6664 19.0508C14.5307 19.0945 14.3832 19.0836 14.2555 19.0204C14.2214 19.0043 14.1882 18.9864 14.156 18.9668C14.0879 18.9247 14.0216 18.8798 13.9571 18.8323C13.7673 18.6926 13.5828 18.5458 13.4042 18.3921C12.8565 17.9227 12.3413 17.417 11.8618 16.8785C11.3119 16.2593 10.7579 15.5329 10.3398 14.7589C9.92281 13.9879 9.62348 13.1371 9.62348 12.2781C9.62348 9.62625 11.8395 7.41656 14.5 7.41656ZM14.5 13.7299C14.3088 13.7299 14.1194 13.6924 13.9428 13.6194C13.7661 13.5465 13.6056 13.4395 13.4704 13.3047C13.3352 13.1699 13.228 13.0098 13.1548 12.8337C13.0816 12.6575 13.0439 12.4687 13.0439 12.2781C13.0439 12.0874 13.0816 11.8986 13.1548 11.7225C13.228 11.5463 13.3352 11.3863 13.4704 11.2514C13.6056 11.1166 13.7661 11.0097 13.9428 10.9367C14.1194 10.8638 14.3088 10.8262 14.5 10.8262C14.8862 10.8262 15.2565 10.9792 15.5296 11.2514C15.8026 11.5237 15.9561 11.893 15.9561 12.2781C15.9561 12.6631 15.8026 13.0324 15.5296 13.3047C15.2565 13.577 14.8862 13.7299 14.5 13.7299ZM17.6455 17.692C17.8322 17.4826 18.0189 17.263 18.2036 17.0344H19.5663C19.7692 17.0344 19.9518 17.1558 20.033 17.3409L21.552 20.877C21.5851 20.954 21.5985 21.038 21.591 21.1214C21.5835 21.2048 21.5554 21.2851 21.5091 21.355C21.4628 21.4249 21.3999 21.4823 21.3259 21.5219C21.2519 21.5616 21.1692 21.5823 21.0852 21.5822H7.91477C7.83077 21.5823 7.74807 21.5616 7.67409 21.5219C7.6001 21.4823 7.53715 21.4249 7.49089 21.355C7.44462 21.2851 7.41648 21.2048 7.409 21.1214C7.40152 21.038 7.41493 20.954 7.44802 20.877L8.968 17.3409C9.00715 17.2499 9.07225 17.1723 9.15522 17.1178C9.2382 17.0633 9.33539 17.0343 9.43475 17.0344H10.8096C10.9892 17.2569 11.1719 17.4724 11.3545 17.6778C12.0262 18.4326 12.704 19.07 13.2317 19.5203C13.4955 19.7459 13.7258 19.927 13.9024 20.0545C13.9896 20.1182 14.0698 20.1718 14.1378 20.2133C14.1968 20.253 14.2614 20.2836 14.3295 20.3044C14.4681 20.3498 14.6191 20.3389 14.7496 20.274C14.7902 20.2558 14.8277 20.2335 14.8612 20.2143C14.9415 20.1653 15.0197 20.113 15.0956 20.0575C15.2722 19.93 15.5015 19.7499 15.7663 19.5263C16.2939 19.0791 16.9738 18.4448 17.6445 17.692H17.6455Z" fill="#555555"/>
</svg>
