<svg width="25" height="24" viewBox="0 0 25 24" fill="none" xmlns="http://www.w3.org/2000/svg">
<path d="M18.0905 12.6359C18.1003 11.8694 18.304 11.1177 18.6824 10.451C19.0608 9.78423 19.6017 9.22403 20.2548 8.82252C19.8399 8.22997 19.2926 7.74234 18.6563 7.39833C18.02 7.05433 17.3122 6.86343 16.5892 6.84081C15.0469 6.67892 13.5517 7.76369 12.7658 7.76369C11.9647 7.76369 10.7546 6.85689 9.45159 6.88369C8.60876 6.91092 7.78735 7.15601 7.0674 7.59508C6.34746 8.03415 5.75352 8.65223 5.34347 9.38908C3.56724 12.4644 4.89215 16.9841 6.59366 19.47C7.44496 20.6873 8.43988 22.047 9.74174 21.9988C11.0157 21.9459 11.4915 21.1864 13.0292 21.1864C14.5527 21.1864 14.9991 21.9988 16.3273 21.9681C17.6943 21.9459 18.5556 20.7454 19.377 19.5166C19.9887 18.6493 20.4594 17.6907 20.7716 16.6763C19.9774 16.3404 19.2997 15.7782 18.8229 15.0597C18.3461 14.3412 18.0914 13.4982 18.0905 12.6359Z" fill="white"/>
<path d="M15.5817 5.20594C16.327 4.31119 16.6942 3.16113 16.6053 2C15.4666 2.1196 14.4147 2.66383 13.6593 3.52425C13.29 3.94459 13.0071 4.43361 12.8269 4.96334C12.6466 5.49307 12.5726 6.05313 12.6089 6.6115C13.1785 6.61736 13.7419 6.49391 14.2569 6.25045C14.7718 6.00698 15.2248 5.64985 15.5817 5.20594Z" fill="white"/>
</svg>
