<svg width="95" height="95" viewBox="0 0 95 95" fill="none" xmlns="http://www.w3.org/2000/svg">
<path d="M81.5797 48.4572C81.5797 45.6276 81.5797 43.006 81.5797 40.3845C81.5797 38.7616 82.4952 37.6797 83.9516 37.43C85.408 37.1803 86.8645 38.2623 87.0725 39.7187C87.1141 39.9267 87.1141 40.1348 87.1141 40.3012C87.1141 47.3337 87.1557 54.3245 87.0309 61.3569C86.9893 65.3517 86.3235 69.2632 84.9503 73.0083C82.4536 79.7078 77.6266 83.7442 70.8438 85.6584C67.0155 86.7403 63.0624 87.1148 59.0676 87.0732C50.6204 87.0732 42.1315 87.1148 33.6843 86.9899C29.315 86.9483 24.9874 86.1993 20.9094 84.4516C14.7924 81.83 11.1722 77.0863 9.38288 70.8029C8.50903 67.7652 8.0513 64.6859 8.00969 61.5234C7.88485 52.1607 7.84324 42.8396 8.00969 33.4769C8.09291 29.4821 8.7587 25.529 10.1735 21.7423C12.6286 15.334 17.2476 11.3809 23.739 9.46673C27.1096 8.50966 30.5634 8.01031 34.0588 7.9687C39.7597 7.88548 45.4605 7.92709 51.1614 7.92709C52.5762 7.92709 53.6581 8.84255 53.9077 10.0909C54.1574 11.4225 53.5332 12.6709 52.3265 13.2118C51.8271 13.4199 51.2862 13.4615 50.7036 13.4615C45.5853 13.4615 40.4671 13.4615 35.3488 13.4615C32.0198 13.4615 28.7325 13.7944 25.5283 14.7098C19.6194 16.3327 16.0408 20.2026 14.5428 26.1115C13.877 28.8163 13.5025 31.5211 13.5025 34.3091C13.4192 43.4638 13.3776 52.6184 13.5441 61.773C13.5857 64.1449 14.0018 66.4752 14.5428 68.7639C14.9173 68.7639 15.1253 68.4726 15.375 68.3061C19.9939 65.1852 24.6129 62.1059 29.2318 58.985C33.934 55.8225 39.0522 56.1138 43.3383 59.8173C46.0847 62.1892 48.7062 62.1892 51.4942 59.8173C56.1964 55.7809 60.8986 51.7029 65.6423 47.6666C70.2613 43.7134 75.8789 43.7134 80.5394 47.625C80.8723 47.8746 81.1636 48.0827 81.5797 48.4572ZM47.6243 81.4972V81.5388C51.203 81.5388 54.8232 81.5388 58.4018 81.5388C61.4395 81.5388 64.4356 81.3723 67.4317 80.7897C74.4225 79.4582 78.9582 75.5882 80.6227 68.5142C81.5797 64.3946 81.6214 60.275 81.6214 56.0722C81.6214 55.6561 81.3717 55.448 81.122 55.24C79.7488 54.0748 78.3756 52.8681 77.0024 51.7029C74.6305 49.664 71.8009 49.664 69.429 51.7029C64.5604 55.9058 59.6502 60.1086 54.7816 64.2698C51.9936 66.6417 48.7479 67.5155 45.1276 66.7665C43.0054 66.3088 41.2161 65.1852 39.5932 63.7704C37.5542 62.0643 35.0159 61.8147 32.8521 63.2295C27.6089 66.6833 22.4074 70.2203 17.1643 73.7157C16.7482 73.9654 16.7898 74.1318 17.0395 74.5063C18.3295 76.3789 20.0356 77.8353 22.0329 78.9172C25.6532 80.7897 29.5647 81.3723 33.5179 81.4972C38.22 81.5804 42.9222 81.4972 47.6243 81.4972Z" fill="#777777"/>
<path d="M36.4308 42.8812C30.8548 42.8812 26.3191 38.3038 26.3191 32.7278C26.3191 27.235 30.938 22.6577 36.4724 22.6577C42.0901 22.6577 46.6258 27.235 46.6258 32.811C46.5841 38.3871 42.0484 42.8812 36.4308 42.8812ZM36.4724 37.3468C39.0108 37.3468 41.0914 35.3078 41.0914 32.7694C41.0914 30.2311 39.0108 28.1505 36.4724 28.1505C33.9341 28.1505 31.8535 30.1895 31.8535 32.7278C31.8535 35.3078 33.8925 37.3468 36.4724 37.3468Z" fill="#777777"/>
<path d="M64.5603 18.9959C65.6422 18.9959 66.6826 18.9543 67.7645 18.9959C68.5967 19.0375 68.7632 18.7463 68.7632 17.9556C68.7215 15.9166 68.7215 13.8776 68.7632 11.8387C68.7632 10.0493 69.8867 8.84259 71.5095 8.84259C73.0908 8.84259 74.2975 10.091 74.2975 11.8387C74.3392 13.9193 74.3392 16.0415 74.2975 18.1221C74.2975 18.7879 74.464 18.9959 75.1714 18.9959C77.252 18.9543 79.3742 18.9543 81.4548 18.9959C83.2025 18.9959 84.3677 20.0778 84.3677 21.7007C84.3677 23.3236 83.2025 24.4887 81.4132 24.5303C79.4158 24.5303 77.3768 24.5303 75.3795 24.5303C74.2976 24.5303 74.2975 24.5303 74.2975 25.6538C74.2975 27.6512 74.2975 29.6902 74.2975 31.6876C74.2975 32.8943 73.7982 33.8098 72.6747 34.3508C71.676 34.8085 70.6357 34.7253 69.7618 34.0179C69.0544 33.4769 68.7632 32.7279 68.7632 31.8124C68.7632 29.6486 68.7215 27.4848 68.7632 25.3209C68.7632 24.6552 68.5967 24.4887 67.9309 24.4887C65.8087 24.5303 63.6865 24.5303 61.5643 24.4887C59.4421 24.4471 58.0689 22.6162 58.8179 20.7436C59.234 19.6617 60.0662 19.0375 61.2314 18.9959C62.3133 18.9543 63.4368 18.9959 64.5603 18.9959Z" fill="#12EBB3"/>
</svg>
