<svg width="19" height="20" viewBox="0 0 19 20" fill="none" xmlns="http://www.w3.org/2000/svg">
<path d="M1.58333 15.9377V9.01058C1.58333 7.92822 2.44921 7.03141 3.56249 7.03141H5.54166V10.9897C5.54166 12.6287 6.87141 13.9585 8.51041 13.9585H12.4687V15.9377C12.4687 17.0509 11.5719 17.9168 10.4896 17.9168H3.56249C2.44921 17.9168 1.58333 17.0509 1.58333 15.9377ZM8.51041 12.9689C7.39713 12.9689 6.53124 12.103 6.53124 10.9897V4.06266C6.53124 2.98031 7.39713 2.0835 8.51041 2.0835H15.4375C16.5199 2.0835 17.4167 2.98031 17.4167 4.06266V10.9897C17.4167 12.103 16.5199 12.9689 15.4375 12.9689H8.51041Z" fill="#555555"/>
</svg>
