<svg width="19" height="20" viewBox="0 0 19 20" fill="none" xmlns="http://www.w3.org/2000/svg">
<path d="M2.37501 4.4585C2.79558 4.4585 3.16668 4.82959 3.16668 5.25016V11.5835H8.70834V7.62516C8.70834 7.20459 9.0547 6.8335 9.50001 6.8335H15.0417C16.3529 6.8335 17.4167 7.8973 17.4167 9.2085V14.7502C17.4167 15.1955 17.0456 15.5418 16.625 15.5418C16.1797 15.5418 15.8333 15.1955 15.8333 14.7502V13.9585H10.2917H9.50001H3.16668V14.7502C3.16668 15.1955 2.79558 15.5418 2.37501 15.5418C1.9297 15.5418 1.58334 15.1955 1.58334 14.7502V5.25016C1.58334 4.82959 1.9297 4.4585 2.37501 4.4585ZM5.93751 6.8335C6.63022 6.8335 7.27345 7.22933 7.64454 7.82308C7.9909 8.44157 7.9909 9.2085 7.64454 9.80225C7.27345 10.4207 6.63022 10.7918 5.93751 10.7918C5.22006 10.7918 4.57683 10.4207 4.20574 9.80225C3.85939 9.2085 3.85939 8.44157 4.20574 7.82308C4.57683 7.22933 5.22006 6.8335 5.93751 6.8335Z" fill="#555555"/>
</svg>
