<svg width="28" height="28" viewBox="0 0 28 28" fill="none" xmlns="http://www.w3.org/2000/svg">
<rect x="0.5" y="0.5" width="27" height="27" rx="13.5" fill="white"/>
<rect x="0.5" y="0.5" width="27" height="27" rx="13.5" stroke="#DDDDDD"/>
<path fill-rule="evenodd" clip-rule="evenodd" d="M11.7143 8.95238C11.7586 8.89324 11.8161 8.84524 11.8823 8.81217C11.9484 8.77911 12.0213 8.7619 12.0952 8.7619H15.9047C15.9787 8.7619 16.0516 8.77911 16.1177 8.81217C16.1838 8.84524 16.2413 8.89324 16.2857 8.95238L17.5714 10.6667H19.2381C19.4257 10.6667 19.6114 10.7036 19.7848 10.7754C19.9581 10.8472 20.1156 10.9524 20.2482 11.0851C20.3809 11.2177 20.4861 11.3752 20.5579 11.5485C20.6297 11.7219 20.6666 11.9076 20.6666 12.0952V17.8095C20.6666 18.1884 20.5161 18.5518 20.2482 18.8197C19.9803 19.0876 19.617 19.2381 19.2381 19.2381H8.76188C8.383 19.2381 8.01964 19.0876 7.75173 18.8197C7.48382 18.5518 7.33331 18.1884 7.33331 17.8095V12.0952C7.33331 11.7164 7.48382 11.353 7.75173 11.0851C8.01964 10.8172 8.383 10.6667 8.76188 10.6667H10.4286L11.7143 8.95238ZM16.3438 14.6771C16.3438 15.2988 16.0969 15.8949 15.6573 16.3345C15.2178 16.774 14.6216 17.0209 14 17.0209C13.3784 17.0209 12.7822 16.774 12.3427 16.3345C11.9031 15.8949 11.6562 15.2988 11.6562 14.6771C11.6562 14.0555 11.9031 13.4594 12.3427 13.0198C12.7822 12.5803 13.3784 12.3333 14 12.3333C14.6216 12.3333 15.2178 12.5803 15.6573 13.0198C16.0969 13.4594 16.3438 14.0555 16.3438 14.6771Z" fill="#555555"/>
</svg>
