<svg width="59" height="59" viewBox="0 0 59 59" fill="none" xmlns="http://www.w3.org/2000/svg">
<rect x="0.5" y="0.5" width="58" height="58" rx="15.5" fill="#FFF5F8"/>
<rect x="0.5" y="0.5" width="58" height="58" rx="15.5" stroke="#B035DB"/>
<path d="M29.1185 26.9614C29.1185 28.7681 27.5096 30.2493 25.5359 30.2493C23.5621 30.2493 21.9532 28.7681 21.9532 26.9614C21.9532 25.1384 23.5621 23.6735 25.5359 23.6735C27.5096 23.6735 29.1185 25.1384 29.1185 26.9614ZM37.4449 26.9614C37.4449 28.7681 35.8526 30.2493 33.8622 30.2493C31.8884 30.2493 30.2795 28.7681 30.2795 26.9614C30.2795 25.1384 31.8884 23.6735 33.8622 23.6735C35.8526 23.6735 37.4449 25.1384 37.4449 26.9614ZM41.1768 29.8912V19.0347C41.1768 17.1629 40.5631 16.4304 38.8049 16.4304H20.3609C18.5198 16.4304 18.0056 17.0489 18.0056 19.0347V29.9889C21.9366 32.0072 25.3036 31.6491 27.1447 31.584C27.9243 31.5677 28.4219 31.7142 28.7204 32.0234C28.7702 32.0723 28.8199 32.1211 28.8863 32.1699C29.2346 32.4955 29.5663 32.7559 29.8981 33C29.9644 32.1048 30.4786 31.5351 31.8553 31.584C33.7295 31.6654 37.1795 32.0234 41.1768 29.8912ZM43.8804 29.8098C42.8188 31.0957 40.7953 32.6745 37.7102 33.9115C40.9777 44.8332 29.7322 46.5748 29.9146 40.9756C29.9146 41.0733 29.8981 37.9644 29.8981 35.6531C29.6493 35.6043 29.4005 35.5392 29.1019 35.4741C29.1019 37.8017 29.0853 41.0733 29.0853 40.9756C29.2678 46.5748 18.0222 44.8332 21.2897 33.9115C18.2047 32.6745 16.1811 31.0957 15.1196 29.8098C14.5889 29.0285 15.1694 28.1984 16.0485 28.8007C16.1646 28.882 16.2973 28.9634 16.4134 29.0448V17.7488C16.4134 16.1863 17.6076 14.9167 19.0838 14.9167H39.9328C41.409 14.9167 42.6032 16.1863 42.6032 17.7488V29.0448C42.7193 28.9634 42.8354 28.882 42.9515 28.8007C43.8306 28.1984 44.4111 29.0285 43.8804 29.8098Z" fill="#B035DB"/>
</svg>
