<svg width="73" height="70" viewBox="0 0 73 70" fill="none" xmlns="http://www.w3.org/2000/svg">
<rect width="72.5" height="70" rx="20" fill="white" fill-opacity="0.2" style="mix-blend-mode:overlay"/>
<rect x="0.5" y="0.5" width="71.5" height="69" rx="19.5" stroke="white" stroke-opacity="0.5" style="mix-blend-mode:overlay"/>
<g filter="url(#filter0_b_546_4459)">
<path d="M36.8899 15.4198L21.0454 19.6653C15.2714 21.2124 12.8765 25.3601 14.4235 31.1335L18.6646 46.9615C20.2116 52.7349 24.3595 55.1295 30.1334 53.5823L45.978 49.3368C51.7519 47.7897 54.1318 43.646 52.5848 37.8726L48.3437 22.0446C46.7967 16.2712 42.6639 13.8726 36.8899 15.4198Z" fill="url(#paint0_linear_546_4459)"/>
</g>
<g opacity="0.5" filter="url(#filter1_f_546_4459)">
<path d="M44.6971 36.1624L41.8198 25.2632C40.7761 21.3098 38.164 19.5372 34.7295 20.4439L23.097 23.5147C19.6061 24.4363 18.2544 27.2554 19.298 31.2088L22.1753 42.108C23.2358 46.1251 25.7857 47.8447 29.2766 46.9231L40.9091 43.8522C44.3437 42.9455 45.7576 40.1796 44.6971 36.1624Z" fill="#0DA6C2"/>
</g>
<g filter="url(#filter2_b_546_4459)">
<mask id="path-5-outside-1_546_4459" maskUnits="userSpaceOnUse" x="23.8989" y="21.8866" width="37" height="37" fill="black">
<rect fill="white" x="23.8989" y="21.8866" width="37" height="37"/>
<path d="M50.6644 22.8866H34.2625C28.2854 22.8866 24.8989 26.2731 24.8989 32.2502V48.6365C24.8989 54.6136 28.2854 58.0001 34.2625 58.0001H50.6644C56.6415 58.0001 60.0124 54.6136 60.0124 48.6365V32.2502C60.0124 26.2731 56.6415 22.8866 50.6644 22.8866Z"/>
</mask>
<path d="M50.6644 22.8866H34.2625C28.2854 22.8866 24.8989 26.2731 24.8989 32.2502V48.6365C24.8989 54.6136 28.2854 58.0001 34.2625 58.0001H50.6644C56.6415 58.0001 60.0124 54.6136 60.0124 48.6365V32.2502C60.0124 26.2731 56.6415 22.8866 50.6644 22.8866Z" fill="#0DA6C2" fill-opacity="0.2"/>
<path d="M50.6644 23.3272C50.9078 23.3272 51.1051 23.1299 51.1051 22.8866C51.1051 22.6432 50.9078 22.446 50.6644 22.446V23.3272ZM50.6644 22.446C50.4211 22.446 50.2238 22.6432 50.2238 22.8866C50.2238 23.1299 50.4211 23.3272 50.6644 23.3272V22.446ZM50.6644 22.446H34.2625V23.3272H50.6644V22.446ZM34.2625 22.446C31.1921 22.446 28.7259 23.3172 27.0277 25.0154C25.3295 26.7136 24.4583 29.1797 24.4583 32.2502H25.3395C25.3395 29.3436 26.1616 27.1279 27.6509 25.6386C29.1402 24.1492 31.3559 23.3272 34.2625 23.3272V22.446ZM24.4583 32.2502V48.6365H25.3395V32.2502H24.4583ZM24.4583 48.6365C24.4583 51.707 25.3295 54.1731 27.0277 55.8713C28.7259 57.5695 31.1921 58.4407 34.2625 58.4407V57.5595C31.3559 57.5595 29.1402 56.7375 27.6509 55.2481C26.1616 53.7588 25.3395 51.5431 25.3395 48.6365H24.4583ZM34.2625 58.4407H50.6644V57.5595H34.2625V58.4407ZM50.6644 58.4407C53.7349 58.4407 56.1974 57.5695 57.8918 55.8709C59.586 54.1725 60.4531 51.7064 60.4531 48.6365H59.5718C59.5718 51.5437 58.7534 53.7594 57.2679 55.2485C55.7826 56.7375 53.571 57.5595 50.6644 57.5595V58.4407ZM60.4531 48.6365V32.2502H59.5718V48.6365H60.4531ZM60.4531 32.2502C60.4531 29.1803 59.586 26.7142 57.8918 25.0158C56.1974 23.3172 53.7349 22.446 50.6644 22.446V23.3272C53.571 23.3272 55.7826 24.1492 57.2679 25.6382C58.7534 27.1273 59.5718 29.343 59.5718 32.2502H60.4531Z" fill="url(#paint1_linear_546_4459)" mask="url(#path-5-outside-1_546_4459)"/>
</g>
<g filter="url(#filter3_bd_546_4459)">
<mask id="path-7-inside-2_546_4459" fill="white">
<path fill-rule="evenodd" clip-rule="evenodd" d="M42.5178 30.0654C41.7219 30.0654 41.0665 30.7208 41.0665 31.5323V49.3544C41.0665 50.1503 41.7219 50.8057 42.5178 50.8057C43.3293 50.8057 43.9848 50.1503 43.9848 49.3544V31.5323C43.9848 30.7208 43.3293 30.0654 42.5178 30.0654ZM34.3246 35.8244C33.5287 35.8244 32.8733 36.4799 32.8733 37.2914V49.3548C32.8733 50.1507 33.5287 50.8062 34.3246 50.8062C35.1362 50.8062 35.7916 50.1507 35.7916 49.3548V37.2914C35.7916 36.4799 35.1362 35.8244 34.3246 35.8244ZM49.1349 43.6586C49.1349 42.8471 49.7904 42.1916 50.6019 42.1916C51.3978 42.1916 52.0533 42.8471 52.0533 43.6586V49.3548C52.0533 50.1507 51.3978 50.8062 50.5863 50.8062C49.7904 50.8062 49.1349 50.1507 49.1349 49.3548V43.6586Z"/>
</mask>
<path fill-rule="evenodd" clip-rule="evenodd" d="M42.5178 30.0654C41.7219 30.0654 41.0665 30.7208 41.0665 31.5323V49.3544C41.0665 50.1503 41.7219 50.8057 42.5178 50.8057C43.3293 50.8057 43.9848 50.1503 43.9848 49.3544V31.5323C43.9848 30.7208 43.3293 30.0654 42.5178 30.0654ZM34.3246 35.8244C33.5287 35.8244 32.8733 36.4799 32.8733 37.2914V49.3548C32.8733 50.1507 33.5287 50.8062 34.3246 50.8062C35.1362 50.8062 35.7916 50.1507 35.7916 49.3548V37.2914C35.7916 36.4799 35.1362 35.8244 34.3246 35.8244ZM49.1349 43.6586C49.1349 42.8471 49.7904 42.1916 50.6019 42.1916C51.3978 42.1916 52.0533 42.8471 52.0533 43.6586V49.3548C52.0533 50.1507 51.3978 50.8062 50.5863 50.8062C49.7904 50.8062 49.1349 50.1507 49.1349 49.3548V43.6586Z" fill="url(#paint2_linear_546_4459)"/>
<path d="M41.2427 31.5323C41.2427 30.8169 41.8205 30.2416 42.5178 30.2416V29.8891C41.6233 29.8891 40.8902 30.6247 40.8902 31.5323H41.2427ZM41.2427 49.3544V31.5323H40.8902V49.3544H41.2427ZM42.5178 50.6295C41.8192 50.6295 41.2427 50.053 41.2427 49.3544H40.8902C40.8902 50.2476 41.6246 50.982 42.5178 50.982V50.6295ZM43.8085 49.3544C43.8085 50.0517 43.2332 50.6295 42.5178 50.6295V50.982C43.4254 50.982 44.161 50.2489 44.161 49.3544H43.8085ZM43.8085 31.5323V49.3544H44.161V31.5323H43.8085ZM42.5178 30.2416C43.232 30.2416 43.8085 30.8182 43.8085 31.5323H44.161C44.161 30.6235 43.4267 29.8891 42.5178 29.8891V30.2416ZM33.0495 37.2914C33.0495 36.576 33.6273 36.0007 34.3246 36.0007V35.6482C33.4302 35.6482 32.697 36.3837 32.697 37.2914H33.0495ZM33.0495 49.3548V37.2914H32.697V49.3548H33.0495ZM34.3246 50.6299C33.6261 50.6299 33.0495 50.0534 33.0495 49.3548H32.697C32.697 50.2481 33.4314 50.9824 34.3246 50.9824V50.6299ZM35.6154 49.3548C35.6154 50.0521 35.0401 50.6299 34.3246 50.6299V50.9824C35.2323 50.9824 35.9679 50.2493 35.9679 49.3548H35.6154ZM35.6154 37.2914V49.3548H35.9679V37.2914H35.6154ZM34.3246 36.0007C35.0388 36.0007 35.6154 36.5772 35.6154 37.2914H35.9679C35.9679 36.3825 35.2335 35.6482 34.3246 35.6482V36.0007ZM50.6019 42.0154C49.693 42.0154 48.9587 42.7498 48.9587 43.6586H49.3112C49.3112 42.9444 49.8877 42.3679 50.6019 42.3679V42.0154ZM52.2295 43.6586C52.2295 42.751 51.4964 42.0154 50.6019 42.0154V42.3679C51.2992 42.3679 51.877 42.9432 51.877 43.6586H52.2295ZM52.2295 49.3548V43.6586H51.877V49.3548H52.2295ZM50.5863 50.9824C51.4939 50.9824 52.2295 50.2493 52.2295 49.3548H51.877C51.877 50.0521 51.3017 50.6299 50.5863 50.6299V50.9824ZM48.9587 49.3548C48.9587 50.248 49.693 50.9824 50.5863 50.9824V50.6299C49.8877 50.6299 49.3112 50.0534 49.3112 49.3548H48.9587ZM48.9587 43.6586V49.3548H49.3112V43.6586H48.9587Z" fill="url(#paint3_linear_546_4459)" mask="url(#path-7-inside-2_546_4459)"/>
</g>
<defs>
<filter id="filter0_b_546_4459" x="8.23576" y="9.23228" width="50.5385" height="50.5379" filterUnits="userSpaceOnUse" color-interpolation-filters="sRGB">
<feFlood flood-opacity="0" result="BackgroundImageFix"/>
<feGaussianBlur in="BackgroundImageFix" stdDeviation="2.86405"/>
<feComposite in2="SourceAlpha" operator="in" result="effect1_backgroundBlur_546_4459"/>
<feBlend mode="normal" in="SourceGraphic" in2="effect1_backgroundBlur_546_4459" result="shape"/>
</filter>
<filter id="filter1_f_546_4459" x="13.2262" y="14.4831" width="37.5443" height="38.4111" filterUnits="userSpaceOnUse" color-interpolation-filters="sRGB">
<feFlood flood-opacity="0" result="BackgroundImageFix"/>
<feBlend mode="normal" in="SourceGraphic" in2="BackgroundImageFix" result="shape"/>
<feGaussianBlur stdDeviation="2.86405" result="effect1_foregroundBlur_546_4459"/>
</filter>
<filter id="filter2_b_546_4459" x="17.8489" y="15.8366" width="49.2136" height="49.2135" filterUnits="userSpaceOnUse" color-interpolation-filters="sRGB">
<feFlood flood-opacity="0" result="BackgroundImageFix"/>
<feGaussianBlur in="BackgroundImageFix" stdDeviation="3.30468"/>
<feComposite in2="SourceAlpha" operator="in" result="effect1_backgroundBlur_546_4459"/>
<feBlend mode="normal" in="SourceGraphic" in2="effect1_backgroundBlur_546_4459" result="shape"/>
</filter>
<filter id="filter3_bd_546_4459" x="26.2639" y="23.456" width="32.3986" height="33.9595" filterUnits="userSpaceOnUse" color-interpolation-filters="sRGB">
<feFlood flood-opacity="0" result="BackgroundImageFix"/>
<feGaussianBlur in="BackgroundImageFix" stdDeviation="3.30468"/>
<feComposite in2="SourceAlpha" operator="in" result="effect1_backgroundBlur_546_4459"/>
<feColorMatrix in="SourceAlpha" type="matrix" values="0 0 0 0 0 0 0 0 0 0 0 0 0 0 0 0 0 0 127 0" result="hardAlpha"/>
<feOffset dx="2.20312" dy="2.20312"/>
<feGaussianBlur stdDeviation="2.20312"/>
<feColorMatrix type="matrix" values="0 0 0 0 0.0509804 0 0 0 0 0.65098 0 0 0 0 0.760784 0 0 0 0.5 0"/>
<feBlend mode="normal" in2="effect1_backgroundBlur_546_4459" result="effect2_dropShadow_546_4459"/>
<feBlend mode="normal" in="SourceGraphic" in2="effect2_dropShadow_546_4459" result="shape"/>
</filter>
<linearGradient id="paint0_linear_546_4459" x1="36.6099" y1="36.1052" x2="10.689" y2="58.5841" gradientUnits="userSpaceOnUse">
<stop stop-color="#56E5FF"/>
<stop offset="1" stop-color="#0DA6C2"/>
</linearGradient>
<linearGradient id="paint1_linear_546_4459" x1="30.4884" y1="26.9774" x2="52.8871" y2="54.7187" gradientUnits="userSpaceOnUse">
<stop stop-color="white" stop-opacity="0.25"/>
<stop offset="1" stop-color="white" stop-opacity="0"/>
</linearGradient>
<linearGradient id="paint2_linear_546_4459" x1="27.9086" y1="45.4597" x2="36.8933" y2="63.9175" gradientUnits="userSpaceOnUse">
<stop stop-color="white"/>
<stop offset="1" stop-color="white" stop-opacity="0.2"/>
</linearGradient>
<linearGradient id="paint3_linear_546_4459" x1="35.9264" y1="32.4817" x2="49.3372" y2="47.8413" gradientUnits="userSpaceOnUse">
<stop stop-color="white" stop-opacity="0.25"/>
<stop offset="1" stop-color="white" stop-opacity="0"/>
</linearGradient>
</defs>
</svg>
