<svg width="16" height="16" viewBox="0 0 16 16" fill="none" xmlns="http://www.w3.org/2000/svg">
<rect width="16" height="16" rx="8" fill="#333333" fill-opacity="0.4"/>
<g clip-path="url(#clip0_48_1929)">
<path fill-rule="evenodd" clip-rule="evenodd" d="M4.76413 4.76432C4.89431 4.63414 5.10536 4.63414 5.23554 4.76432L11.2355 10.7643C11.3657 10.8945 11.3657 11.1055 11.2355 11.2357C11.1054 11.3659 10.8943 11.3659 10.7641 11.2357L4.76413 5.23572C4.63396 5.10555 4.63396 4.89449 4.76413 4.76432Z" fill="white"/>
<path fill-rule="evenodd" clip-rule="evenodd" d="M11.2359 4.76432C11.366 4.89449 11.366 5.10555 11.2359 5.23572L5.23587 11.2357C5.10569 11.3659 4.89464 11.3659 4.76446 11.2357C4.63429 11.1055 4.63429 10.8945 4.76446 10.7643L10.7645 4.76432C10.8946 4.63414 11.1057 4.63414 11.2359 4.76432Z" fill="white"/>
</g>
<defs>
<clipPath id="clip0_48_1929">
<rect width="8" height="8" fill="white" transform="translate(4 4)"/>
</clipPath>
</defs>
</svg>
