<svg width="39" height="38" viewBox="0 0 39 38" fill="none" xmlns="http://www.w3.org/2000/svg">
<rect x="0.5" width="38" height="38" rx="19" fill="url(#paint0_linear_312_4616)"/>
<path d="M17.4688 25.9249C16.7581 26.3839 15.9111 26.5841 15.0701 26.4917C14.2292 26.3993 13.4458 26.0201 12.8517 25.4178L12.3324 24.9096C12.1048 24.6768 11.9774 24.3642 11.9774 24.0386C11.9774 23.713 12.1048 23.4004 12.3324 23.1675L14.5361 20.986C14.767 20.7592 15.0778 20.632 15.4016 20.632C15.7253 20.632 16.0361 20.7592 16.2671 20.986C16.4999 21.214 16.8128 21.3416 17.1387 21.3416C17.4645 21.3416 17.7774 21.214 18.0103 20.986L21.4723 17.524C21.5878 17.4102 21.6795 17.2745 21.7421 17.1248C21.8047 16.9752 21.837 16.8146 21.837 16.6524C21.837 16.4902 21.8047 16.3297 21.7421 16.18C21.6795 16.0304 21.5878 15.8947 21.4723 15.7808C21.2454 15.5499 21.1183 15.2391 21.1183 14.9153C21.1183 14.5916 21.2454 14.2808 21.4723 14.0498L23.6671 11.855C23.8999 11.6274 24.2126 11.5 24.5381 11.5C24.8637 11.5 25.1764 11.6274 25.4092 11.855L25.9174 12.3743C26.5194 12.9683 26.8985 13.7515 26.9911 14.5921C27.0836 15.4327 26.8839 16.2796 26.4256 16.9903C24.0364 20.5119 20.9963 23.5445 17.4688 25.9249Z" fill="white"/>
<defs>
<linearGradient id="paint0_linear_312_4616" x1="19.5" y1="0" x2="19.5" y2="38" gradientUnits="userSpaceOnUse">
<stop stop-color="#F1416C"/>
<stop offset="1" stop-color="#FD822E"/>
</linearGradient>
</defs>
</svg>
