<svg width="39" height="38" viewBox="0 0 39 38" fill="none" xmlns="http://www.w3.org/2000/svg">
<rect x="0.5" width="38" height="38" rx="19" fill="url(#paint0_linear_444_3307)"/>
<path d="M25.4201 16.7002C25.5745 16.4424 25.5014 16.1436 25.2332 15.9385L19.707 11.7197C19.5242 11.5791 19.2682 11.5 19 11.5C18.7318 11.5 18.4758 11.5791 18.293 11.7197L12.7668 15.9385C12.4986 16.1436 12.4255 16.4424 12.5799 16.7002C12.7343 16.958 13.0838 17.125 13.4738 17.125H16.3995V25.5625C16.3995 26.0811 16.9805 26.5 17.6997 26.5H20.3003C21.0195 26.5 21.6005 26.0811 21.6005 25.5625V17.125H24.5262C24.9162 17.125 25.2657 16.958 25.4201 16.7002Z" fill="white"/>
<defs>
<linearGradient id="paint0_linear_444_3307" x1="19.5" y1="0" x2="19.5" y2="38" gradientUnits="userSpaceOnUse">
<stop stop-color="#FF1616"/>
<stop offset="1" stop-color="#4C28A5"/>
</linearGradient>
</defs>
</svg>
