<svg width="25" height="24" viewBox="0 0 25 24" fill="none" xmlns="http://www.w3.org/2000/svg">
<path d="M11.8571 2H16.8433C17.3536 2 17.8438 2.19922 18.2054 2.55078L20.9335 5.20312C21.2951 5.55469 21.5 6.03125 21.5 6.52734V15.125C21.5 16.1602 20.6362 17 19.5714 17H11.8571C10.7924 17 9.92857 16.1602 9.92857 15.125V3.875C9.92857 2.83984 10.7924 2 11.8571 2ZM5.42857 7H8.64286V9.5H6.07143V19.5H13.7857V18.25H16.3571V20.125C16.3571 21.1602 15.4933 22 14.4286 22H5.42857C4.36384 22 3.5 21.1602 3.5 20.125V8.875C3.5 7.83984 4.36384 7 5.42857 7Z" fill="white"/>
</svg>
