<svg width="16" height="17" viewBox="0 0 16 17" fill="none" xmlns="http://www.w3.org/2000/svg">
<path fill-rule="evenodd" clip-rule="evenodd" d="M1.52851 2.02864C1.78886 1.76829 2.21097 1.76829 2.47132 2.02864L14.4713 14.0286C14.7317 14.289 14.7317 14.7111 14.4713 14.9714C14.211 15.2318 13.7889 15.2318 13.5285 14.9714L1.52851 2.97145C1.26816 2.7111 1.26816 2.28899 1.52851 2.02864Z" fill="#333333"/>
<path fill-rule="evenodd" clip-rule="evenodd" d="M14.4715 2.02864C14.7318 2.28899 14.7318 2.7111 14.4715 2.97145L2.47149 14.9714C2.21114 15.2318 1.78903 15.2318 1.52868 14.9714C1.26833 14.7111 1.26833 14.289 1.52868 14.0286L13.5287 2.02864C13.789 1.76829 14.2111 1.76829 14.4715 2.02864Z" fill="#333333"/>
</svg>
