<svg width="14" height="15" viewBox="0 0 14 15" fill="none" xmlns="http://www.w3.org/2000/svg">
<path d="M5.66668 3.49992H8.33334C8.33334 3.1463 8.19287 2.80716 7.94282 2.55711C7.69277 2.30706 7.35363 2.16659 7.00001 2.16659C6.64639 2.16659 6.30725 2.30706 6.0572 2.55711C5.80715 2.80716 5.66668 3.1463 5.66668 3.49992ZM4.33334 3.49992C4.33334 2.79267 4.61429 2.1144 5.11439 1.6143C5.61449 1.1142 6.29277 0.833252 7.00001 0.833252C7.70725 0.833252 8.38553 1.1142 8.88563 1.6143C9.38573 2.1144 9.66668 2.79267 9.66668 3.49992H13C13.1768 3.49992 13.3464 3.57016 13.4714 3.69518C13.5964 3.8202 13.6667 3.98977 13.6667 4.16658C13.6667 4.3434 13.5964 4.51297 13.4714 4.63799C13.3464 4.76301 13.1768 4.83325 13 4.83325H12.412L11.8213 11.7266C11.7646 12.3922 11.46 13.0123 10.9679 13.4641C10.4758 13.916 9.83207 14.1667 9.16401 14.1666H4.83601C4.16795 14.1667 3.52419 13.916 3.03211 13.4641C2.54003 13.0123 2.23546 12.3922 2.17868 11.7266L1.58801 4.83325H1.00001C0.823199 4.83325 0.65363 4.76301 0.528606 4.63799C0.403581 4.51297 0.333344 4.3434 0.333344 4.16658C0.333344 3.98977 0.403581 3.8202 0.528606 3.69518C0.65363 3.57016 0.823199 3.49992 1.00001 3.49992H4.33334ZM9.00001 7.49992C9.00001 7.32311 8.92977 7.15354 8.80475 7.02851C8.67972 6.90349 8.51015 6.83325 8.33334 6.83325C8.15653 6.83325 7.98696 6.90349 7.86194 7.02851C7.73691 7.15354 7.66668 7.32311 7.66668 7.49992V10.1666C7.66668 10.3434 7.73691 10.513 7.86194 10.638C7.98696 10.763 8.15653 10.8333 8.33334 10.8333C8.51015 10.8333 8.67972 10.763 8.80475 10.638C8.92977 10.513 9.00001 10.3434 9.00001 10.1666V7.49992ZM5.66668 6.83325C5.48987 6.83325 5.3203 6.90349 5.19527 7.02851C5.07025 7.15354 5.00001 7.32311 5.00001 7.49992V10.1666C5.00001 10.3434 5.07025 10.513 5.19527 10.638C5.3203 10.763 5.48987 10.8333 5.66668 10.8333C5.84349 10.8333 6.01306 10.763 6.13808 10.638C6.2631 10.513 6.33334 10.3434 6.33334 10.1666V7.49992C6.33334 7.32311 6.2631 7.15354 6.13808 7.02851C6.01306 6.90349 5.84349 6.83325 5.66668 6.83325Z" fill="white"/>
</svg>
