<svg width="19" height="20" viewBox="0 0 19 20" fill="none" xmlns="http://www.w3.org/2000/svg">
<path d="M9.51547 17.9168C6.67042 17.9168 4.07276 16.4325 2.65024 13.9585C1.22771 11.5155 1.22771 8.51579 2.65024 6.04183C4.07276 3.5988 6.67042 2.0835 9.51547 2.0835C12.3296 2.0835 14.9273 3.5988 16.3498 6.04183C17.7723 8.51579 17.7723 11.5155 16.3498 13.9585C14.9273 16.4325 12.3296 17.9168 9.51547 17.9168ZM11.0617 12.1649C11.34 12.0412 11.5256 11.8556 11.6493 11.5773L13.3501 7.12419C13.5975 6.5057 13.0099 5.91813 12.3914 6.16553L7.93832 7.86637C7.66 7.99007 7.47446 8.17562 7.35076 8.45394L5.64991 12.9071C5.40252 13.4946 6.02101 14.1131 6.60857 13.8657L11.0617 12.1649ZM10.5051 10.0002C10.5051 10.5568 10.0412 10.9897 9.51547 10.9897C8.95883 10.9897 8.52589 10.5568 8.52589 10.0002C8.52589 9.47445 8.95883 9.01058 9.51547 9.01058C10.0412 9.01058 10.5051 9.47445 10.5051 10.0002Z" fill="#333333"/>
</svg>
