<svg width="20" height="20" viewBox="0 0 20 20" fill="none" xmlns="http://www.w3.org/2000/svg">
<path fill-rule="evenodd" clip-rule="evenodd" d="M18.3334 10C18.3334 12.2102 17.4554 14.3298 15.8926 15.8926C14.3298 17.4554 12.2102 18.3334 10.0001 18.3334C7.78994 18.3334 5.67033 17.4554 4.10752 15.8926C2.54472 14.3298 1.66675 12.2102 1.66675 10C1.66675 7.78988 2.54472 5.67027 4.10752 4.10746C5.67033 2.54466 7.78994 1.66669 10.0001 1.66669C12.2102 1.66669 14.3298 2.54466 15.8926 4.10746C17.4554 5.67027 18.3334 7.78988 18.3334 10ZM10.8929 5.53573C10.8929 5.29893 10.7989 5.07183 10.6314 4.90439C10.464 4.73695 10.2369 4.64288 10.0001 4.64288C9.76328 4.64288 9.53618 4.73695 9.36874 4.90439C9.20129 5.07183 9.10722 5.29893 9.10722 5.53573V6.14288C8.58301 6.19928 8.09595 6.44029 7.73312 6.82283C7.37028 7.20536 7.15534 7.70448 7.12671 8.23094C7.09808 8.7574 7.25764 9.27688 7.57685 9.69651C7.89607 10.1161 8.35412 10.4085 8.86913 10.5214L10.6239 10.906C10.768 10.9367 10.8956 11.0198 10.982 11.1391C11.0684 11.2585 11.1074 11.4057 11.0915 11.5522C11.0757 11.6986 11.0061 11.834 10.8962 11.9322C10.7863 12.0303 10.6439 12.0842 10.4965 12.0834H9.50365C9.38069 12.0833 9.26077 12.0451 9.16037 11.9741C9.05996 11.9032 8.98401 11.8028 8.94294 11.6869C8.86401 11.4635 8.69957 11.2807 8.4858 11.1785C8.27203 11.0764 8.02644 11.0633 7.80306 11.1423C7.57968 11.2212 7.3968 11.3857 7.29466 11.5994C7.19252 11.8132 7.17948 12.0588 7.25842 12.2822C7.54294 13.0845 8.24651 13.6917 9.10722 13.8357V14.4643C9.10722 14.7011 9.20129 14.9282 9.36874 15.0957C9.53618 15.2631 9.76328 15.3572 10.0001 15.3572C10.2369 15.3572 10.464 15.2631 10.6314 15.0957C10.7989 14.9282 10.8929 14.7011 10.8929 14.4643V13.8357C11.4378 13.743 11.9335 13.4637 12.2951 13.0457C12.6567 12.6277 12.8617 12.0969 12.8749 11.5443C12.8881 10.9918 12.7088 10.4518 12.3676 10.0169C12.0264 9.58209 11.5447 9.2794 11.0048 9.16074L9.25127 8.7774C9.14697 8.75385 9.05497 8.69276 8.99279 8.60577C8.93061 8.51878 8.90258 8.41197 8.91405 8.30566C8.92552 8.19934 8.97568 8.10096 9.05499 8.02924C9.13429 7.95751 9.2372 7.91745 9.34413 7.91669H10.4965C10.6196 7.91623 10.7398 7.95418 10.8403 8.02523C10.9408 8.09629 11.0166 8.19692 11.0572 8.31312C11.0963 8.42372 11.1568 8.52555 11.2352 8.61278C11.3137 8.70001 11.4085 8.77094 11.5144 8.82151C11.6202 8.87209 11.735 8.90132 11.8521 8.90754C11.9693 8.91376 12.0865 8.89684 12.1971 8.85776C12.3077 8.81867 12.4095 8.75819 12.4968 8.67975C12.584 8.60132 12.6549 8.50646 12.7055 8.40062C12.7561 8.29477 12.7853 8.18 12.7915 8.06285C12.7977 7.94571 12.7808 7.82849 12.7417 7.71788C12.6001 7.31759 12.354 6.96247 12.0289 6.68931C11.7038 6.41615 11.3116 6.23488 10.8929 6.16431V5.53573Z" fill="#333333"/>
</svg>
