<svg width="25" height="24" viewBox="0 0 25 24" fill="none" xmlns="http://www.w3.org/2000/svg">
<path d="M22.0484 3.40178C22.9171 4.27048 22.9171 5.65252 22.0484 6.52122L20.8638 7.70582L16.9941 3.83613L18.1787 2.65153C19.0474 1.78282 20.4295 1.78282 21.2982 2.65153L22.0484 3.40178ZM9.49166 11.3386L16.0859 4.74432L19.9556 8.61402L13.3614 15.2083C13.1244 15.4452 12.8085 15.6426 12.4926 15.7611L8.97833 16.9062C8.62295 17.0247 8.26757 16.9457 8.03065 16.6693C7.75425 16.4324 7.67527 16.0375 7.79373 15.7216L8.93885 12.2073C9.05731 11.8914 9.25474 11.5755 9.49166 11.3386ZM10.2814 4.30997C10.9527 4.30997 11.545 4.90227 11.545 5.57354C11.545 6.2843 10.9527 6.83712 10.2814 6.83712H6.49067C5.77991 6.83712 5.2271 7.42942 5.2271 8.10069V18.2093C5.2271 18.92 5.77991 19.4729 6.49067 19.4729H16.5993C17.2705 19.4729 17.8628 18.92 17.8628 18.2093V14.4186C17.8628 13.7473 18.4156 13.155 19.1264 13.155C19.7977 13.155 20.39 13.7473 20.39 14.4186V18.2093C20.39 20.3021 18.6921 22 16.5993 22H6.49067C4.35839 22 2.69995 20.3021 2.69995 18.2093V8.10069C2.69995 6.0079 4.35839 4.30997 6.49067 4.30997H10.2814Z" fill="white"/>
</svg>
