<svg width="25" height="25" viewBox="0 0 25 25" fill="none" xmlns="http://www.w3.org/2000/svg">
<g clip-path="url(#clip0_1958_4789)">
<path d="M22.08 6.39C21.65 5.28 20.57 4.5 19.3 4.5H5.30005C4.03005 4.5 2.95005 5.28 2.52005 6.39C2.38005 6.73 2.30005 7.11 2.30005 7.5V17.5C2.30005 19.16 3.64005 20.5 5.30005 20.5H19.3C20.96 20.5 22.3 19.16 22.3 17.5V7.5C22.3 7.11 22.22 6.73 22.08 6.39ZM5.30005 6H19.3C20.03 6 20.64 6.52 20.77 7.22L13.51 11.84C12.77 12.31 11.83 12.31 11.09 11.84L3.83005 7.22C3.96005 6.52 4.57005 6 5.30005 6ZM20.8 17.5C20.8 18.33 20.13 19 19.3 19H5.30005C4.47005 19 3.80005 18.33 3.80005 17.5V8.98L10.29 13.11C10.9 13.5 11.6 13.69 12.3 13.69C13 13.69 13.7 13.5 14.31 13.11L20.8 8.98V17.5Z" fill="#555555"/>
</g>
<defs>
<clipPath id="clip0_1958_4789">
<rect width="24" height="24" fill="white" transform="translate(0.300049 0.5)"/>
</clipPath>
</defs>
</svg>
