<svg width="20" height="20" viewBox="0 0 20 20" fill="none" xmlns="http://www.w3.org/2000/svg">
<path fill-rule="evenodd" clip-rule="evenodd" d="M2.55006 2.5C2.44688 2.50006 2.34571 2.52852 2.25763 2.58227C2.16954 2.63601 2.09795 2.71295 2.0507 2.80467C2.00344 2.8964 1.98235 2.99935 1.98972 3.10227C1.99709 3.20518 2.03265 3.30409 2.09249 3.38814L7.60919 11.1115V17.677C7.60925 17.7787 7.63688 17.8784 7.68914 17.9657C7.74141 18.0529 7.81635 18.1243 7.90599 18.1723C7.99564 18.2203 8.09662 18.243 8.19818 18.2382C8.29974 18.2333 8.39809 18.201 8.48274 18.1447L11.8555 15.8962C11.9326 15.845 11.9958 15.7754 12.0395 15.6938C12.0832 15.6123 12.1062 15.5211 12.1062 15.4286V11.1115L17.6229 3.38814C17.6827 3.30409 17.7183 3.20518 17.7257 3.10227C17.733 2.99935 17.7119 2.8964 17.6647 2.80467C17.6174 2.71295 17.5458 2.63601 17.4578 2.58227C17.3697 2.52852 17.2685 2.50006 17.1653 2.5H2.55006Z" fill="#333333"/>
</svg>
