<svg width="24" height="24" viewBox="0 0 24 24" fill="none" xmlns="http://www.w3.org/2000/svg">
<path fill-rule="evenodd" clip-rule="evenodd" d="M7.74884 4.01253C9.14884 4.10841 10.6088 4.75521 12.006 6.06097C13.4031 4.75386 14.8617 4.10976 16.2603 4.01658C17.8403 3.90991 19.236 4.5135 20.246 5.46548C22.2318 7.33703 22.856 10.725 20.3917 13.0543C20.3834 13.0622 20.3748 13.0698 20.366 13.0773L12.486 19.8248C12.3546 19.9376 12.1835 20 12.006 20C11.8285 20 11.6574 19.9376 11.526 19.8248L3.64596 13.0773C3.63719 13.0698 3.62862 13.0622 3.62025 13.0543C1.1431 10.7128 1.7631 7.32488 3.75596 5.45468C4.76883 4.50405 6.1674 3.90451 7.74884 4.01253Z" fill="#777777"/>
</svg>
