<svg width="25" height="24" viewBox="0 0 25 24" fill="none" xmlns="http://www.w3.org/2000/svg">
<path d="M19.4696 19.5801C21.8865 17.3749 22.9606 13.6996 22.3162 10.1818H12.7024V14.0671H18.1806C17.9658 15.3272 17.2138 16.3773 16.1397 17.0599L19.4696 19.5801Z" fill="#4285F4"/>
<path d="M3.57202 16.4823C3.66003 16.6517 3.75282 16.8185 3.8504 16.9828C3.94804 17.1471 4.05032 17.3085 4.15723 17.4671C4.26422 17.6257 4.37562 17.7813 4.49157 17.9337C4.60752 18.0862 4.72773 18.2353 4.85235 18.3811C4.97689 18.5269 5.10554 18.6692 5.23838 18.8079C5.37114 18.9466 5.50786 19.0815 5.64847 19.2127C5.78908 19.3438 5.93334 19.4709 6.08127 19.5941C6.2292 19.7173 6.38056 19.8363 6.53544 19.9511C6.69024 20.0659 6.84826 20.1763 7.00948 20.2824C7.17071 20.3884 7.33485 20.4899 7.50198 20.5869C7.66903 20.6839 7.83878 20.7762 8.01121 20.8639C8.18364 20.9515 8.35847 21.0343 8.53568 21.1122C8.7129 21.1902 8.89221 21.2632 9.07368 21.3312C9.25508 21.3993 9.43834 21.4622 9.6234 21.5201C9.80846 21.5781 9.99509 21.6309 10.1832 21.6784C10.3713 21.726 10.5607 21.7684 10.7512 21.8056C10.9418 21.8427 11.1333 21.8745 11.3258 21.9011C11.5182 21.9276 11.7112 21.9489 11.9049 21.9647C12.0985 21.9806 12.2925 21.9912 12.4867 21.9963C12.681 22.0014 12.8752 22.0012 13.0695 21.9957C13.2637 21.9901 13.4576 21.9792 13.6512 21.9629C13.8448 21.9466 14.0378 21.925 14.2302 21.898C14.4226 21.8711 14.614 21.8388 14.8045 21.8013C14.995 21.7637 15.1842 21.721 15.3722 21.673C15.5603 21.625 15.7467 21.5718 15.9317 21.5136C16.1166 21.4553 16.2997 21.3919 16.4811 21.3234C16.6623 21.255 16.8415 21.1817 17.0185 21.1033C17.1956 21.025 17.3702 20.9419 17.5424 20.8539C17.7147 20.766 17.8842 20.6733 18.0511 20.5759C18.218 20.4785 18.3819 20.3767 18.5429 20.2703C18.7039 20.1639 18.8617 20.0531 19.0162 19.938C19.1708 19.8229 19.322 19.7036 19.4696 19.5801L16.1397 17.0599C13.2932 18.8975 8.56691 18.215 6.95562 13.9096L3.57202 16.4823Z" fill="#34A853"/>
<path d="M6.95565 13.9096C6.52598 12.5969 6.52598 11.3893 6.95565 10.0767L3.57205 7.50397C2.33678 9.91924 1.96083 13.332 3.57205 16.4823L6.95565 13.9096Z" fill="#FBBC02"/>
<path d="M6.95568 10.0767C8.13731 6.45391 13.1858 4.35373 16.5694 7.45146L19.5234 4.61622C15.3342 0.678416 7.17055 0.835885 3.57208 7.50397L6.95568 10.0767Z" fill="#EA4335"/>
</svg>
