<svg width="73" height="70" viewBox="0 0 73 70" fill="none" xmlns="http://www.w3.org/2000/svg">
<g clip-path="url(#clip0_544_4363)">
<rect width="72.5" height="70" rx="20" fill="white" fill-opacity="0.2" style="mix-blend-mode:overlay"/>
<rect x="0.5" y="0.5" width="71.5" height="69" rx="19.5" stroke="white" stroke-opacity="0.5" style="mix-blend-mode:overlay"/>
<path fill-rule="evenodd" clip-rule="evenodd" d="M40.8885 19.7191L30.1394 30.5401L17.5547 22.7944C15.9057 21.7792 16.24 19.2748 18.0976 18.7356L47.8096 10.09C49.4992 9.60104 51.0615 11.1851 50.5555 12.8826L41.7398 42.5639C41.1876 44.4213 38.7113 44.743 37.7105 43.0845L30.1394 30.5401" fill="url(#paint0_linear_544_4363)"/>
<g opacity="0.5" filter="url(#filter0_f_544_4363)">
<path fill-rule="evenodd" clip-rule="evenodd" d="M39.3475 22.1539L32.9372 28.6071L25.4322 23.9879C24.4487 23.3825 24.6481 21.8889 25.7559 21.5674L43.475 16.4115C44.4827 16.1199 45.4143 17.0646 45.1126 18.0769L39.8552 35.7777C39.5259 36.8854 38.0492 37.0772 37.4523 36.0882L32.9372 28.6071" fill="#9327F0"/>
</g>
<g filter="url(#filter1_b_544_4363)">
<mask id="path-5-outside-1_544_4363" maskUnits="userSpaceOnUse" x="14" y="16.8881" width="44" height="44" fill="black">
<rect fill="white" x="14" y="16.8881" width="44" height="44"/>
<path fill-rule="evenodd" clip-rule="evenodd" d="M45.0758 29.8692L31.8251 43.2084L16.3116 33.6601C14.2789 32.4087 14.6909 29.3214 16.9809 28.6567L53.6076 17.9991C55.6905 17.3963 57.6163 19.3491 56.9926 21.4416L46.1252 58.0306C45.4446 60.3202 42.392 60.7167 41.1582 58.6723L31.8251 43.2084"/>
</mask>
<path fill-rule="evenodd" clip-rule="evenodd" d="M45.0758 29.8692L31.8251 43.2084L16.3116 33.6601C14.2789 32.4087 14.6909 29.3214 16.9809 28.6567L53.6076 17.9991C55.6905 17.3963 57.6163 19.3491 56.9926 21.4416L46.1252 58.0306C45.4446 60.3202 42.392 60.7167 41.1582 58.6723L31.8251 43.2084" fill="#A448F4" fill-opacity="0.2"/>
<path d="M45.4305 30.2216C45.6251 30.0256 45.6241 29.7091 45.4282 29.5145C45.2323 29.3198 44.9157 29.3209 44.7211 29.5168L45.4305 30.2216ZM31.8251 43.2084L31.563 43.6342C31.7607 43.7559 32.0162 43.7255 32.1798 43.5608L31.8251 43.2084ZM16.3116 33.6601L16.0495 34.0859L16.0496 34.0859L16.3116 33.6601ZM16.9809 28.6567L17.1203 29.1369L17.1206 29.1368L16.9809 28.6567ZM53.6076 17.9991L53.4686 17.5188L53.4679 17.519L53.6076 17.9991ZM56.9926 21.4416L56.5134 21.2988L56.5132 21.2993L56.9926 21.4416ZM46.1252 58.0306L46.6045 58.173L46.6045 58.1729L46.1252 58.0306ZM41.1582 58.6723L41.5863 58.414L41.5862 58.4139L41.1582 58.6723ZM32.2531 42.9501C32.1105 42.7136 31.8031 42.6377 31.5667 42.7803C31.3303 42.923 31.2543 43.2304 31.397 43.4668L32.2531 42.9501ZM44.7211 29.5168L31.4703 42.856L32.1798 43.5608L45.4305 30.2216L44.7211 29.5168ZM32.0872 42.7826L16.5737 33.2343L16.0496 34.0859L31.563 43.6342L32.0872 42.7826ZM16.5738 33.2343C14.9078 32.2087 15.2497 29.6798 17.1203 29.1369L16.8415 28.1765C14.1321 28.963 13.6499 32.6086 16.0495 34.0859L16.5738 33.2343ZM17.1206 29.1368L53.7473 18.4792L53.4679 17.519L16.8412 28.1766L17.1206 29.1368ZM53.7466 18.4794C55.4443 17.9881 57.0257 19.5801 56.5134 21.2988L57.4717 21.5845C58.2069 19.118 55.9367 16.8045 53.4686 17.5188L53.7466 18.4794ZM56.5132 21.2993L45.6459 57.8882L46.6045 58.1729L57.4719 21.584L56.5132 21.2993ZM45.6459 57.8881C45.0882 59.7642 42.5942 60.0841 41.5863 58.414L40.7301 58.9307C42.1898 61.3494 45.8009 60.8763 46.6045 58.173L45.6459 57.8881ZM41.5862 58.4139L32.2531 42.9501L31.397 43.4668L40.7301 58.9307L41.5862 58.4139Z" fill="url(#paint1_linear_544_4363)" style="mix-blend-mode:overlay" mask="url(#path-5-outside-1_544_4363)"/>
</g>
<g filter="url(#filter2_bd_544_4363)">
<rect x="34.3169" y="38.9469" width="14.4099" height="2.48447" rx="1.24224" transform="rotate(-45 34.3169 38.9469)" fill="url(#paint2_linear_544_4363)"/>
<rect x="34.4574" y="38.9469" width="14.2112" height="2.28571" rx="1.14286" transform="rotate(-45 34.4574 38.9469)" stroke="url(#paint3_linear_544_4363)" stroke-width="0.198758"/>
</g>
</g>
<defs>
<filter id="filter0_f_544_4363" x="17.8411" y="9.40127" width="34.2856" height="34.2857" filterUnits="userSpaceOnUse" color-interpolation-filters="sRGB">
<feFlood flood-opacity="0" result="BackgroundImageFix"/>
<feBlend mode="normal" in="SourceGraphic" in2="BackgroundImageFix" result="shape"/>
<feGaussianBlur stdDeviation="3.47826" result="effect1_foregroundBlur_544_4363"/>
</filter>
<filter id="filter1_b_544_4363" x="4.5" y="7.38727" width="63.1123" height="63.1129" filterUnits="userSpaceOnUse" color-interpolation-filters="sRGB">
<feFlood flood-opacity="0" result="BackgroundImageFix"/>
<feGaussianBlur in="BackgroundImageFix" stdDeviation="5"/>
<feComposite in2="SourceAlpha" operator="in" result="effect1_backgroundBlur_544_4363"/>
<feBlend mode="normal" in="SourceGraphic" in2="effect1_backgroundBlur_544_4363" result="shape"/>
</filter>
<filter id="filter2_bd_544_4363" x="27.3781" y="21.8187" width="25.8238" height="25.8239" filterUnits="userSpaceOnUse" color-interpolation-filters="sRGB">
<feFlood flood-opacity="0" result="BackgroundImageFix"/>
<feGaussianBlur in="BackgroundImageFix" stdDeviation="3.72671"/>
<feComposite in2="SourceAlpha" operator="in" result="effect1_backgroundBlur_544_4363"/>
<feColorMatrix in="SourceAlpha" type="matrix" values="0 0 0 0 0 0 0 0 0 0 0 0 0 0 0 0 0 0 127 0" result="hardAlpha"/>
<feOffset dx="2.48447" dy="2.48447"/>
<feGaussianBlur stdDeviation="2.48447"/>
<feColorMatrix type="matrix" values="0 0 0 0 0.460387 0 0 0 0 0.063993 0 0 0 0 0.808333 0 0 0 1 0"/>
<feBlend mode="normal" in2="effect1_backgroundBlur_544_4363" result="effect2_dropShadow_544_4363"/>
<feBlend mode="normal" in="SourceGraphic" in2="effect2_dropShadow_544_4363" result="shape"/>
</filter>
<linearGradient id="paint0_linear_544_4363" x1="33.5715" y1="10" x2="33.5715" y2="44.1615" gradientUnits="userSpaceOnUse">
<stop stop-color="#BE79F9"/>
<stop offset="1" stop-color="#9327F0"/>
</linearGradient>
<linearGradient id="paint1_linear_544_4363" x1="21.7035" y1="22.7942" x2="48.5664" y2="56.0645" gradientUnits="userSpaceOnUse">
<stop stop-color="white" stop-opacity="0.25"/>
<stop offset="1" stop-color="white" stop-opacity="0"/>
</linearGradient>
<linearGradient id="paint2_linear_544_4363" x1="47.7052" y1="39.3955" x2="32.1916" y2="42.3293" gradientUnits="userSpaceOnUse">
<stop stop-color="white"/>
<stop offset="1" stop-color="white" stop-opacity="0.2"/>
</linearGradient>
<linearGradient id="paint3_linear_544_4363" x1="36.6107" y1="39.2363" x2="37.0535" y2="42.4172" gradientUnits="userSpaceOnUse">
<stop stop-color="white" stop-opacity="0.25"/>
<stop offset="1" stop-color="white" stop-opacity="0"/>
</linearGradient>
<clipPath id="clip0_544_4363">
<rect width="72.5" height="70" fill="white"/>
</clipPath>
</defs>
</svg>
