<svg width="25" height="24" viewBox="0 0 25 24" fill="none" xmlns="http://www.w3.org/2000/svg">
<path d="M19.5229 12.2283V12.1214L21.7704 14.3782C22.4766 15.0873 22.4766 16.2335 21.7704 16.9426L19.2521 19.4682C18.5459 20.1773 17.4044 20.1773 16.6983 19.4682L15.4052 18.1698C15.3182 18.1795 15.2279 18.186 15.1376 18.186H11.5262C10.3299 18.186 9.3464 17.2794 9.21742 16.1137H9.20452V12.2283C9.20452 11.5127 9.78171 10.9331 10.4943 10.9331C11.2069 10.9331 11.7841 11.5127 11.7841 12.2283V14.5595V14.5628V15.0776H12.3H16.6854C16.6854 15.0776 16.6854 15.0776 16.6886 15.0776H16.9433C18.3686 15.0776 19.5229 13.9184 19.5229 12.4873V12.2283ZM12.816 14.0415V12.2283C12.816 10.9396 11.7777 9.897 10.4943 9.897C9.21097 9.897 8.17268 10.9396 8.17268 12.2283V16.0684C7.01508 15.8677 6.05096 15.0226 5.72206 13.8602L5.19001 11.9951L2.82967 9.62501C2.12351 8.91592 2.12351 7.76971 2.82967 7.06061L5.34801 4.53182C6.05418 3.82273 7.19566 3.82273 7.90182 4.53182L9.11746 5.75251C9.14648 5.75251 9.1755 5.74927 9.20452 5.74927H14.3637C15.2182 5.74927 15.9115 6.44541 15.9115 7.30345C15.9115 7.48477 15.8793 7.65962 15.8244 7.82151H15.9115C16.766 7.82151 17.4593 8.51766 17.4593 9.3757C17.4593 9.79015 17.298 10.1657 17.0336 10.4442C17.8623 10.6061 18.4879 11.3379 18.4911 12.2186V12.2315C18.4879 13.2288 17.6817 14.0382 16.6854 14.0382H12.816V14.0415Z" fill="white"/>
</svg>
