<svg width="25" height="24" viewBox="0 0 25 24" fill="none" xmlns="http://www.w3.org/2000/svg">
<g clip-path="url(#clip0_464_3775)">
<path d="M2.56995 17.49C2.56995 13.69 2.56995 9.88999 2.56995 6.08999C2.67995 5.91999 2.70995 5.70999 2.82995 5.53999C3.13995 5.08999 3.55995 4.77999 4.03995 4.53999C4.94995 4.06999 5.93995 3.83999 6.93995 3.59999C8.52995 3.21999 10.0799 4.42999 10.0199 6.12999C9.99995 6.68999 10.0199 7.23999 10.0099 7.79999C10.0099 7.94999 10.0599 7.97999 10.1899 7.98999C11.7299 8.08999 13.2599 8.08999 14.7999 7.98999C14.9499 7.97999 14.9799 7.93999 14.9799 7.79999C14.9699 7.16999 14.9699 6.54999 14.9799 5.91999C15.0099 4.45999 16.3799 3.32999 17.8099 3.56999C18.4999 3.67999 19.1899 3.85999 19.8499 4.07999C20.5399 4.30999 21.1999 4.58999 21.7499 5.07999C22.1599 5.44999 22.4099 5.88999 22.4099 6.45999C22.4099 10.01 22.4099 13.57 22.4099 17.12C22.4099 17.53 22.2799 17.89 22.0199 18.21C21.8199 18.46 21.5699 18.66 21.2999 18.83C20.2999 19.45 19.1899 19.74 18.0499 19.97C16.5899 20.26 15.1099 20.4 13.6299 20.45C11.2999 20.53 8.99995 20.39 6.70995 19.93C5.72995 19.73 4.77995 19.47 3.89995 18.98C3.39995 18.7 2.94995 18.36 2.68995 17.82C2.65995 17.71 2.65995 17.58 2.56995 17.49ZM4.22995 8.39999C4.22995 8.49999 4.22995 8.56999 4.22995 8.64999C4.22995 11.38 4.23995 14.12 4.21995 16.85C4.21995 17.19 4.34995 17.37 4.61995 17.52C5.08995 17.77 5.58995 17.94 6.09995 18.08C7.89995 18.57 9.73995 18.76 11.5999 18.81C12.8699 18.85 14.1499 18.82 15.4099 18.69C16.7199 18.56 18.0199 18.36 19.2799 17.95C19.7199 17.81 20.1599 17.65 20.5399 17.38C20.6799 17.28 20.7699 17.18 20.7699 16.99C20.7599 14.21 20.7599 11.43 20.7599 8.64999C20.7599 8.56999 20.7599 8.49999 20.7599 8.38999C20.5199 8.47999 20.2999 8.55999 20.0799 8.63999C18.0699 9.37999 15.9799 9.58999 13.8599 9.68999C12.2799 9.75999 10.7099 9.69999 9.13995 9.54999C7.79995 9.41999 6.47995 9.17999 5.18995 8.73999C4.87995 8.62999 4.55995 8.51999 4.22995 8.39999ZM8.35995 6.79999C8.35995 6.53999 8.35995 6.27999 8.35995 6.02999C8.34995 5.46999 7.91995 5.09999 7.37995 5.19999C6.61995 5.34999 5.86995 5.53999 5.15995 5.83999C4.85995 5.95999 4.56995 6.09999 4.31995 6.31999C4.21995 6.40999 4.20995 6.47999 4.32995 6.55999C4.44995 6.64999 4.56995 6.72999 4.70995 6.79999C5.82995 7.34999 7.03995 7.57999 8.24995 7.76999C8.36995 7.78999 8.35995 7.72999 8.35995 7.64999C8.35995 7.36999 8.35995 7.07999 8.35995 6.79999ZM17.4899 5.18999C17.0099 5.18999 16.6499 5.53999 16.6399 5.97999C16.6299 6.53999 16.6399 7.08999 16.6299 7.64999C16.6299 7.75999 16.6599 7.78999 16.7699 7.76999C17.4299 7.66999 18.0799 7.54999 18.7199 7.36999C19.3099 7.20999 19.8899 7.02999 20.3999 6.69999C20.9099 6.37999 20.8299 6.36999 20.3899 6.09999C19.8799 5.79999 19.3099 5.61999 18.7399 5.45999C18.3099 5.34999 17.8799 5.23999 17.4899 5.18999Z" fill="#333333"/>
<path d="M9.31995 13.86C9.31995 13.42 9.31995 12.98 9.31995 12.54C9.31995 11.79 9.86995 11.33 10.6199 11.43C12.1799 11.64 13.6499 12.12 15.0299 12.86C15.5999 13.16 15.8199 13.7 15.5999 14.25C15.5099 14.48 15.3599 14.66 15.1399 14.78C13.6899 15.58 12.1399 16.1 10.4999 16.29C9.84995 16.37 9.32995 15.88 9.31995 15.23C9.31995 15.22 9.31995 15.2 9.31995 15.19C9.31995 14.75 9.31995 14.3 9.31995 13.86ZM13.2599 13.87C13.0799 13.77 12.8999 13.71 12.7299 13.65C12.2199 13.46 11.6999 13.32 11.1699 13.21C11.0799 13.19 10.9699 13.15 10.9699 13.32C10.9699 13.69 10.9699 14.07 10.9699 14.44C10.9699 14.52 10.9999 14.56 11.0799 14.54C11.8299 14.38 12.5499 14.17 13.2599 13.87Z" fill="#FD822E"/>
<path d="M6.70996 13.85C6.70996 13.02 6.70996 12.18 6.70996 11.35C6.70996 10.99 6.94996 10.69 7.28996 10.59C7.62996 10.49 7.96996 10.6 8.18996 10.88C8.32996 11.06 8.35996 11.26 8.35996 11.48C8.35996 12.95 8.35996 14.41 8.35996 15.88C8.35996 16.05 8.35996 16.23 8.35996 16.4C8.33996 16.83 7.97996 17.17 7.54996 17.18C7.10996 17.18 6.72996 16.84 6.72996 16.4C6.70996 15.54 6.70996 14.7 6.70996 13.85Z" fill="#333333"/>
<path d="M16.6399 13.84C16.6399 13.01 16.6399 12.17 16.6399 11.34C16.6399 10.99 16.8799 10.69 17.1999 10.58C17.5299 10.47 17.8899 10.58 18.0999 10.85C18.2199 11 18.2799 11.18 18.2799 11.37C18.2799 13.02 18.2799 14.68 18.2799 16.33C18.2799 16.8 17.9099 17.16 17.4599 17.16C17.0099 17.16 16.6399 16.8 16.6399 16.33C16.6299 15.51 16.6399 14.68 16.6399 13.84Z" fill="#333333"/>
</g>
<defs>
<clipPath id="clip0_464_3775">
<rect width="24" height="24" fill="white" transform="translate(0.5)"/>
</clipPath>
</defs>
</svg>
