<svg width="39" height="38" viewBox="0 0 39 38" fill="none" xmlns="http://www.w3.org/2000/svg">
<rect x="0.5" width="38" height="38" rx="19" fill="url(#paint0_linear_312_4600)"/>
<path fill-rule="evenodd" clip-rule="evenodd" d="M19.5 26.5C21.4891 26.5 23.3968 25.7098 24.8033 24.3033C26.2098 22.8968 27 20.9891 27 19C27 17.0109 26.2098 15.1032 24.8033 13.6967C23.3968 12.2902 21.4891 11.5 19.5 11.5C17.5109 11.5 15.6032 12.2902 14.1967 13.6967C12.7902 15.1032 12 17.0109 12 19C12 20.9891 12.7902 22.8968 14.1967 24.3033C15.6032 25.7098 17.5109 26.5 19.5 26.5ZM17.8929 21.5446C17.8049 21.5446 17.7178 21.562 17.6366 21.5956C17.5554 21.6293 17.4815 21.6786 17.4193 21.7408C17.3572 21.803 17.3078 21.8768 17.2742 21.958C17.2405 22.0393 17.2232 22.1263 17.2232 22.2143C17.2232 22.3022 17.2405 22.3893 17.2742 22.4705C17.3078 22.5518 17.3572 22.6256 17.4193 22.6878C17.4815 22.75 17.5554 22.7993 17.6366 22.833C17.7178 22.8666 17.8049 22.8839 17.8929 22.8839H21.1071C21.1951 22.8839 21.2822 22.8666 21.3634 22.833C21.4446 22.7993 21.5185 22.75 21.5807 22.6878C21.6428 22.6256 21.6922 22.5518 21.7258 22.4705C21.7595 22.3893 21.7768 22.3022 21.7768 22.2143C21.7768 22.1263 21.7595 22.0393 21.7258 21.958C21.6922 21.8768 21.6428 21.803 21.5807 21.7408C21.5185 21.6786 21.4446 21.6293 21.3634 21.5956C21.2822 21.562 21.1951 21.5446 21.1071 21.5446H20.1696V18.4643C20.1696 18.2867 20.0991 18.1164 19.9735 17.9908C19.8479 17.8652 19.6776 17.7946 19.5 17.7946H18.4286C18.251 17.7946 18.0806 17.8652 17.9551 17.9908C17.8295 18.1164 17.7589 18.2867 17.7589 18.4643C17.7589 18.6419 17.8295 18.8122 17.9551 18.9378C18.0806 19.0634 18.251 19.1339 18.4286 19.1339H18.8304V21.5446H17.8929ZM20.5714 15.7857C20.5714 16.0699 20.4585 16.3424 20.2576 16.5433C20.0567 16.7443 19.7842 16.8571 19.5 16.8571C19.2158 16.8571 18.9433 16.7443 18.7424 16.5433C18.5415 16.3424 18.4286 16.0699 18.4286 15.7857C18.4286 15.5016 18.5415 15.229 18.7424 15.0281C18.9433 14.8272 19.2158 14.7143 19.5 14.7143C19.7842 14.7143 20.0567 14.8272 20.2576 15.0281C20.4585 15.229 20.5714 15.5016 20.5714 15.7857Z" fill="white"/>
<defs>
<linearGradient id="paint0_linear_312_4600" x1="19.5" y1="0" x2="19.5" y2="38" gradientUnits="userSpaceOnUse">
<stop stop-color="#4C28A5"/>
<stop offset="1" stop-color="#12E6C8"/>
</linearGradient>
</defs>
</svg>
