<svg width="25" height="25" viewBox="0 0 25 25" fill="none" xmlns="http://www.w3.org/2000/svg">
<g clip-path="url(#clip0_1958_4794)">
<path d="M12.9 4.12C13.11 4.12 13.32 4.16 13.52 4.24L20.45 7.01C21.02 7.24 21.39 7.79 21.39 8.4V15.51C21.39 16.08 21.07 16.6 20.56 16.85L12.9 20.7L5.23002 16.86C4.72002 16.61 4.40002 16.1 4.40002 15.52V8.41C4.40002 7.79 4.77002 7.25 5.34002 7.02L12.27 4.25C12.48 4.16 12.69 4.12 12.9 4.12ZM12.9 2.62C12.5 2.62 12.1 2.7 11.72 2.85L4.79002 5.62C3.65002 6.08 2.90002 7.18 2.90002 8.41V15.52C2.90002 16.66 3.54002 17.7 4.56002 18.2L12.9 22.38L21.24 18.21C22.26 17.7 22.9 16.66 22.9 15.52V8.41C22.9 7.18 22.15 6.08 21.01 5.62L14.08 2.85C13.7 2.7 13.3 2.62 12.9 2.62Z" fill="#555555"/>
<path d="M15.65 10.38C15.65 8.86 14.42 7.63 12.9 7.63C11.38 7.63 10.15 8.86 10.15 10.38C10.15 11.63 11 12.68 12.15 13.01V15.88H13.65V13.01C14.8 12.68 15.65 11.63 15.65 10.38ZM12.9 11.63C12.21 11.63 11.65 11.07 11.65 10.38C11.65 9.69 12.21 9.13 12.9 9.13C13.59 9.13 14.15 9.69 14.15 10.38C14.15 11.07 13.59 11.63 12.9 11.63Z" fill="#555555"/>
</g>
<defs>
<clipPath id="clip0_1958_4794">
<rect width="24" height="24" fill="white" transform="translate(0.900024 0.5)"/>
</clipPath>
</defs>
</svg>
