<svg width="52" height="52" viewBox="0 0 52 52" fill="none" xmlns="http://www.w3.org/2000/svg">
<rect width="52" height="52" rx="14" fill="#4C28A5"/>
<rect x="16" y="16" width="9" height="9" rx="3" fill="white"/>
<path fill-rule="evenodd" clip-rule="evenodd" d="M16 30C16 28.3431 17.3431 27 19 27H22C23.6569 27 25 28.3431 25 30V33C25 34.6569 23.6569 36 22 36H19C17.3431 36 16 34.6569 16 33V30ZM19 29C18.4477 29 18 29.4477 18 30V33C18 33.5523 18.4477 34 19 34H22C22.5523 34 23 33.5523 23 33V30C23 29.4477 22.5523 29 22 29H19Z" fill="white"/>
<path fill-rule="evenodd" clip-rule="evenodd" d="M27 19C27 17.3431 28.3431 16 30 16H33C34.6569 16 36 17.3431 36 19V22C36 23.6569 34.6569 25 33 25H30C28.3431 25 27 23.6569 27 22V19ZM30 18C29.4477 18 29 18.4477 29 19V22C29 22.5523 29.4477 23 30 23H33C33.5523 23 34 22.5523 34 22V19C34 18.4477 33.5523 18 33 18H30Z" fill="white"/>
<path fill-rule="evenodd" clip-rule="evenodd" d="M27 30C27 28.3431 28.3431 27 30 27H33C34.6569 27 36 28.3431 36 30V33C36 34.6569 34.6569 36 33 36H30C28.3431 36 27 34.6569 27 33V30ZM30 29C29.4477 29 29 29.4477 29 30V33C29 33.5523 29.4477 34 30 34H33C33.5523 34 34 33.5523 34 33V30C34 29.4477 33.5523 29 33 29H30Z" fill="white"/>
</svg>
