<svg width="20" height="20" viewBox="0 0 20 20" fill="none" xmlns="http://www.w3.org/2000/svg">
<path fill-rule="evenodd" clip-rule="evenodd" d="M10.0001 1.66669C7.78994 1.66669 5.67033 2.54466 4.10752 4.10746C2.54472 5.67027 1.66675 7.78988 1.66675 10C1.66675 12.2102 2.54472 14.3298 4.10752 15.8926C5.67033 17.4554 7.78994 18.3334 10.0001 18.3334C12.2102 18.3334 14.3298 17.4554 15.8926 15.8926C17.4554 14.3298 18.3334 12.2102 18.3334 10C18.3334 7.78988 17.4554 5.67027 15.8926 4.10746C14.3298 2.54466 12.2102 1.66669 10.0001 1.66669ZM13.1191 6.88097C13.1972 6.95927 13.2519 7.05778 13.2772 7.16544C13.3024 7.2731 13.2971 7.38566 13.262 7.4905L11.0667 14.0762C11.0309 14.1842 10.9647 14.2797 10.8762 14.3513C10.7877 14.4229 10.6805 14.4676 10.5674 14.4802C10.4542 14.4927 10.3399 14.4725 10.2378 14.422C10.1358 14.3715 10.0504 14.2928 9.99175 14.1953L8.4227 11.5762L5.80603 10.0084C5.70845 9.94979 5.6297 9.86447 5.57911 9.76252C5.52853 9.66056 5.50824 9.54624 5.52064 9.4331C5.53305 9.31997 5.57763 9.21276 5.6491 9.12419C5.72057 9.03561 5.81593 8.96939 5.92389 8.93335L12.5096 6.73812C12.6144 6.70296 12.727 6.69771 12.8347 6.72294C12.9423 6.74817 13.0408 6.8029 13.1191 6.88097Z" fill="#333333"/>
</svg>
