<svg width="25" height="24" viewBox="0 0 25 24" fill="none" xmlns="http://www.w3.org/2000/svg">
<path d="M12.44 3.56001C11.49 3.56001 10.59 3.77001 9.74001 4.17001C9.42001 4.32001 9.11001 4.25001 8.89001 4.01001C8.69001 3.79001 8.65001 3.47001 8.80001 3.19001C8.88001 3.05001 9.00001 2.95001 9.14001 2.89001C13.68 0.720008 19.09 3.36001 20.08 8.29001C20.57 10.74 20 12.94 18.43 14.89C16.65 17.11 14.88 19.33 13.11 21.54C12.77 21.97 12.25 21.98 11.92 21.56C10.29 19.52 8.67001 17.48 7.04001 15.46C6.39001 14.65 5.74001 13.83 5.35001 12.85C4.50001 10.69 4.56001 8.55001 5.56001 6.45001C5.70001 6.13001 5.96001 5.98001 6.27001 6.00001C6.55001 6.02001 6.80001 6.22001 6.88001 6.50001C6.95001 6.71001 6.89001 6.91001 6.80001 7.11001C5.95001 8.93001 5.95001 10.76 6.78001 12.6C7.02001 13.14 7.37001 13.61 7.74001 14.07C9.28001 15.99 10.81 17.91 12.35 19.83C12.51 20.03 12.51 20.03 12.67 19.83C14.31 17.78 15.96 15.75 17.57 13.69C18.51 12.48 18.92 11.07 18.83 9.55001C18.65 6.64001 16.78 4.43001 13.95 3.74001C13.45 3.61001 12.95 3.56001 12.44 3.56001Z" fill="#333333"/>
<path d="M16.7301 9.88C16.7201 12.23 14.8201 14.11 12.4701 14.1C10.1401 14.09 8.27007 12.19 8.28007 9.84C8.29007 7.52 10.2101 5.64 12.5501 5.65C14.8401 5.66 16.7401 7.58 16.7301 9.88ZM15.3201 9.9C15.3201 8.35 14.0601 7.07 12.5301 7.07C10.9601 7.07 9.69007 8.33 9.69007 9.88C9.69007 11.45 10.9501 12.7 12.5201 12.7C14.0601 12.7 15.3201 11.44 15.3201 9.9Z" fill="#F1416C"/>
<path d="M7.68009 4.03001C8.17009 4.03001 8.53009 4.53001 8.34009 4.98001C8.20009 5.29001 7.97009 5.53001 7.64009 5.65001C7.34009 5.76001 7.01009 5.64001 6.84009 5.37001C6.67009 5.11001 6.69009 4.77001 6.89009 4.53001C7.19009 4.18001 7.42009 4.03001 7.68009 4.03001Z" fill="#F1416C"/>
</svg>
