<svg width="48" height="48" viewBox="0 0 48 48" fill="none" xmlns="http://www.w3.org/2000/svg">
<path fill-rule="evenodd" clip-rule="evenodd" d="M26.2632 16.6316C26.2632 18.085 25.085 19.2632 23.6316 19.2632C22.1782 19.2632 21 18.085 21 16.6316C21 15.1782 22.1782 14 23.6316 14C25.085 14 26.2632 15.1782 26.2632 16.6316ZM26.2632 24C26.2632 25.4534 25.085 26.6316 23.6316 26.6316C22.1782 26.6316 21 25.4534 21 24C21 22.5466 22.1782 21.3684 23.6316 21.3684C25.085 21.3684 26.2632 22.5466 26.2632 24ZM23.6316 34C25.085 34 26.2632 32.8218 26.2632 31.3684C26.2632 29.915 25.085 28.7368 23.6316 28.7368C22.1782 28.7368 21 29.915 21 31.3684C21 32.8218 22.1782 34 23.6316 34Z" fill="#333333"/>
</svg>
