<svg width="60" height="59" viewBox="0 0 60 59" fill="none" xmlns="http://www.w3.org/2000/svg">
<rect x="1" y="0.5" width="58" height="58" rx="15.5" fill="#FFF8DD"/>
<rect x="1" y="0.5" width="58" height="58" rx="15.5" stroke="#FD822E"/>
<path d="M31.3125 15.5C31.75 15.6458 32.1875 15.5 32.625 15.6458C34.5208 15.7917 36.4167 16.0833 38.3125 16.8125C39.0417 17.1042 39.7708 17.3958 40.3542 17.9792C40.9375 18.5625 41.0833 19.1458 40.7917 19.875C40.6458 20.1667 40.3542 20.4583 40.0625 20.6042C39.0417 21.3333 37.875 21.7708 36.7083 22.0625C34.0833 22.6458 31.4583 22.7917 28.8333 22.7917C26.7917 22.6458 24.8958 22.3542 23.1458 21.9167C22.125 21.625 20.9583 21.3333 20.0833 20.6042C19.7917 20.4583 19.5 20.1667 19.3542 19.875C18.9167 19.2917 19.0625 18.5625 19.6458 17.9792C20.2292 17.3958 20.9583 17.1042 21.6875 16.8125C23.1458 16.2292 24.75 15.9375 26.3542 15.7917C27.0833 15.6458 27.8125 15.6458 28.5417 15.6458H28.6875C29.5625 15.5 30.4375 15.5 31.3125 15.5Z" fill="#FD822E"/>
<path d="M19.2083 34.1667C20.0833 35.3333 21.25 36.0625 22.5625 36.5C24.4583 37.2292 26.5 37.5208 28.6875 37.6667C30.7292 37.8125 32.7708 37.6667 34.6667 37.2292C36.2708 36.9375 37.7292 36.5 39.1875 35.625C39.4792 35.4792 39.7708 35.1875 40.0625 34.8958C40.3542 34.6042 40.6458 34.3125 40.7917 34.0208C41.0833 34.3125 41.0833 34.75 41.0833 35.1875C41.0833 36.3542 41.0833 37.375 41.0833 38.5417C41.0833 39.2708 40.6458 40 40.0625 40.4375C39.1875 41.3125 38.0208 41.75 36.8542 42.1875C34.2292 43.0625 31.3125 43.3542 28.5417 43.2083C26.6458 43.0625 24.75 42.7708 23 42.1875C21.8333 41.75 20.8125 41.3125 19.7917 40.4375C19.0625 39.8542 18.7708 39.125 18.7708 38.1042C18.7708 37.0833 18.7708 36.0625 18.7708 35.0417C18.9167 35.0417 18.9167 34.6042 19.2083 34.1667Z" fill="#FD822E"/>
<path d="M19.2083 27.1667C19.9375 28.3333 21.25 29.0625 22.4167 29.5C24.0208 30.0833 25.7708 30.5208 27.6667 30.6667C29.7083 30.8125 31.75 30.8125 33.7917 30.5208C35.6875 30.2292 37.4375 29.7917 39.1875 28.7708C39.9167 28.3333 40.5 27.8958 40.7917 27.1667C41.0833 27.4583 41.0833 27.8958 41.0833 28.3333C41.0833 29.5 41.0833 30.6667 41.0833 31.6875C41.0833 32.4167 40.6458 33.1458 40.0625 33.5833C39.1875 34.4583 38.0208 34.8958 36.8542 35.3333C34.0833 36.2083 31.3125 36.5 28.3958 36.3542C26.5 36.2083 24.75 35.9167 23 35.3333C21.8333 34.8958 20.6667 34.4583 19.7917 33.5833C19.2083 33 18.7708 32.2708 18.7708 31.3958C18.7708 30.375 18.7708 29.3542 18.7708 28.3333C18.9167 27.8958 18.9167 27.6042 19.2083 27.1667Z" fill="#FD822E"/>
<path d="M40.7917 20.4583C40.9375 20.8958 41.0833 21.1875 41.0833 21.4792C41.0833 22.6458 41.0833 23.6667 41.0833 24.8333C41.0833 25.7083 40.6458 26.2917 40.0625 26.7292C39.1875 27.6042 38.0208 28.1875 36.8542 28.4792C33.9375 29.3542 31.0208 29.6458 28.1042 29.5C26.3542 29.3542 24.75 29.0625 23 28.4792C21.8333 28.0417 20.6667 27.6042 19.7917 26.7292C19.2083 26.2917 18.7708 25.5625 18.7708 24.5417C18.7708 23.5208 18.7708 22.5 18.7708 21.4792C18.7708 21.0417 18.9167 20.75 19.0625 20.3125C19.3542 21.3333 20.2292 21.7708 21.25 22.2083C22.7083 22.9375 24.0208 23.2292 25.4792 23.5208C27.9583 23.9583 30.5833 23.9583 33.0625 23.6667C34.9583 23.5208 36.8542 23.0833 38.6042 22.3542C39.0417 22.2083 39.3333 21.9167 39.7708 21.7708C40.3542 21.4792 40.6458 21.0417 40.7917 20.4583Z" fill="#FD822E"/>
</svg>
