<svg width="25" height="24" viewBox="0 0 25 24" fill="none" xmlns="http://www.w3.org/2000/svg">
<path d="M3.8999 5.57143C3.8999 4.15313 5.05303 3 6.47133 3L19.3285 3C20.7468 3 21.8999 4.15313 21.8999 5.57143L21.8999 14.5714L17.3999 14.5714C16.3352 14.5714 15.4713 15.4353 15.4713 16.5L15.4713 21L6.47133 21C5.05303 21 3.8999 19.8469 3.8999 18.4286L3.8999 5.57143ZM16.757 21L16.757 19.1799L16.757 16.5C16.757 16.1464 17.0463 15.8571 17.3999 15.8571L20.0798 15.8571L21.8999 15.8571L20.6142 17.1429L18.0428 19.7143L16.757 21Z" fill="white"/>
</svg>
