<svg width="25" height="24" viewBox="0 0 25 24" fill="none" xmlns="http://www.w3.org/2000/svg">
<path d="M9.3916 21.2333C8.44406 21.8452 7.31463 22.1121 6.1934 21.9889C5.07217 21.8658 4.02758 21.3602 3.23545 20.5571L2.54305 19.8795C2.2396 19.5691 2.0697 19.1522 2.0697 18.7181C2.0697 18.284 2.2396 17.8672 2.54305 17.5567L5.48131 14.6481C5.78924 14.3455 6.20365 14.176 6.63531 14.176C7.06698 14.176 7.48139 14.3455 7.78932 14.6481C8.09981 14.9519 8.51699 15.1221 8.95145 15.1221C9.38592 15.1221 9.80309 14.9519 10.1136 14.6481L14.7296 10.0321C14.8836 9.88023 15.0059 9.6993 15.0894 9.4998C15.1729 9.30029 15.2158 9.08618 15.2158 8.86992C15.2158 8.65365 15.1729 8.43954 15.0894 8.24003C15.0059 8.04053 14.8836 7.8596 14.7296 7.70778C14.4271 7.39985 14.2576 6.98544 14.2576 6.55378C14.2576 6.12211 14.4271 5.7077 14.7296 5.39978L17.656 2.47335C17.9665 2.1699 18.3833 2 18.8174 2C19.2515 2 19.6684 2.1699 19.9788 2.47335L20.6564 3.16575C21.4591 3.95775 21.9646 5.00194 22.088 6.12278C22.2114 7.24362 21.9451 8.37277 21.334 9.32042C18.1484 14.0159 14.0949 18.0593 9.3916 21.2333Z" fill="white"/>
</svg>
