<svg width="59" height="59" viewBox="0 0 59 59" fill="none" xmlns="http://www.w3.org/2000/svg">
<rect x="0.5" y="0.5" width="58" height="58" rx="15.5" fill="#E8FFF3"/>
<rect x="0.5" y="0.5" width="58" height="58" rx="15.5" stroke="#009450"/>
<path d="M22.9375 17.651C22.4248 17.651 22.026 18.1068 22.026 18.5625V40.4375C22.026 40.9502 22.4248 41.349 22.9375 41.349H27.4948V37.7031C27.4948 36.222 28.6911 34.9688 30.2292 34.9688C31.7103 34.9688 32.9635 36.222 32.9635 37.7031V41.349H37.5208C37.9766 41.349 38.4323 40.9502 38.4323 40.4375V18.5625C38.4323 18.1068 37.9766 17.651 37.5208 17.651H22.9375ZM19.2917 18.5625C19.2917 16.5687 20.8867 14.9167 22.9375 14.9167H37.5208C39.5146 14.9167 41.1667 16.5687 41.1667 18.5625V40.4375C41.1667 42.4883 39.5146 44.0833 37.5208 44.0833H22.9375C20.8867 44.0833 19.2917 42.4883 19.2917 40.4375V18.5625ZM24.3047 20.8412C24.3047 20.3854 24.7034 19.9297 25.2161 19.9297H27.9505C28.4062 19.9297 28.862 20.3854 28.862 20.8412V23.5755C28.862 24.0882 28.4062 24.487 27.9505 24.487H25.2161C24.7034 24.487 24.3047 24.0882 24.3047 23.5755V20.8412ZM32.5078 19.9297H35.2422C35.6979 19.9297 36.1536 20.3854 36.1536 20.8412V23.5755C36.1536 24.0882 35.6979 24.487 35.2422 24.487H32.5078C31.9951 24.487 31.5963 24.0882 31.5963 23.5755V20.8412C31.5963 20.3854 31.9951 19.9297 32.5078 19.9297ZM24.3047 28.1328C24.3047 27.6771 24.7034 27.2214 25.2161 27.2214H27.9505C28.4062 27.2214 28.862 27.6771 28.862 28.1328V30.8672C28.862 31.3799 28.4062 31.7787 27.9505 31.7787H25.2161C24.7034 31.7787 24.3047 31.3799 24.3047 30.8672V28.1328ZM32.5078 27.2214H35.2422C35.6979 27.2214 36.1536 27.6771 36.1536 28.1328V30.8672C36.1536 31.3799 35.6979 31.7787 35.2422 31.7787H32.5078C31.9951 31.7787 31.5963 31.3799 31.5963 30.8672V28.1328C31.5963 27.6771 31.9951 27.2214 32.5078 27.2214Z" fill="#009450"/>
</svg>
