<svg width="73" height="70" viewBox="0 0 73 70" fill="none" xmlns="http://www.w3.org/2000/svg">
<rect width="72.5" height="70" rx="20" fill="white" fill-opacity="0.2" style="mix-blend-mode:overlay"/>
<rect x="0.5" y="0.5" width="71.5" height="69" rx="19.5" stroke="white" stroke-opacity="0.5" style="mix-blend-mode:overlay"/>
<path d="M56.8162 38.7397V21.2369C56.8162 18.7499 54.7202 16.7397 52.127 16.7397H35.5053C32.9121 16.7397 30.8162 18.7499 30.8162 21.2369V38.7397H56.8162Z" fill="url(#paint0_linear_546_4495)"/>
<path d="M30.8162 43.7397V49.4488C30.8162 51.8217 32.9121 53.7397 35.5053 53.7397H52.127C54.7202 53.7397 56.8162 51.8217 56.8162 49.4488V43.7397H30.8162ZM43.743 50.3677C42.505 50.3677 41.4911 49.4488 41.4911 48.307C41.4911 47.1741 42.4952 46.2463 43.743 46.2463C44.9811 46.2463 45.995 47.1652 45.995 48.307C45.995 49.4488 44.9909 50.3677 43.743 50.3677Z" fill="url(#paint1_linear_546_4495)"/>
<g filter="url(#filter0_b_546_4495)">
<path d="M14.1583 28.4814C12.9663 25.8915 14.0996 22.8256 16.6895 21.6336L32.9316 14.1583C35.5215 12.9663 38.5874 14.0996 39.7794 16.6895L51.1584 41.4133C52.3504 44.0033 51.2171 47.0692 48.6271 48.2612L32.3851 55.7365C29.7952 56.9285 26.7293 55.7952 25.5373 53.2052L14.1583 28.4814Z" fill="url(#paint2_linear_546_4495)"/>
</g>
<g filter="url(#filter1_b_546_4495)">
<path fill-rule="evenodd" clip-rule="evenodd" d="M33.3201 15.0024L17.078 22.4777C14.9543 23.4551 14.025 25.9692 15.0024 28.0929L26.3814 52.8168C27.3588 54.9405 29.8729 55.8698 31.9966 54.8923L48.2387 47.4171C50.3624 46.4396 51.2917 43.9256 50.3142 41.8018L38.9353 17.078C37.9578 14.9543 35.4438 14.025 33.3201 15.0024ZM16.6895 21.6336C14.0996 22.8256 12.9663 25.8915 14.1583 28.4814L25.5373 53.2052C26.7293 55.7952 29.7952 56.9285 32.3851 55.7365L48.6271 48.2612C51.2171 47.0692 52.3504 44.0033 51.1584 41.4133L39.7794 16.6895C38.5874 14.0996 35.5215 12.9663 32.9316 14.1583L16.6895 21.6336Z" fill="url(#paint3_linear_546_4495)" fill-opacity="0.5"/>
</g>
<path d="M41.4292 45.2959C41.711 46.8592 40.6722 48.3549 39.1089 48.6368C37.5457 48.9186 36.0499 47.8798 35.7681 46.3165C35.4863 44.7533 36.5251 43.2576 38.0883 42.9757C39.6516 42.6939 41.1473 43.7327 41.4292 45.2959Z" fill="url(#paint4_linear_546_4495)"/>
<path d="M40.4144 40.4885C40.4902 40.9089 40.2108 41.3111 39.7905 41.3869C39.3701 41.4627 38.9679 41.1833 38.8921 40.763C38.8163 40.3426 39.0957 39.9404 39.516 39.8646C39.9364 39.7888 40.3386 40.0682 40.4144 40.4885Z" fill="url(#paint5_linear_546_4495)"/>
<path fill-rule="evenodd" clip-rule="evenodd" d="M19.9573 28.5452C19.6934 28.0397 19.8992 27.4362 20.4169 27.1972L34.8043 20.5555C35.322 20.3165 35.9557 20.5325 36.2196 21.038C36.4835 21.5434 36.2777 22.1469 35.76 22.3859L21.3726 29.0277C20.8549 29.2667 20.2213 29.0507 19.9573 28.5452Z" fill="url(#paint6_linear_546_4495)"/>
<path fill-rule="evenodd" clip-rule="evenodd" d="M21.6488 32.2462C21.3848 31.7407 21.5906 31.1372 22.1083 30.8982L36.4957 24.2564C37.0134 24.0174 37.6471 24.2334 37.911 24.7389C38.1749 25.2444 37.9691 25.8479 37.4514 26.0869L23.064 32.7287C22.5463 32.9677 21.9127 32.7516 21.6488 32.2462Z" fill="url(#paint7_linear_546_4495)"/>
<path fill-rule="evenodd" clip-rule="evenodd" d="M23.275 36.4531C23.0111 35.9476 23.2168 35.3441 23.7345 35.1051L33.8643 30.4289C34.382 30.1899 35.0156 30.4059 35.2795 30.9114C35.5434 31.4168 35.3377 32.0203 34.82 32.2593L24.6902 36.9356C24.1725 37.1746 23.5389 36.9586 23.275 36.4531Z" fill="url(#paint8_linear_546_4495)"/>
<defs>
<filter id="filter0_b_546_4495" x="-48.7839" y="-48.784" width="162.884" height="167.463" filterUnits="userSpaceOnUse" color-interpolation-filters="sRGB">
<feFlood flood-opacity="0" result="BackgroundImageFix"/>
<feGaussianBlur in="BackgroundImageFix" stdDeviation="31.2341"/>
<feComposite in2="SourceAlpha" operator="in" result="effect1_backgroundBlur_546_4495"/>
<feBlend mode="normal" in="SourceGraphic" in2="effect1_backgroundBlur_546_4495" result="shape"/>
</filter>
<filter id="filter1_b_546_4495" x="-48.7839" y="-48.784" width="162.884" height="167.463" filterUnits="userSpaceOnUse" color-interpolation-filters="sRGB">
<feFlood flood-opacity="0" result="BackgroundImageFix"/>
<feGaussianBlur in="BackgroundImageFix" stdDeviation="31.2341"/>
<feComposite in2="SourceAlpha" operator="in" result="effect1_backgroundBlur_546_4495"/>
<feBlend mode="normal" in="SourceGraphic" in2="effect1_backgroundBlur_546_4495" result="shape"/>
</filter>
<linearGradient id="paint0_linear_546_4495" x1="52.6226" y1="38.7397" x2="33.906" y2="21.9377" gradientUnits="userSpaceOnUse">
<stop stop-color="#006EF8"/>
<stop offset="1" stop-color="#69ACFF"/>
</linearGradient>
<linearGradient id="paint1_linear_546_4495" x1="47.2798" y1="50.2985" x2="36.8456" y2="48.446" gradientUnits="userSpaceOnUse">
<stop stop-color="#006EF8"/>
<stop offset="1" stop-color="#69ACFF"/>
</linearGradient>
<linearGradient id="paint2_linear_546_4495" x1="22.2216" y1="21.958" x2="47.8124" y2="44.881" gradientUnits="userSpaceOnUse">
<stop stop-color="white" stop-opacity="0.49"/>
<stop offset="1" stop-color="white" stop-opacity="0.04"/>
</linearGradient>
<linearGradient id="paint3_linear_546_4495" x1="24.8105" y1="17.8959" x2="40.5061" y2="51.9988" gradientUnits="userSpaceOnUse">
<stop stop-color="white"/>
<stop offset="1" stop-color="white" stop-opacity="0"/>
</linearGradient>
<linearGradient id="paint4_linear_546_4495" x1="38.0883" y1="42.9757" x2="39.1089" y2="48.6368" gradientUnits="userSpaceOnUse">
<stop stop-color="white" stop-opacity="0.32"/>
<stop offset="1" stop-color="white" stop-opacity="0.75"/>
</linearGradient>
<linearGradient id="paint5_linear_546_4495" x1="39.516" y1="39.8646" x2="39.7905" y2="41.3869" gradientUnits="userSpaceOnUse">
<stop stop-color="white"/>
<stop offset="1" stop-color="white" stop-opacity="0.75"/>
</linearGradient>
<linearGradient id="paint6_linear_546_4495" x1="18.6232" y1="30.297" x2="38.4257" y2="19.9579" gradientUnits="userSpaceOnUse">
<stop stop-color="white" stop-opacity="0.67"/>
<stop offset="1" stop-color="white" stop-opacity="0"/>
</linearGradient>
<linearGradient id="paint7_linear_546_4495" x1="20.3147" y1="33.9979" x2="40.1171" y2="23.6589" gradientUnits="userSpaceOnUse">
<stop stop-color="white" stop-opacity="0.67"/>
<stop offset="1" stop-color="white" stop-opacity="0"/>
</linearGradient>
<linearGradient id="paint8_linear_546_4495" x1="22.4153" y1="37.9859" x2="37.0332" y2="30.3537" gradientUnits="userSpaceOnUse">
<stop stop-color="white" stop-opacity="0.67"/>
<stop offset="1" stop-color="white" stop-opacity="0"/>
</linearGradient>
</defs>
</svg>
