<svg width="59" height="59" viewBox="0 0 59 59" fill="none" xmlns="http://www.w3.org/2000/svg">
<rect x="0.5" y="0.5" width="58" height="58" rx="15.5" fill="#E8FFF3"/>
<rect x="0.5" y="0.5" width="58" height="58" rx="15.5" stroke="#009450"/>
<g clip-path="url(#clip0_1519_9932)">
<path d="M29.4999 28.2313C30.5067 28.2313 31.3228 27.4151 31.3228 26.4083C31.3228 25.4016 30.5067 24.5854 29.4999 24.5854C28.4931 24.5854 27.677 25.4016 27.677 26.4083C27.677 27.4151 28.4931 28.2313 29.4999 28.2313Z" fill="#009450"/>
<path d="M41.327 19.4667L31.2208 15.4271C30.1125 14.9896 28.8875 14.9896 27.7791 15.4271L17.6729 19.4667C16.0104 20.1375 14.9166 21.7417 14.9166 23.5354V33.9042C14.9166 35.5667 15.85 37.0833 17.3375 37.8125L29.5 43.9083L41.6625 37.8271C43.15 37.0833 44.0833 35.5667 44.0833 33.9042V23.5354C44.0833 21.7417 42.9895 20.1375 41.327 19.4667ZM30.5937 30.2437V34.4292H28.4062V30.2437C26.7291 29.7625 25.4895 28.2312 25.4895 26.4083C25.4895 24.1917 27.2833 22.3979 29.5 22.3979C31.7166 22.3979 33.5104 24.1917 33.5104 26.4083C33.5104 28.2312 32.2708 29.7625 30.5937 30.2437Z" fill="#009450"/>
</g>
<defs>
<clipPath id="clip0_1519_9932">
<rect width="35" height="35" fill="white" transform="translate(12 12)"/>
</clipPath>
</defs>
</svg>
