<svg width="39" height="38" viewBox="0 0 39 38" fill="none" xmlns="http://www.w3.org/2000/svg">
<rect x="0.5" width="38" height="38" rx="19" fill="url(#paint0_linear_312_4608)"/>
<path fill-rule="evenodd" clip-rule="evenodd" d="M14.6461 13.3378C14.6461 13.216 14.7453 13.1168 14.8671 13.1168H24.1327C24.2545 13.1168 24.3526 13.216 24.3526 13.3378V22.7446H14.6461V13.3378ZM14.8671 11.5C13.8528 11.5 13.0293 12.3235 13.0293 13.3378V24.6611C13.0293 25.6765 13.8528 26.5 14.8671 26.5H24.1327C25.147 26.5 25.9694 25.6765 25.9694 24.6611V13.3378C25.9694 12.3235 25.147 11.5 24.1316 11.5H14.8671ZM16.9259 14.2961C16.8197 14.2961 16.7146 14.317 16.6165 14.3576C16.5184 14.3982 16.4293 14.4578 16.3542 14.5328C16.2792 14.6079 16.2196 14.697 16.179 14.7951C16.1384 14.8932 16.1175 14.9983 16.1175 15.1045C16.1175 15.2106 16.1384 15.3158 16.179 15.4139C16.2196 15.5119 16.2792 15.6011 16.3542 15.6761C16.4293 15.7512 16.5184 15.8107 16.6165 15.8514C16.7146 15.892 16.8197 15.9129 16.9259 15.9129H22.0739C22.2883 15.9129 22.494 15.8277 22.6456 15.6761C22.7972 15.5245 22.8823 15.3189 22.8823 15.1045C22.8823 14.8901 22.7972 14.6845 22.6456 14.5328C22.494 14.3812 22.2883 14.2961 22.0739 14.2961H16.9259ZM16.1175 17.9329C16.1175 17.7185 16.2026 17.5128 16.3542 17.3612C16.5059 17.2096 16.7115 17.1245 16.9259 17.1245H22.0739C22.2883 17.1245 22.494 17.2096 22.6456 17.3612C22.7972 17.5128 22.8823 17.7185 22.8823 17.9329C22.8823 18.1473 22.7972 18.3529 22.6456 18.5045C22.494 18.6561 22.2883 18.7413 22.0739 18.7413H16.9259C16.8197 18.7413 16.7146 18.7204 16.6165 18.6798C16.5184 18.6391 16.4293 18.5796 16.3542 18.5045C16.2792 18.4295 16.2196 18.3403 16.179 18.2423C16.1384 18.1442 16.1175 18.039 16.1175 17.9329ZM16.9259 19.9529C16.8197 19.9529 16.7146 19.9738 16.6165 20.0144C16.5184 20.055 16.4293 20.1146 16.3542 20.1896C16.2792 20.2647 16.2196 20.3538 16.179 20.4519C16.1384 20.55 16.1175 20.6551 16.1175 20.7613C16.1175 20.8674 16.1384 20.9726 16.179 21.0707C16.2196 21.1687 16.2792 21.2579 16.3542 21.3329C16.4293 21.408 16.5184 21.4675 16.6165 21.5082C16.7146 21.5488 16.8197 21.5697 16.9259 21.5697H20.0151C20.2295 21.5697 20.4352 21.4845 20.5868 21.3329C20.7384 21.1813 20.8236 20.9757 20.8236 20.7613C20.8236 20.5469 20.7384 20.3412 20.5868 20.1896C20.4352 20.038 20.2295 19.9529 20.0151 19.9529H16.9259Z" fill="white"/>
<defs>
<linearGradient id="paint0_linear_312_4608" x1="19.5" y1="0" x2="19.5" y2="38" gradientUnits="userSpaceOnUse">
<stop stop-color="#F1416C"/>
<stop offset="1" stop-color="#12E6C8"/>
</linearGradient>
</defs>
</svg>
