<svg width="60" height="59" viewBox="0 0 60 59" fill="none" xmlns="http://www.w3.org/2000/svg">
<rect x="1" y="0.5" width="58" height="58" rx="15.5" fill="#FFF5F8"/>
<rect x="1" y="0.5" width="58" height="58" rx="15.5" stroke="#F1416C"/>
<path d="M30.9935 14.9167C32.5102 14.9167 33.8449 15.7712 34.4516 16.9675C34.8763 16.8535 35.3617 16.7396 35.847 16.7396C37.9704 16.7396 39.7298 18.3916 39.7298 20.3854V20.4994C40.0332 20.4424 40.3365 20.3854 40.7005 20.3854C42.8239 20.3854 44.5834 22.0374 44.5834 24.0313V34.0573C44.5834 34.1712 44.5227 34.2282 44.5227 34.3421C44.1587 39.583 39.7298 43.7415 34.1483 44.0833C34.0876 44.0833 33.9663 44.0833 33.9056 44.0833H33.4202H32.8742C28.7487 44.0833 24.8052 42.5453 21.8931 39.8109L16.5542 34.8548C15.0375 33.4307 15.0375 31.0951 16.5542 29.6709C18.071 28.2467 20.5584 28.2467 22.0751 29.6709L22.2571 29.8418V20.3854C22.2571 18.3916 23.9559 16.7396 26.1399 16.7396C26.5646 16.7396 27.05 16.8535 27.4747 16.9675C28.0814 15.7712 29.4161 14.9167 30.9935 14.9167ZM30.0228 20.4424V28.1328C30.0228 28.9303 29.3554 29.5 28.5667 29.5C27.7173 29.5 27.1107 28.9303 27.1107 28.1328V20.3854C27.1107 19.9297 26.6253 19.474 26.1399 19.474C25.5939 19.474 25.1692 19.9297 25.1692 20.3854V33.1458C25.1692 33.7155 24.8052 34.1712 24.2592 34.3991C23.7132 34.627 23.0458 34.513 22.6818 34.1143L20.0124 31.6078C19.6484 31.266 18.981 31.266 18.617 31.6078C18.253 31.9495 18.253 32.5762 18.617 32.918L23.9559 37.931C26.322 40.1527 29.5374 41.349 32.8742 41.349H33.4202H33.6629C33.7236 41.349 33.7843 41.349 33.7843 41.349C38.0311 41.1781 41.4286 37.988 41.6106 34.0003C41.6106 34.0003 41.6106 33.9434 41.6712 33.8864V24.0313C41.6712 23.5755 41.1859 23.1198 40.7005 23.1198C40.1545 23.1198 39.7298 23.5755 39.7298 24.0313V24.0882V28.1328C39.7298 28.9303 39.0625 29.5 38.2738 29.5C37.4244 29.5 36.8177 28.9303 36.8177 28.1328V23.5755V20.3854C36.8177 19.9297 36.3324 19.474 35.847 19.474C35.301 19.474 34.8763 19.9297 34.8763 20.3854V28.1328C34.8763 28.9303 34.2089 29.5 33.4202 29.5C32.5709 29.5 31.9642 28.9303 31.9642 28.1328V20.3854V18.5625C31.9642 18.1068 31.4788 17.651 30.9935 17.651C30.4475 17.651 30.0228 18.1068 30.0228 18.5625V20.3854V20.4424Z" fill="#F1416C"/>
</svg>
