<svg width="39" height="38" viewBox="0 0 39 38" fill="none" xmlns="http://www.w3.org/2000/svg">
<rect x="0.5" width="38" height="38" rx="19" fill="url(#paint0_linear_312_4604)"/>
<path d="M16.5 11.5C16.1022 11.5 15.7206 11.6693 15.4393 11.9707C15.158 12.2721 15 12.6808 15 13.107V25.9634C14.9998 26.0694 15.0291 26.1732 15.084 26.2615C15.1389 26.3497 15.2171 26.4185 15.3085 26.4592C15.4 26.4998 15.5007 26.5104 15.5978 26.4897C15.6949 26.4689 15.7841 26.4177 15.854 26.3426L19.5 22.4354L23.146 26.3426C23.2159 26.4177 23.3051 26.4689 23.4022 26.4897C23.4993 26.5104 23.6 26.4998 23.6915 26.4592C23.7829 26.4185 23.8611 26.3497 23.916 26.2615C23.9709 26.1732 24.0002 26.0694 24 25.9634V13.107C24 12.6808 23.842 12.2721 23.5607 11.9707C23.2794 11.6693 22.8978 11.5 22.5 11.5H16.5Z" fill="white"/>
<defs>
<linearGradient id="paint0_linear_312_4604" x1="19.5" y1="0" x2="19.5" y2="38" gradientUnits="userSpaceOnUse">
<stop stop-color="#FD822E"/>
<stop offset="1" stop-color="#0ADBDB"/>
</linearGradient>
</defs>
</svg>
