<svg width="25" height="25" viewBox="0 0 25 25" fill="none" xmlns="http://www.w3.org/2000/svg">
<path d="M22.5 11.9986C22.5 17.2583 18.1466 21.5 12.8448 21.5C10.7328 21.5 8.7069 20.8637 7.02586 19.6337C6.42241 19.1671 6.2931 18.3187 6.76724 17.7249C7.24138 17.1311 8.10345 17.0038 8.7069 17.428C9.91379 18.3187 11.3362 18.7853 12.8448 18.7853C16.6379 18.7853 19.7414 15.7737 19.7414 11.9986C19.7414 8.26596 16.6379 5.25436 12.8448 5.25436C11.2069 5.25436 9.69828 5.80578 8.44828 6.78137L10.431 8.69013C11.1638 9.41121 10.6034 10.6837 9.56897 10.6837H3.31897C2.84483 10.6837 2.5 10.302 2.5 9.83538V3.68494C2.5 2.62452 3.75 2.11552 4.48276 2.83661L6.50862 4.87261C8.23276 3.38802 10.4741 2.53969 12.8448 2.53969C18.1466 2.53969 22.5 6.78137 22.5 11.9986Z" fill="#333333"/>
</svg>
