<svg width="39" height="39" viewBox="0 0 39 39" fill="none" xmlns="http://www.w3.org/2000/svg">
<rect x="0.5" y="0.5" width="38" height="38" rx="19" fill="url(#paint0_linear_312_4593)"/>
<path fill-rule="evenodd" clip-rule="evenodd" d="M17.816 12.7393L17.2757 14.0196L15.4154 14.9882L13.9333 14.7804C13.6861 14.7494 13.4345 14.7866 13.2105 14.8874C12.9864 14.9881 12.8001 15.1478 12.6753 15.3461L12.1734 16.1539C12.0446 16.3551 11.9852 16.5874 12.0031 16.8202C12.021 17.053 12.1154 17.2753 12.2738 17.4579L13.2156 18.5304V20.4696L12.2995 21.5421C12.1411 21.7247 12.0467 21.947 12.0288 22.1798C12.0109 22.4126 12.0703 22.6449 12.1991 22.8461L12.7009 23.6539C12.8258 23.8522 13.0121 24.0119 13.2362 24.1126C13.4602 24.2134 13.7118 24.2506 13.959 24.2196L15.4411 24.0118L17.2768 24.9804L17.8171 26.2618C17.9081 26.4784 18.0682 26.6648 18.2764 26.7965C18.4846 26.9282 18.7313 26.9991 18.9842 27H20.0403C20.2937 26.9995 20.541 26.9286 20.7497 26.7966C20.9584 26.6647 21.1188 26.4779 21.2097 26.2607L21.75 24.9804L23.5846 24.0118L25.0667 24.2196C25.3138 24.2506 25.5655 24.2134 25.7895 24.1126C26.0135 24.0119 26.1998 23.8522 26.3247 23.6539L26.8265 22.8461C26.9554 22.6449 27.0148 22.4126 26.9969 22.1798C26.9789 21.947 26.8846 21.7247 26.7262 21.5421L25.7844 20.4696V18.5304L26.7017 17.4579C26.8601 17.2753 26.9544 17.053 26.9723 16.8202C26.9903 16.5874 26.9309 16.3551 26.802 16.1539L26.3002 15.3461C26.1755 15.1477 25.9892 14.9879 25.7651 14.8872C25.541 14.7864 25.2894 14.7492 25.0422 14.7804L23.5601 14.9882L21.7243 14.0196L21.184 12.7382C21.0928 12.5215 20.9326 12.3351 20.7241 12.2034C20.5157 12.0717 20.2688 12.0008 20.0158 12H18.9842C18.731 12.0009 18.484 12.0719 18.2756 12.2038C18.0671 12.3358 17.907 12.5224 17.816 12.7393ZM19.5 21.9107C20.1964 21.9107 20.8643 21.6567 21.3567 21.2046C21.8491 20.7525 22.1258 20.1394 22.1258 19.5C22.1258 18.8606 21.8491 18.2475 21.3567 17.7954C20.8643 17.3433 20.1964 17.0893 19.5 17.0893C18.8036 17.0893 18.1357 17.3433 17.6433 17.7954C17.1508 18.2475 16.8742 18.8606 16.8742 19.5C16.8742 20.1394 17.1508 20.7525 17.6433 21.2046C18.1357 21.6567 18.8036 21.9107 19.5 21.9107Z" fill="white"/>
<defs>
<linearGradient id="paint0_linear_312_4593" x1="19.5" y1="0.5" x2="19.5" y2="38.5" gradientUnits="userSpaceOnUse">
<stop stop-color="#4C28A5"/>
<stop offset="1" stop-color="#B035DB"/>
</linearGradient>
</defs>
</svg>
