<svg width="24" height="25" viewBox="0 0 24 25" fill="none" xmlns="http://www.w3.org/2000/svg">
<path fill-rule="evenodd" clip-rule="evenodd" d="M11 18.5C14.866 18.5 18 15.366 18 11.5C18 7.63401 14.866 4.5 11 4.5C7.13401 4.5 4 7.63401 4 11.5C4 15.366 7.13401 18.5 11 18.5ZM11 20.5C15.9706 20.5 20 16.4706 20 11.5C20 6.52944 15.9706 2.5 11 2.5C6.02944 2.5 2 6.52944 2 11.5C2 16.4706 6.02944 20.5 11 20.5Z" fill="black"/>
<path fill-rule="evenodd" clip-rule="evenodd" d="M15.7527 16.8356C16.1196 16.4228 16.7516 16.3857 17.1644 16.7526L21.6644 20.7526C22.0772 21.1195 22.1144 21.7516 21.7475 22.1644C21.3806 22.5771 20.7485 22.6143 20.3357 22.2474L15.8357 18.2474C15.4229 17.8805 15.3857 17.2484 15.7527 16.8356Z" fill="black"/>
</svg>
