<svg width="19" height="20" viewBox="0 0 19 20" fill="none" xmlns="http://www.w3.org/2000/svg">
<path d="M13.0341 2.875C11.7781 4.2666 11.4307 6.40967 11.4307 8.21875C11.4307 12.644 10.6825 15.0933 10.2817 16.123C10.0144 16.791 9.3998 17.125 8.78517 17.125H2.45184C2.13116 17.125 1.83721 16.958 1.7036 16.6797C1.54326 16.4014 1.54326 16.0674 1.7036 15.7891C1.97083 15.2881 2.13116 14.7314 2.26478 14.1748C2.55873 12.978 2.87941 11.0576 2.87941 8.21875C2.87941 5.26855 4.02849 2.875 5.44481 2.875H13.0341ZM14.8513 13.5625C13.435 13.5625 12.2859 11.1689 12.2859 8.21875C12.2859 5.26855 13.435 2.875 14.8513 2.875C16.2676 2.875 17.4167 5.26855 17.4167 8.21875C17.4167 11.1689 16.2676 13.5625 14.8513 13.5625ZM14.8513 10C15.3056 10 15.7064 9.2207 15.7064 8.21875C15.7064 7.24463 15.3056 6.4375 14.8513 6.4375C14.3703 6.4375 13.9961 7.24463 13.9961 8.21875C13.9961 9.2207 14.3703 10 14.8513 10ZM5.01724 8.66406C5.01724 8.44141 4.80346 8.21875 4.58967 8.21875C4.34917 8.21875 4.16211 8.44141 4.16211 8.66406C4.16211 8.91455 4.34917 9.10938 4.58967 9.10938C4.80346 9.10938 5.01724 8.91455 5.01724 8.66406ZM6.72751 8.66406C6.72751 8.44141 6.51372 8.21875 6.29994 8.21875C6.05943 8.21875 5.87237 8.44141 5.87237 8.66406C5.87237 8.91455 6.05943 9.10938 6.29994 9.10938C6.51372 9.10938 6.72751 8.91455 6.72751 8.66406ZM8.01021 9.10938C8.22399 9.10938 8.43777 8.91455 8.43777 8.66406C8.43777 8.44141 8.22399 8.21875 8.01021 8.21875C7.7697 8.21875 7.58264 8.44141 7.58264 8.66406C7.58264 8.91455 7.7697 9.10938 8.01021 9.10938ZM10.148 8.66406C10.148 8.44141 9.93426 8.21875 9.72047 8.21875C9.47997 8.21875 9.29291 8.44141 9.29291 8.66406C9.29291 8.91455 9.47997 9.10938 9.72047 9.10938C9.93426 9.10938 10.148 8.91455 10.148 8.66406Z" fill="#555555"/>
</svg>
