<svg width="20" height="20" viewBox="0 0 20 20" fill="none" xmlns="http://www.w3.org/2000/svg">
<path fill-rule="evenodd" clip-rule="evenodd" d="M5.63154 2.6597C5.68203 2.60908 5.74201 2.56891 5.80805 2.54151C5.8741 2.51411 5.94489 2.5 6.01639 2.5C6.08789 2.5 6.15869 2.51411 6.22473 2.54151C6.29077 2.56891 6.35076 2.60908 6.40125 2.6597L10.2063 6.46479C10.2826 6.54081 10.3345 6.63776 10.3555 6.74333C10.3766 6.8489 10.3658 6.95835 10.3246 7.0578C10.2834 7.15724 10.2136 7.24221 10.124 7.30193C10.0344 7.36164 9.92913 7.39342 9.82148 7.39323H7.10356V16.6342C7.10356 16.9225 6.98902 17.199 6.78514 17.4029C6.58125 17.6068 6.30473 17.7213 6.01639 17.7213C5.72806 17.7213 5.45153 17.6068 5.24765 17.4029C5.04377 17.199 4.92922 16.9225 4.92922 16.6342V7.39323H2.2113C2.10365 7.39342 1.99837 7.36164 1.9088 7.30193C1.81923 7.24221 1.7494 7.15724 1.70818 7.0578C1.66696 6.95835 1.65619 6.8489 1.67725 6.74333C1.6983 6.63776 1.75023 6.54081 1.82645 6.46479L5.63154 2.6597Z" fill="#333333"/>
<path fill-rule="evenodd" clip-rule="evenodd" d="M14.7344 17.5626C14.6839 17.6132 14.624 17.6534 14.5579 17.6808C14.4919 17.7082 14.4211 17.7223 14.3496 17.7223C14.2781 17.7223 14.2073 17.7082 14.1412 17.6808C14.0752 17.6534 14.0152 17.6132 13.9647 17.5626L10.1596 13.7575C10.0834 13.6815 10.0315 13.5845 10.0104 13.479C9.98937 13.3734 10.0001 13.2639 10.0414 13.1645C10.0826 13.065 10.1524 12.9801 10.242 12.9204C10.3315 12.8606 10.4368 12.8289 10.5445 12.8291L13.2624 12.8291L13.2624 3.58813C13.2624 3.2998 13.3769 3.02327 13.5808 2.81939C13.7847 2.6155 14.0612 2.50096 14.3496 2.50096C14.6379 2.50096 14.9144 2.6155 15.1183 2.81939C15.3222 3.02327 15.4367 3.2998 15.4367 3.58813L15.4367 12.8291L18.1547 12.8291C18.2623 12.8289 18.3676 12.8606 18.4572 12.9204C18.5467 12.9801 18.6166 13.065 18.6578 13.1645C18.699 13.2639 18.7098 13.3734 18.6887 13.479C18.6677 13.5845 18.6157 13.6815 18.5395 13.7575L14.7344 17.5626Z" fill="#333333"/>
</svg>
