<svg width="39" height="38" viewBox="0 0 39 38" fill="none" xmlns="http://www.w3.org/2000/svg">
<rect x="0.5" width="38" height="38" rx="19" fill="url(#paint0_linear_312_4612)"/>
<path fill-rule="evenodd" clip-rule="evenodd" d="M24.768 22.951H24.5046V24.7948H24.768C24.9775 24.7948 25.1785 24.8781 25.3267 25.0262C25.4749 25.1744 25.5582 25.3754 25.5582 25.585C25.5582 25.7946 25.4749 25.9956 25.3267 26.1437C25.1785 26.2919 24.9775 26.3752 24.768 26.3752H15.9441C15.2805 26.3752 14.644 26.1116 14.1747 25.6423C13.7055 25.173 13.4418 24.5366 13.4418 23.8729V13.9955C13.4418 13.3667 13.6916 12.7638 14.1362 12.3192C14.5807 11.8746 15.1837 11.6249 15.8124 11.6249H23.1876C23.8163 11.6249 24.4193 11.8746 24.8638 12.3192C25.3084 12.7638 25.5582 13.3667 25.5582 13.9955V22.1608C25.5582 22.3704 25.4749 22.5714 25.3267 22.7196C25.1785 22.8678 24.9775 22.951 24.768 22.951ZM15.9441 22.951H22.9242V24.7948H15.9441C15.6996 24.7948 15.4651 24.6977 15.2922 24.5248C15.1194 24.3519 15.0222 24.1174 15.0222 23.8729C15.0222 23.6284 15.1194 23.3939 15.2922 23.221C15.4651 23.0481 15.6996 22.951 15.9441 22.951ZM19.6802 14.6055C19.5465 14.5789 19.4085 14.5822 19.2763 14.6153C19.144 14.6484 19.0207 14.7104 18.9153 14.7968C18.8099 14.8833 18.725 14.9921 18.6667 15.1153C18.6084 15.2385 18.5781 15.3731 18.5781 15.5095C18.5781 15.6841 18.5087 15.8516 18.3852 15.9751C18.2617 16.0986 18.0943 16.168 17.9196 16.168C17.745 16.168 17.5775 16.0986 17.454 15.9751C17.3305 15.8516 17.2611 15.6841 17.2611 15.5095C17.2611 15.0951 17.3761 14.6888 17.5933 14.3359C17.8105 13.983 18.1214 13.6973 18.4914 13.5107C18.8613 13.324 19.2758 13.2436 19.6887 13.2786C20.1016 13.3135 20.4968 13.4623 20.8301 13.7085C21.1634 13.9547 21.4219 14.2885 21.5767 14.6729C21.7316 15.0573 21.7767 15.4771 21.7071 15.8856C21.6374 16.2941 21.4558 16.6753 21.1824 16.9866C20.909 17.298 20.5546 17.5274 20.1585 17.6493C20.1542 17.824 20.0806 17.9897 19.9541 18.1102C19.8275 18.2306 19.6583 18.2958 19.4837 18.2915C19.309 18.2872 19.1433 18.2136 19.0228 18.0871C18.9024 17.9605 18.8372 17.7913 18.8415 17.6167V17.0899C18.8415 16.7264 19.1365 16.4314 19.5 16.4314C19.7286 16.4309 19.9489 16.3456 20.1182 16.1919C20.2874 16.0381 20.3934 15.827 20.4158 15.5995C20.4381 15.372 20.3751 15.1442 20.2389 14.9606C20.1028 14.7769 19.9033 14.6503 19.6791 14.6055H19.6802ZM19.5 20.985C19.2555 20.985 19.021 20.8879 18.8481 20.715C18.6752 20.5421 18.5781 20.3076 18.5781 20.0631C18.5781 19.8186 18.6752 19.5841 18.8481 19.4112C19.021 19.2383 19.2555 19.1412 19.5 19.1412C19.7445 19.1412 19.979 19.2383 20.1519 19.4112C20.3248 19.5841 20.4219 19.8186 20.4219 20.0631C20.4219 20.3076 20.3248 20.5421 20.1519 20.715C19.979 20.8879 19.7445 20.985 19.5 20.985Z" fill="white"/>
<defs>
<linearGradient id="paint0_linear_312_4612" x1="19.5" y1="0" x2="19.5" y2="38" gradientUnits="userSpaceOnUse">
<stop stop-color="#B035DB"/>
<stop offset="1" stop-color="#12E6C8"/>
</linearGradient>
</defs>
</svg>
