<svg width="25" height="25" viewBox="0 0 25 25" fill="none" xmlns="http://www.w3.org/2000/svg">
<g clip-path="url(#clip0_1958_787)">
<path d="M12.7 13.5C15.7375 13.5 18.2 11.0376 18.2 8C18.2 4.96243 15.7375 2.5 12.7 2.5C9.66238 2.5 7.19995 4.96243 7.19995 8C7.19995 11.0376 9.66238 13.5 12.7 13.5Z" fill="#555555"/>
<path d="M12.6999 22.5002H19.7099C21.3599 22.5002 22.6999 21.1602 22.6999 19.5102V18.4302C22.6999 16.2402 20.9299 14.4702 18.7399 14.4702H18.6299C18.0699 14.4702 17.5199 14.5802 16.9899 14.7702C16.1399 15.0702 14.6299 15.5002 12.6999 15.5002C10.7699 15.5002 9.26994 15.0702 8.43994 14.7702C7.91994 14.5802 7.36994 14.4702 6.81994 14.4702H6.66994C4.47994 14.4702 2.69994 16.2502 2.70994 18.4402V19.5202C2.70994 21.1702 4.04994 22.5002 5.69994 22.5002H12.6999Z" fill="#555555"/>
</g>
<defs>
<clipPath id="clip0_1958_787">
<rect width="24" height="24" fill="white" transform="translate(0.699951 0.5)"/>
</clipPath>
</defs>
</svg>
