<svg width="25" height="25" viewBox="0 0 25 25" fill="none" xmlns="http://www.w3.org/2000/svg">
<g clip-path="url(#clip0_1952_5580)">
<path d="M19.1001 8.5L5.1001 8.36C4.3001 8.36 3.6401 7.71 3.6401 6.9V5.5C3.6401 4.7 4.3001 4.04 5.1001 4.04H19.3701C19.8001 4.04 20.1401 3.69 20.1401 3.27C20.1401 2.85 19.7901 2.5 19.3701 2.5H5.1001C3.4401 2.5 2.1001 3.84 2.1001 5.5V6.5V6.9V19.5C2.1001 21.16 3.4401 22.5 5.1001 22.5H19.1001C20.7601 22.5 22.1001 21.16 22.1001 19.5V11.5C22.1001 9.84 20.7601 8.5 19.1001 8.5ZM20.7001 19.5C20.7001 20.38 19.9801 21.1 19.1001 21.1H5.1001C4.2201 21.1 3.5001 20.38 3.5001 19.5V9.43C3.7001 9.56 3.9301 9.66 4.1601 9.73C4.2101 9.75 4.2701 9.76 4.3201 9.78C4.3901 9.8 4.4501 9.82 4.5201 9.84C4.6801 9.88 4.8701 9.9 5.1001 9.9H17.1201C18.3101 9.9 19.1001 9.9 19.1001 9.9C19.9801 9.9 20.7001 10.62 20.7001 11.5V19.5Z" fill="#555555"/>
<path d="M18.1501 14.21C17.4401 14.21 16.8701 14.78 16.8701 15.49C16.8701 16.2 17.4401 16.77 18.1501 16.77C18.8601 16.77 19.4301 16.2 19.4301 15.49C19.4301 14.78 18.8601 14.21 18.1501 14.21Z" fill="#555555"/>
</g>
<defs>
<clipPath id="clip0_1952_5580">
<rect width="24" height="24" fill="white" transform="translate(0.100098 0.5)"/>
</clipPath>
</defs>
</svg>
