<svg width="25" height="24" viewBox="0 0 25 24" fill="none" xmlns="http://www.w3.org/2000/svg">
<g clip-path="url(#clip0_464_3782)">
<path d="M12.5112 1.78027C14.6034 1.78027 16.6955 1.78027 18.7876 1.78027C20.3869 1.78027 21.7342 2.71133 22.2709 4.17911C22.4242 4.59535 22.49 5.03349 22.49 5.47164C22.49 8.15527 22.5009 10.8499 22.49 13.5335C22.479 15.6366 20.8798 17.2249 18.7767 17.2249C18.3604 17.2249 17.9442 17.2249 17.517 17.2249C16.9912 17.2249 16.5969 16.8415 16.586 16.3486C16.575 15.8338 16.9584 15.4285 17.4842 15.4175C17.9113 15.4066 18.3495 15.4175 18.7876 15.4175C19.9049 15.4066 20.6717 14.6398 20.6717 13.5335C20.6717 10.8608 20.6717 8.18813 20.6717 5.5045C20.6717 4.39819 19.8939 3.60953 18.7876 3.60953C14.5924 3.60953 10.3972 3.60953 6.21289 3.60953C5.10658 3.60953 4.32887 4.39819 4.32887 5.5045C4.32887 8.13337 4.35078 10.7513 4.31792 13.3801C4.29601 14.5303 5.11753 15.4504 6.37719 15.4285C8.99511 15.3847 11.613 15.4175 14.2309 15.4175C14.7348 15.4175 15.0744 15.6585 15.1948 16.0857C15.3482 16.6334 14.9648 17.181 14.3952 17.2358C14.3624 17.2358 14.3295 17.2358 14.2857 17.2358C11.5583 17.2358 8.81985 17.2468 6.0924 17.2358C4.13171 17.2249 2.53248 15.6366 2.51057 13.654C2.48866 10.9046 2.48866 8.14432 2.51057 5.39496C2.53248 3.34664 4.15361 1.79123 6.19098 1.78027C8.30503 1.78027 10.4081 1.78027 12.5112 1.78027Z" fill="#333333"/>
<path d="M9.1814 9.50256C9.1814 8.86726 9.1814 8.2429 9.1814 7.60759C9.1814 6.65463 9.92624 5.88787 10.8792 5.86597C11.153 5.86597 11.4269 5.93169 11.6788 6.06313C12.9494 6.69844 14.231 7.33375 15.5016 7.98001C16.115 8.28671 16.4327 8.81249 16.4546 9.48066C16.4655 10.1598 16.1588 10.6965 15.5564 11.0142C14.2639 11.6823 12.9604 12.3505 11.635 12.9749C10.4739 13.5335 9.19235 12.6901 9.19235 11.3975C9.1814 10.7622 9.1814 10.1379 9.1814 9.50256ZM14.4501 9.49161C14.4282 9.4697 14.3953 9.4478 14.3734 9.43684C13.3 8.90012 12.2375 8.36339 11.164 7.82666C11.0106 7.74999 11.0106 7.82666 11.0106 7.94715C11.0106 8.97679 11.0106 10.0064 11.0106 11.0251C11.0106 11.2332 11.0654 11.2223 11.2188 11.1456C12.2484 10.6198 13.278 10.116 14.3186 9.59019C14.3625 9.57924 14.4172 9.56829 14.4501 9.49161Z" fill="#0ADBDB"/>
<path d="M16.1477 20.8615C14.3513 20.8615 12.544 20.8615 10.7476 20.8615C10.178 20.8615 9.77271 20.4671 9.78366 19.9304C9.79462 19.4594 10.167 19.087 10.6271 19.0541C10.6819 19.0541 10.7257 19.0541 10.7804 19.0541C14.3513 19.0541 17.9331 19.0541 21.504 19.0541C22.0627 19.0541 22.4132 19.3499 22.4899 19.8428C22.5665 20.3247 22.1941 20.8067 21.7012 20.8505C21.6136 20.8615 21.515 20.8615 21.4273 20.8615C19.6638 20.8615 17.9112 20.8615 16.1477 20.8615Z" fill="#333333"/>
<path d="M5.13951 20.8505C4.54802 20.8505 3.96748 20.8615 3.37598 20.8505C2.91593 20.8395 2.55446 20.4781 2.51065 20.018C2.46683 19.6018 2.76258 19.1856 3.18977 19.076C3.29931 19.0432 3.43075 19.0432 3.55124 19.0432C4.60278 19.0432 5.65433 19.0432 6.69492 19.0432C7.05639 19.0432 7.05639 19.0432 7.05639 18.6926C7.05639 18.5831 7.05639 18.4626 7.08925 18.3531C7.20974 17.9259 7.57121 17.663 8.02031 17.6849C8.43655 17.7068 8.78706 18.0026 8.85278 18.4298C8.91851 18.9446 8.86374 19.4594 8.88564 19.9852C8.8966 20.3905 8.88564 20.8067 8.88564 21.2229C8.88564 21.8254 8.51322 22.2307 7.96554 22.2197C7.42881 22.2197 7.06735 21.8144 7.06735 21.2229C7.06735 20.8615 7.06735 20.8615 6.70588 20.8615C6.1801 20.8615 5.65433 20.8615 5.13951 20.8505Z" fill="#333333"/>
</g>
<defs>
<clipPath id="clip0_464_3782">
<rect width="24" height="24" fill="white" transform="translate(0.5)"/>
</clipPath>
</defs>
</svg>
