<svg width="55" height="55" viewBox="0 0 55 55" fill="none" xmlns="http://www.w3.org/2000/svg">
<rect width="55" height="55" rx="27.5" fill="black" fill-opacity="0.4"/>
<path d="M19.5666 23.6452C15.565 24.5212 12.9166 26.0393 12.9166 27.7661V31.0424C12.9166 29.3156 15.565 27.7975 19.5666 26.9231V23.6452Z" fill="#DDDDDD"/>
<path d="M30.5856 22.1146C31.7002 22.1648 32.8101 22.3297 33.9153 22.5385C33.2308 16.9277 31.4207 12.9199 29.2967 12.9199H26.0204C28.0926 12.9183 29.8634 16.7268 30.5856 22.1146Z" fill="#DDDDDD"/>
<path d="M29.876 36.5244C28.9765 39.9091 27.584 42.0834 26.0204 42.0834H29.2967C30.9372 42.0834 32.3894 39.6924 33.281 36.0205C32.1539 36.2513 31.0204 36.4554 29.876 36.5244Z" fill="#DDDDDD"/>
<path d="M42.0832 27.5008C42.0832 30.2135 35.5541 32.4129 27.5006 32.4129C19.4472 32.4129 12.9181 30.2135 12.9181 27.5008V30.7771C12.9181 33.4899 19.4472 35.6892 27.5006 35.6892C35.5541 35.6892 42.0832 33.4899 42.0832 30.7771V27.5008Z" fill="white"/>
<path d="M22.6247 21.2339L24.1537 23.8446C24.3405 16.2966 26.4473 12.9167 29.036 12.9167H25.7597C23.1553 12.9167 21.0407 16.3626 20.8743 23.9686L22.6247 21.2339Z" fill="white"/>
<path d="M24.383 28.9859L25.595 29.0095L24.1334 26.3595L22.6719 23.7096L21.1083 26.2999L19.5447 28.8902L21.102 28.92C21.7158 34.9263 23.5494 42.0818 25.7629 42.0818H29.0393C26.832 42.0834 25.0031 34.9593 24.383 28.9859Z" fill="#DDDDDD"/>
<path d="M27.7503 25.8194H28.2778C28.697 25.8194 28.9058 25.6154 28.9058 25.204C28.9058 25.0439 28.8555 24.9152 28.7566 24.8131C28.6577 24.7127 28.5164 24.6624 28.3343 24.6624C28.1852 24.6624 28.0565 24.7048 27.9481 24.7927C27.8382 24.8791 27.7833 24.9858 27.7833 25.1146H26.664C26.664 24.8602 26.7346 24.6326 26.8759 24.4332C27.0172 24.2339 27.2134 24.0784 27.4662 23.967C27.7174 23.8555 27.9937 23.799 28.2951 23.799C28.8335 23.799 29.2558 23.9215 29.5635 24.1679C29.8712 24.4144 30.0251 24.7519 30.0251 25.1805C30.0251 25.3893 29.9607 25.5855 29.8335 25.7692C29.7064 25.9544 29.5211 26.1036 29.2778 26.2198C29.5353 26.3124 29.7362 26.4537 29.8822 26.6436C30.0282 26.8336 30.102 27.0675 30.102 27.3454C30.102 27.7771 29.9356 28.1224 29.6043 28.3815C29.2715 28.6405 28.8351 28.7708 28.2951 28.7708C27.978 28.7708 27.6844 28.7111 27.4128 28.5903C27.1412 28.4694 26.9356 28.303 26.7974 28.0895C26.6593 27.876 26.5886 27.6326 26.5886 27.3611H27.7142C27.7142 27.5102 27.7739 27.6373 27.8932 27.7457C28.0125 27.854 28.1601 27.9089 28.3343 27.9089C28.5321 27.9089 28.6891 27.854 28.8053 27.7441C28.9215 27.6342 28.9811 27.4945 28.9811 27.3234C28.9811 27.08 28.9199 26.9074 28.799 26.8053C28.6766 26.7033 28.5086 26.653 28.2935 26.653H27.7488V25.8194H27.7503Z" fill="#0ADBDB"/>
<path d="M33.0298 23.8006V24.6813H32.9795C32.5604 24.6813 32.2166 24.7818 31.9481 24.9827C31.6797 25.1837 31.5133 25.4615 31.452 25.8179C31.7048 25.5698 32.0235 25.4458 32.4081 25.4458C32.8272 25.4458 33.1601 25.5981 33.4081 25.9042C33.6561 26.2104 33.7802 26.6107 33.7802 27.1068C33.7802 27.4144 33.7079 27.697 33.5619 27.9545C33.4175 28.2119 33.215 28.4129 32.9544 28.5573C32.6938 28.7017 32.4065 28.7755 32.0894 28.7755C31.7456 28.7755 31.4395 28.697 31.1695 28.5416C30.8994 28.3846 30.6891 28.1617 30.5384 27.8728C30.3877 27.5824 30.3107 27.248 30.306 26.8697V26.4207C30.306 25.9231 30.4128 25.4741 30.6263 25.0769C30.8398 24.6797 31.1443 24.3673 31.5415 24.1413C31.9371 23.9152 32.3767 23.8022 32.8602 23.8022H33.0298V23.8006ZM32.0203 26.3014C31.8712 26.3014 31.7472 26.3359 31.6483 26.405C31.5494 26.4741 31.474 26.5573 31.4253 26.6578V26.9937C31.4253 27.6044 31.6373 27.9105 32.0596 27.9105C32.2307 27.9105 32.372 27.8336 32.4866 27.6813C32.6012 27.529 32.6577 27.3375 32.6577 27.1068C32.6577 26.8697 32.5996 26.6766 32.4834 26.5275C32.3673 26.3768 32.2134 26.3014 32.0203 26.3014Z" fill="#0ADBDB"/>
<path d="M37.2842 26.73C37.2842 27.383 37.1382 27.887 36.8446 28.2418C36.5511 28.5966 36.1382 28.7724 35.6045 28.7724C35.066 28.7724 34.65 28.595 34.3548 28.2371C34.0597 27.8807 33.9137 27.3783 33.9137 26.7284V25.8446C33.9137 25.1915 34.0597 24.6876 34.3533 24.3328C34.6468 23.978 35.0613 23.8006 35.5966 23.8006C36.1319 23.8006 36.5479 23.9796 36.8415 24.3359C37.1366 24.6923 37.2826 25.1962 37.2826 25.8477V26.73H37.2842ZM36.1649 25.7033C36.1649 25.3563 36.1194 25.0957 36.0283 24.9246C35.9373 24.7535 35.7928 24.6672 35.5966 24.6672C35.4035 24.6672 35.2638 24.7472 35.1759 24.9058C35.088 25.0659 35.0409 25.3061 35.0346 25.6295V26.865C35.0346 27.2261 35.0801 27.4898 35.1712 27.6578C35.2622 27.8258 35.4051 27.909 35.6029 27.909C35.7928 27.909 35.9341 27.8273 36.0252 27.6641C36.1162 27.5008 36.1618 27.2465 36.1649 26.898V25.7033Z" fill="#0ADBDB"/>
<path d="M37.6453 24.7378C37.6453 24.4788 37.7379 24.259 37.9231 24.0769C38.1084 23.8948 38.3266 23.8037 38.5793 23.8037C38.8274 23.8037 39.0409 23.8948 39.2214 24.0769C39.402 24.259 39.4914 24.4788 39.4914 24.7378C39.4914 24.9952 39.402 25.2119 39.2246 25.3909C39.0456 25.5698 38.8305 25.6577 38.5778 25.6577C38.3203 25.6577 38.1005 25.5682 37.9184 25.3909C37.7363 25.2119 37.6453 24.9937 37.6453 24.7378ZM38.5778 25.1491C38.6955 25.1491 38.7913 25.1098 38.8666 25.0298C38.942 24.9497 38.9797 24.8524 38.9797 24.7378C38.9797 24.6232 38.942 24.5227 38.8666 24.4395C38.7913 24.3547 38.6955 24.3139 38.5778 24.3139C38.46 24.3139 38.3611 24.3547 38.2811 24.4379C38.1994 24.5211 38.1602 24.6216 38.1602 24.7394C38.1602 24.8571 38.201 24.9544 38.2842 25.0329C38.3674 25.1098 38.4647 25.1491 38.5778 25.1491Z" fill="#0ADBDB"/>
</svg>
