<svg width="30" height="30" viewBox="0 0 30 30" fill="none" xmlns="http://www.w3.org/2000/svg">
<g clip-path="url(#clip0_3301_8513)">
<path d="M23.807 18.8284C23.807 19.7411 23.5809 20.6013 23.173 21.3524L20.9842 23.5413C20.233 23.9451 19.3728 24.1753 18.4601 24.1753C16.8649 24.1753 15.4273 23.4767 14.45 22.3701L21.9897 14.8223C23.1084 15.7955 23.807 17.2292 23.807 18.8284Z" fill="url(#paint0_linear_3301_8513)"/>
<path d="M20.9842 23.541L15.7584 28.7668C15.0355 29.4897 13.8684 29.4897 13.1455 28.7668L3.45729 19.0826C3.25537 18.8807 3.10998 18.6464 3.02114 18.3799C2.94845 18.186 2.91614 17.9841 2.91614 17.7782V11.5347C2.91614 11.3247 2.94845 11.1228 3.02114 10.937L14.4419 22.3578L14.454 22.3699C15.4313 23.4764 16.865 24.1751 18.4642 24.1751C19.3728 24.171 20.233 23.9449 20.9842 23.541Z" fill="#4F3594"/>
<path d="M5.09283 10.4846C5.09283 9.57192 5.31899 8.71173 5.72687 7.96057L7.91571 5.77173C8.66687 5.36789 9.52706 5.1377 10.4397 5.1377C12.0349 5.1377 13.4726 5.83635 14.4499 6.94288L6.9061 14.4908C5.79149 13.5134 5.09283 12.0798 5.09283 10.4846Z" fill="url(#paint1_linear_3301_8513)"/>
<path d="M25.9838 11.5348V17.7783C25.9838 17.9883 25.9515 18.1902 25.8788 18.376L14.4581 6.95927L14.446 6.94715C13.4687 5.84061 12.035 5.14196 10.4358 5.14196C9.52309 5.14196 8.6629 5.36811 7.91174 5.776L13.1415 0.542162C13.8644 -0.180721 15.0315 -0.180721 15.7544 0.542162L25.4386 10.2264C25.6406 10.4283 25.7859 10.6625 25.8748 10.9291C25.9515 11.1229 25.9838 11.3248 25.9838 11.5348Z" fill="#0AAF85"/>
<path d="M6.90613 14.491L3.02114 18.376C2.94845 18.1862 2.91614 17.9842 2.91614 17.7783V11.5348C2.91614 11.3248 2.94845 11.1229 3.02114 10.9371C3.11402 10.6706 3.25537 10.4364 3.45729 10.2345L5.7269 7.96484C5.32306 8.716 5.09286 9.57619 5.09286 10.4889C5.09286 12.08 5.79152 13.5137 6.90613 14.491Z" fill="#0AAF85"/>
<path d="M25.9838 11.535V17.7784C25.9838 17.9884 25.9515 18.1903 25.8788 18.3761C25.7859 18.6426 25.6445 18.8769 25.4426 19.0788L23.173 21.3484C23.5768 20.5973 23.807 19.7371 23.807 18.8244C23.807 17.2292 23.1084 15.7915 21.9938 14.8142L25.8788 10.9292C25.9515 11.123 25.9838 11.325 25.9838 11.535Z" fill="#4F3594"/>
<path d="M15.937 12.7637L14.4496 11.2764L12.9623 12.7637L14.4496 14.2511L15.937 12.7637Z" fill="#0AAF85"/>
<path d="M17.8288 14.6563L16.3414 13.1689L14.8541 14.6563L16.3414 16.1437L17.8288 14.6563Z" fill="#0AAF85"/>
<path d="M14.0443 14.6553L12.5569 13.168L11.0695 14.6553L12.5569 16.1427L14.0443 14.6553Z" fill="#0AAF85"/>
<path d="M15.9384 16.546L14.451 15.0586L12.9637 16.546L14.4511 18.0333L15.9384 16.546Z" fill="#0AAF85"/>
</g>
<defs>
<linearGradient id="paint0_linear_3301_8513" x1="23.1548" y1="17.132" x2="17.5174" y2="23.2687" gradientUnits="userSpaceOnUse">
<stop stop-color="#4F3594"/>
<stop offset="0.2679" stop-color="#4C3490"/>
<stop offset="0.5076" stop-color="#463388"/>
<stop offset="0.7365" stop-color="#3B317D"/>
<stop offset="0.9576" stop-color="#2A2F6F"/>
<stop offset="1" stop-color="#272E6B"/>
</linearGradient>
<linearGradient id="paint1_linear_3301_8513" x1="5.74472" y1="12.1775" x2="11.3821" y2="6.04085" gradientUnits="userSpaceOnUse">
<stop stop-color="#0AAF85"/>
<stop offset="0.2843" stop-color="#09AB82"/>
<stop offset="0.5387" stop-color="#06A179"/>
<stop offset="0.7808" stop-color="#03936D"/>
<stop offset="1" stop-color="#00835D"/>
</linearGradient>
<clipPath id="clip0_3301_8513">
<rect width="30" height="30" fill="white"/>
</clipPath>
</defs>
</svg>
