<svg width="164" height="19" viewBox="0 0 164 19" fill="none" xmlns="http://www.w3.org/2000/svg">
<path d="M0 16.62H16V0.62H0V16.62ZM28.4304 7.625C28.3509 7.34848 28.2391 7.10417 28.0952 6.89205C27.9512 6.67614 27.7751 6.49432 27.5668 6.34659C27.3622 6.19508 27.1274 6.07955 26.8622 6C26.6009 5.92045 26.3111 5.88068 25.9929 5.88068C25.3982 5.88068 24.8755 6.02841 24.4247 6.32386C23.9777 6.61932 23.6293 7.04924 23.3793 7.61364C23.1293 8.17424 23.0043 8.85985 23.0043 9.67045C23.0043 10.4811 23.1274 11.1705 23.3736 11.7386C23.6198 12.3068 23.9683 12.7405 24.419 13.0398C24.8698 13.3352 25.402 13.483 26.0156 13.483C26.5724 13.483 27.0478 13.3845 27.4418 13.1875C27.8395 12.9867 28.1425 12.7045 28.3509 12.3409C28.563 11.9773 28.669 11.5473 28.669 11.0511L29.169 11.125H26.169V9.27273H31.0384V10.7386C31.0384 11.7614 30.8224 12.6402 30.3906 13.375C29.9588 14.1061 29.3641 14.6705 28.6065 15.0682C27.849 15.4621 26.9815 15.6591 26.0043 15.6591C24.9134 15.6591 23.955 15.4186 23.1293 14.9375C22.3035 14.4527 21.6596 13.7652 21.1974 12.875C20.7391 11.9811 20.5099 10.9205 20.5099 9.69318C20.5099 8.75 20.6463 7.90909 20.919 7.17045C21.1955 6.42803 21.5819 5.79924 22.0781 5.28409C22.5743 4.76894 23.152 4.37689 23.8111 4.10795C24.4702 3.83901 25.1842 3.70455 25.9531 3.70455C26.6122 3.70455 27.2259 3.80114 27.794 3.99432C28.3622 4.18371 28.866 4.45265 29.3054 4.80114C29.7486 5.14962 30.1103 5.56439 30.3906 6.04545C30.6709 6.52273 30.8509 7.04924 30.9304 7.625H28.4304ZM36.7841 15.6705C35.9015 15.6705 35.1383 15.483 34.4943 15.108C33.8542 14.7292 33.3598 14.2027 33.0114 13.5284C32.6629 12.8504 32.4886 12.0644 32.4886 11.1705C32.4886 10.2689 32.6629 9.48106 33.0114 8.80682C33.3598 8.12879 33.8542 7.60227 34.4943 7.22727C35.1383 6.84848 35.9015 6.65909 36.7841 6.65909C37.6667 6.65909 38.428 6.84848 39.0682 7.22727C39.7121 7.60227 40.2083 8.12879 40.5568 8.80682C40.9053 9.48106 41.0795 10.2689 41.0795 11.1705C41.0795 12.0644 40.9053 12.8504 40.5568 13.5284C40.2083 14.2027 39.7121 14.7292 39.0682 15.108C38.428 15.483 37.6667 15.6705 36.7841 15.6705ZM36.7955 13.7955C37.197 13.7955 37.5322 13.6818 37.8011 13.4545C38.0701 13.2235 38.2727 12.9091 38.4091 12.5114C38.5492 12.1136 38.6193 11.661 38.6193 11.1534C38.6193 10.6458 38.5492 10.1932 38.4091 9.79545C38.2727 9.39773 38.0701 9.08333 37.8011 8.85227C37.5322 8.62121 37.197 8.50568 36.7955 8.50568C36.3902 8.50568 36.0492 8.62121 35.7727 8.85227C35.5 9.08333 35.2936 9.39773 35.1534 9.79545C35.017 10.1932 34.9489 10.6458 34.9489 11.1534C34.9489 11.661 35.017 12.1136 35.1534 12.5114C35.2936 12.9091 35.5 13.2235 35.7727 13.4545C36.0492 13.6818 36.3902 13.7955 36.7955 13.7955ZM35.9148 5.64773L37.1193 3.0625H39.358L37.625 5.64773H35.9148ZM42.6534 15.5V6.77273H45.0739V15.5H42.6534ZM43.8693 5.64773C43.5095 5.64773 43.2008 5.52841 42.9432 5.28977C42.6894 5.04735 42.5625 4.75758 42.5625 4.42045C42.5625 4.08712 42.6894 3.80114 42.9432 3.5625C43.2008 3.32008 43.5095 3.19886 43.8693 3.19886C44.2292 3.19886 44.536 3.32008 44.7898 3.5625C45.0473 3.80114 45.1761 4.08712 45.1761 4.42045C45.1761 4.75758 45.0473 5.04735 44.7898 5.28977C44.536 5.52841 44.2292 5.64773 43.8693 5.64773ZM55.358 6.77273V8.59091H50.1023V6.77273H55.358ZM51.2955 4.68182H53.7159V12.8182C53.7159 13.0417 53.75 13.2159 53.8182 13.3409C53.8864 13.4621 53.9811 13.5473 54.1023 13.5966C54.2273 13.6458 54.3712 13.6705 54.5341 13.6705C54.6477 13.6705 54.7614 13.661 54.875 13.642C54.9886 13.6193 55.0758 13.6023 55.1364 13.5909L55.517 15.392C55.3958 15.4299 55.2254 15.4735 55.0057 15.5227C54.786 15.5758 54.5189 15.608 54.2045 15.6193C53.6212 15.642 53.1098 15.5644 52.6705 15.3864C52.2348 15.2083 51.8958 14.9318 51.6534 14.5568C51.411 14.1818 51.2917 13.7083 51.2955 13.1364V4.68182ZM56.9347 15.5V6.77273H59.3551V15.5H56.9347ZM58.1506 5.64773C57.7907 5.64773 57.482 5.52841 57.2244 5.28977C56.9706 5.04735 56.8438 4.75758 56.8438 4.42045C56.8438 4.08712 56.9706 3.80114 57.2244 3.5625C57.482 3.32008 57.7907 3.19886 58.1506 3.19886C58.5104 3.19886 58.8172 3.32008 59.071 3.5625C59.3286 3.80114 59.4574 4.08712 59.4574 4.42045C59.4574 4.75758 59.3286 5.04735 59.071 5.28977C58.8172 5.52841 58.5104 5.64773 58.1506 5.64773ZM63.7145 10.4545V15.5H61.294V6.77273H63.6009V8.3125H63.7031C63.8963 7.80492 64.2202 7.40341 64.6747 7.10795C65.1293 6.80871 65.6804 6.65909 66.3281 6.65909C66.9342 6.65909 67.4626 6.79167 67.9134 7.05682C68.3641 7.32197 68.7145 7.70076 68.9645 8.19318C69.2145 8.68182 69.3395 9.26515 69.3395 9.94318V15.5H66.919V10.375C66.9228 9.84091 66.7865 9.42424 66.5099 9.125C66.2334 8.82197 65.8527 8.67045 65.3679 8.67045C65.0421 8.67045 64.7543 8.74053 64.5043 8.88068C64.258 9.02083 64.0649 9.22538 63.9247 9.49432C63.7884 9.75947 63.7183 10.0795 63.7145 10.4545ZM82.2116 9.26136L79.9957 9.39773C79.9579 9.20833 79.8764 9.03788 79.7514 8.88636C79.6264 8.73106 79.4616 8.60795 79.2571 8.51705C79.0563 8.42235 78.8158 8.375 78.5355 8.375C78.1605 8.375 77.8442 8.45455 77.5866 8.61364C77.3291 8.76894 77.2003 8.97727 77.2003 9.23864C77.2003 9.44697 77.2836 9.62311 77.4503 9.76705C77.617 9.91098 77.9029 10.0265 78.3082 10.1136L79.8878 10.4318C80.7363 10.6061 81.3688 10.8864 81.7855 11.2727C82.2022 11.6591 82.4105 12.1667 82.4105 12.7955C82.4105 13.3674 82.242 13.8693 81.9048 14.3011C81.5715 14.733 81.1132 15.0701 80.5298 15.3125C79.9503 15.5511 79.2817 15.6705 78.5241 15.6705C77.3688 15.6705 76.4484 15.4299 75.7628 14.9489C75.081 14.464 74.6813 13.8049 74.5639 12.9716L76.9446 12.8466C77.0166 13.1989 77.1908 13.4678 77.4673 13.6534C77.7438 13.8352 78.098 13.9261 78.5298 13.9261C78.9541 13.9261 79.295 13.8447 79.5526 13.6818C79.8139 13.5152 79.9465 13.3011 79.9503 13.0398C79.9465 12.8201 79.8537 12.6402 79.6719 12.5C79.4901 12.3561 79.2098 12.2462 78.831 12.1705L77.3196 11.8693C76.4673 11.6989 75.8329 11.4034 75.4162 10.983C75.0033 10.5625 74.7969 10.0265 74.7969 9.375C74.7969 8.81439 74.9484 8.33144 75.2514 7.92614C75.5582 7.52083 75.9882 7.20833 76.5412 6.98864C77.098 6.76894 77.7495 6.65909 78.4957 6.65909C79.598 6.65909 80.4654 6.89205 81.098 7.35795C81.7344 7.82386 82.1056 8.45833 82.2116 9.26136ZM86.4233 15.6648C85.8665 15.6648 85.3703 15.5682 84.9347 15.375C84.4991 15.178 84.1544 14.8883 83.9006 14.5057C83.6506 14.1193 83.5256 13.6383 83.5256 13.0625C83.5256 12.5777 83.6146 12.1705 83.7926 11.8409C83.9706 11.5114 84.2131 11.2462 84.5199 11.0455C84.8267 10.8447 85.1752 10.6932 85.5653 10.5909C85.9593 10.4886 86.3722 10.4167 86.804 10.375C87.3116 10.322 87.7206 10.2727 88.0312 10.2273C88.3419 10.178 88.5672 10.1061 88.7074 10.0114C88.8475 9.91667 88.9176 9.77652 88.9176 9.59091V9.55682C88.9176 9.19697 88.804 8.91856 88.5767 8.72159C88.3532 8.52462 88.035 8.42614 87.6222 8.42614C87.1866 8.42614 86.84 8.52273 86.5824 8.71591C86.3248 8.9053 86.1544 9.14394 86.071 9.43182L83.8324 9.25C83.946 8.7197 84.1695 8.26136 84.5028 7.875C84.8362 7.48485 85.2661 7.18561 85.7926 6.97727C86.3229 6.76515 86.9366 6.65909 87.6335 6.65909C88.1184 6.65909 88.5824 6.71591 89.0256 6.82955C89.4725 6.94318 89.8684 7.11932 90.2131 7.35795C90.5616 7.59659 90.8362 7.90341 91.0369 8.27841C91.2377 8.64962 91.3381 9.0947 91.3381 9.61364V15.5H89.0426V14.2898H88.9744C88.8343 14.5625 88.6468 14.803 88.4119 15.0114C88.1771 15.2159 87.8949 15.3769 87.5653 15.4943C87.2358 15.608 86.8551 15.6648 86.4233 15.6648ZM87.1165 13.9943C87.4725 13.9943 87.7869 13.9242 88.0597 13.7841C88.3324 13.6402 88.5464 13.447 88.7017 13.2045C88.857 12.9621 88.9347 12.6875 88.9347 12.3807V11.4545C88.8589 11.5038 88.7547 11.5492 88.6222 11.5909C88.4934 11.6288 88.3475 11.6648 88.1847 11.6989C88.0218 11.7292 87.8589 11.7576 87.696 11.7841C87.5331 11.8068 87.3854 11.8277 87.2528 11.8466C86.9688 11.8883 86.7206 11.9545 86.5085 12.0455C86.2964 12.1364 86.1316 12.2595 86.0142 12.4148C85.8968 12.5663 85.8381 12.7557 85.8381 12.983C85.8381 13.3125 85.9574 13.5644 86.196 13.7386C86.4384 13.9091 86.7453 13.9943 87.1165 13.9943ZM88.9517 4.00568H90.5256C90.5256 4.55871 90.2699 5.00947 89.7585 5.35795C89.2472 5.70265 88.5578 5.875 87.6903 5.875C86.8267 5.875 86.1411 5.70265 85.6335 5.35795C85.1297 5.00947 84.8797 4.55871 84.8835 4.00568H86.429C86.4252 4.22917 86.5199 4.43371 86.7131 4.61932C86.9063 4.80114 87.232 4.89205 87.6903 4.89205C88.1487 4.89205 88.4725 4.80114 88.6619 4.61932C88.8551 4.43371 88.9517 4.22917 88.9517 4.00568ZM87.0312 4.01705L88.0369 2.5625H89.7017L88.2926 4.01705H87.0312ZM93.2159 18.7727V6.77273H95.6023V8.23864H95.7102C95.8163 8.00379 95.9697 7.76515 96.1705 7.52273C96.375 7.27652 96.6402 7.07197 96.9659 6.90909C97.2955 6.74242 97.7045 6.65909 98.1932 6.65909C98.8295 6.65909 99.4167 6.82576 99.9545 7.15909C100.492 7.48864 100.922 7.98674 101.244 8.65341C101.566 9.31629 101.727 10.1477 101.727 11.1477C101.727 12.1212 101.57 12.9432 101.256 13.6136C100.945 14.2803 100.521 14.786 99.983 15.1307C99.4489 15.4716 98.8504 15.642 98.1875 15.642C97.7178 15.642 97.3182 15.5644 96.9886 15.4091C96.6629 15.2538 96.3958 15.0587 96.1875 14.8239C95.9792 14.5852 95.8201 14.3447 95.7102 14.1023H95.6364V18.7727H93.2159ZM95.5852 11.1364C95.5852 11.6553 95.6572 12.108 95.8011 12.4943C95.9451 12.8807 96.1534 13.1818 96.4261 13.3977C96.6989 13.6098 97.0303 13.7159 97.4205 13.7159C97.8144 13.7159 98.1477 13.608 98.4205 13.392C98.6932 13.1723 98.8996 12.8693 99.0398 12.483C99.1837 12.0928 99.2557 11.6439 99.2557 11.1364C99.2557 10.6326 99.1856 10.1894 99.0455 9.80682C98.9053 9.42424 98.6989 9.125 98.4261 8.90909C98.1534 8.69318 97.8182 8.58523 97.4205 8.58523C97.0265 8.58523 96.6932 8.68939 96.4205 8.89773C96.1515 9.10606 95.9451 9.40151 95.8011 9.78409C95.6572 10.1667 95.5852 10.6174 95.5852 11.1364ZM109.464 10.4545V15.5H107.044V3.86364H109.396V8.3125H109.499C109.696 7.79735 110.014 7.39394 110.453 7.10227C110.893 6.80682 111.444 6.65909 112.107 6.65909C112.713 6.65909 113.241 6.79167 113.692 7.05682C114.146 7.31818 114.499 7.69508 114.749 8.1875C115.002 8.67614 115.127 9.26136 115.124 9.94318V15.5H112.703V10.375C112.707 9.83712 112.571 9.41856 112.294 9.11932C112.021 8.82008 111.639 8.67045 111.146 8.67045C110.817 8.67045 110.525 8.74053 110.271 8.88068C110.021 9.02083 109.824 9.22538 109.68 9.49432C109.54 9.75947 109.468 10.0795 109.464 10.4545ZM121.006 15.6705C120.108 15.6705 119.335 15.4886 118.688 15.125C118.044 14.7576 117.547 14.2386 117.199 13.5682C116.85 12.8939 116.676 12.0966 116.676 11.1761C116.676 10.2784 116.85 9.49053 117.199 8.8125C117.547 8.13447 118.038 7.60606 118.67 7.22727C119.307 6.84848 120.053 6.65909 120.909 6.65909C121.485 6.65909 122.021 6.75189 122.517 6.9375C123.017 7.11932 123.453 7.39394 123.824 7.76136C124.199 8.12879 124.491 8.59091 124.699 9.14773C124.907 9.70076 125.011 10.3485 125.011 11.0909V11.7557H117.642V10.2557H122.733C122.733 9.9072 122.657 9.59848 122.506 9.32955C122.354 9.06061 122.144 8.85038 121.875 8.69886C121.61 8.54356 121.301 8.46591 120.949 8.46591C120.581 8.46591 120.256 8.55114 119.972 8.72159C119.691 8.88826 119.472 9.11364 119.312 9.39773C119.153 9.67803 119.072 9.99053 119.068 10.3352V11.7614C119.068 12.1932 119.148 12.5663 119.307 12.8807C119.47 13.1951 119.699 13.4375 119.994 13.608C120.29 13.7784 120.64 13.8636 121.045 13.8636C121.314 13.8636 121.561 13.8258 121.784 13.75C122.008 13.6742 122.199 13.5606 122.358 13.4091C122.517 13.2576 122.638 13.072 122.722 12.8523L124.96 13C124.847 13.5379 124.614 14.0076 124.261 14.4091C123.913 14.8068 123.462 15.1174 122.909 15.3409C122.36 15.5606 121.725 15.6705 121.006 15.6705ZM117.898 5.81818L120.188 4.05114H121.494L123.795 5.81818H122.051L120.852 4.86364L119.636 5.81818H117.898ZM123.199 4.81818L124.528 2.6875H126.403L124.568 4.81818H123.199ZM131.233 6.77273V8.59091H125.977V6.77273H131.233ZM127.17 4.68182H129.591V12.8182C129.591 13.0417 129.625 13.2159 129.693 13.3409C129.761 13.4621 129.856 13.5473 129.977 13.5966C130.102 13.6458 130.246 13.6705 130.409 13.6705C130.523 13.6705 130.636 13.661 130.75 13.642C130.864 13.6193 130.951 13.6023 131.011 13.5909L131.392 15.392C131.271 15.4299 131.1 15.4735 130.881 15.5227C130.661 15.5758 130.394 15.608 130.08 15.6193C129.496 15.642 128.985 15.5644 128.545 15.3864C128.11 15.2083 127.771 14.9318 127.528 14.5568C127.286 14.1818 127.167 13.7083 127.17 13.1364V4.68182ZM138.933 10.4545V15.5H136.513V3.86364H138.865V8.3125H138.967C139.164 7.79735 139.482 7.39394 139.922 7.10227C140.361 6.80682 140.912 6.65909 141.575 6.65909C142.181 6.65909 142.71 6.79167 143.161 7.05682C143.615 7.31818 143.967 7.69508 144.217 8.1875C144.471 8.67614 144.596 9.26136 144.592 9.94318V15.5H142.172V10.375C142.176 9.83712 142.039 9.41856 141.763 9.11932C141.49 8.82008 141.107 8.67045 140.615 8.67045C140.286 8.67045 139.994 8.74053 139.74 8.88068C139.49 9.02083 139.293 9.22538 139.149 9.49432C139.009 9.75947 138.937 10.0795 138.933 10.4545ZM148.986 15.6648C148.429 15.6648 147.933 15.5682 147.497 15.375C147.062 15.178 146.717 14.8883 146.463 14.5057C146.213 14.1193 146.088 13.6383 146.088 13.0625C146.088 12.5777 146.177 12.1705 146.355 11.8409C146.533 11.5114 146.776 11.2462 147.082 11.0455C147.389 10.8447 147.738 10.6932 148.128 10.5909C148.522 10.4886 148.935 10.4167 149.366 10.375C149.874 10.322 150.283 10.2727 150.594 10.2273C150.904 10.178 151.13 10.1061 151.27 10.0114C151.41 9.91667 151.48 9.77652 151.48 9.59091V9.55682C151.48 9.19697 151.366 8.91856 151.139 8.72159C150.916 8.52462 150.598 8.42614 150.185 8.42614C149.749 8.42614 149.402 8.52273 149.145 8.71591C148.887 8.9053 148.717 9.14394 148.634 9.43182L146.395 9.25C146.509 8.7197 146.732 8.26136 147.065 7.875C147.399 7.48485 147.829 7.18561 148.355 6.97727C148.885 6.76515 149.499 6.65909 150.196 6.65909C150.681 6.65909 151.145 6.71591 151.588 6.82955C152.035 6.94318 152.431 7.11932 152.776 7.35795C153.124 7.59659 153.399 7.90341 153.599 8.27841C153.8 8.64962 153.901 9.0947 153.901 9.61364V15.5H151.605V14.2898H151.537C151.397 14.5625 151.209 14.803 150.974 15.0114C150.74 15.2159 150.457 15.3769 150.128 15.4943C149.798 15.608 149.418 15.6648 148.986 15.6648ZM149.679 13.9943C150.035 13.9943 150.349 13.9242 150.622 13.7841C150.895 13.6402 151.109 13.447 151.264 13.2045C151.42 12.9621 151.497 12.6875 151.497 12.3807V11.4545C151.421 11.5038 151.317 11.5492 151.185 11.5909C151.056 11.6288 150.91 11.6648 150.747 11.6989C150.584 11.7292 150.421 11.7576 150.259 11.7841C150.096 11.8068 149.948 11.8277 149.815 11.8466C149.531 11.8883 149.283 11.9545 149.071 12.0455C148.859 12.1364 148.694 12.2595 148.577 12.4148C148.459 12.5663 148.401 12.7557 148.401 12.983C148.401 13.3125 148.52 13.5644 148.759 13.7386C149.001 13.9091 149.308 13.9943 149.679 13.9943ZM150.19 18.767C149.83 18.767 149.522 18.6477 149.264 18.4091C149.007 18.1705 148.878 17.8826 148.878 17.5455C148.878 17.2083 149.007 16.9205 149.264 16.6818C149.522 16.4432 149.83 16.3239 150.19 16.3239C150.55 16.3239 150.857 16.4432 151.111 16.6818C151.368 16.9205 151.497 17.2083 151.497 17.5455C151.497 17.8826 151.368 18.1705 151.111 18.4091C150.857 18.6477 150.55 18.767 150.19 18.767ZM158.199 10.4545V15.5H155.778V6.77273H158.085V8.3125H158.188C158.381 7.80492 158.705 7.40341 159.159 7.10795C159.614 6.80871 160.165 6.65909 160.812 6.65909C161.419 6.65909 161.947 6.79167 162.398 7.05682C162.848 7.32197 163.199 7.70076 163.449 8.19318C163.699 8.68182 163.824 9.26515 163.824 9.94318V15.5H161.403V10.375C161.407 9.84091 161.271 9.42424 160.994 9.125C160.718 8.82197 160.337 8.67045 159.852 8.67045C159.527 8.67045 159.239 8.74053 158.989 8.88068C158.742 9.02083 158.549 9.22538 158.409 9.49432C158.273 9.75947 158.203 10.0795 158.199 10.4545Z" fill="#333333"/>
</svg>
