<svg width="25" height="25" viewBox="0 0 25 25" fill="none" xmlns="http://www.w3.org/2000/svg">
<path d="M12.0404 22.4154C11.6745 22.3879 11.3002 22.3677 10.9375 22.3339C9.53428 22.2637 8.15263 21.9596 6.84963 21.4341C6.22267 21.1804 5.6589 20.7924 5.19798 20.2974C5.07556 20.1787 4.9862 20.0302 4.93873 19.8665C4.89126 19.7027 4.88731 19.5294 4.92728 19.3637C5.09098 18.4872 5.3638 17.6347 5.73937 16.826C5.94262 16.3825 6.27844 16.0131 6.70053 15.7686C7.85098 15.1341 8.99684 14.4958 10.1381 13.8536C10.2033 13.8098 10.2811 13.7887 10.3596 13.7937C10.438 13.7987 10.5125 13.8294 10.5716 13.8811C11.0061 14.2195 11.5063 14.4637 12.0404 14.5981C12.1161 14.6149 12.1857 14.6521 12.2417 14.7058C12.2976 14.7595 12.3377 14.8276 12.3576 14.9026C12.5268 15.3562 12.7023 15.8024 12.8863 16.2899C12.9265 16.2021 12.9539 16.1545 12.974 16.107C13.1295 15.7073 13.2849 15.315 13.4277 14.9089C13.4496 14.8312 13.4919 14.7608 13.5503 14.705C13.6087 14.6492 13.681 14.61 13.7597 14.5917C14.2882 14.4603 14.7837 14.2205 15.2147 13.8875C15.2732 13.8354 15.3468 13.8034 15.4248 13.7961C15.5028 13.7889 15.5811 13.8068 15.6482 13.8473C16.7648 14.4701 17.8814 15.0992 19.0043 15.7083C19.5401 16.0163 19.9571 16.4951 20.1886 17.0681C20.5307 17.871 20.7674 18.7147 20.8928 19.5784C20.9054 19.6713 20.8981 19.7659 20.8713 19.8557C20.8445 19.9456 20.7988 20.0288 20.7374 20.0997C20.3863 20.5675 19.9294 20.9454 19.404 21.2025C18.3234 21.7488 17.1512 22.0907 15.9464 22.2113C15.2559 22.299 14.5527 22.3329 13.8622 22.3868C13.8233 22.3902 13.7848 22.3969 13.747 22.4069C13.1771 22.4153 12.6082 22.4154 12.0404 22.4154ZM14.8826 18.0906H17.6318V17.5291H14.8826V18.0906Z" fill="#555555"/>
<path d="M16.6083 11.2292C16.2911 11.2768 15.959 11.3349 15.627 11.3645C15.2146 11.3984 14.8012 11.4047 14.3888 11.4121C14.3041 11.3973 14.2222 11.3698 14.1456 11.3307C14.1393 11.3307 14.1393 11.3243 14.1319 11.3169C13.8024 11.1632 13.4433 11.0835 13.0797 11.0835C12.7162 11.0835 12.3571 11.1632 12.0276 11.3169C11.8491 11.4464 11.7134 11.6264 11.638 11.8337C11.5627 12.041 11.5511 12.2661 11.6047 12.4801C11.6579 12.6995 11.7781 12.8969 11.9487 13.0449C12.1192 13.1929 12.3316 13.2841 12.5563 13.3059C12.9011 13.3334 13.2532 13.3196 13.6053 13.3122C13.7154 13.3153 13.8239 13.2847 13.9161 13.2245C14.1184 13.1063 14.3542 13.0587 14.5865 13.0891H15.4938C15.2823 13.252 15.0941 13.4064 14.8847 13.5428C14.359 13.9264 13.7438 14.1688 13.0977 14.247C12.4388 14.2753 11.7877 14.0955 11.2367 13.7331C10.3346 13.2318 9.60733 12.4666 9.1526 11.5401C9.12547 11.4943 9.11002 11.4426 9.10762 11.3895C9.10522 11.3364 9.11595 11.2835 9.13886 11.2355C9.2038 11.0665 9.23954 10.8878 9.24459 10.7068C9.25833 9.79323 9.25093 8.87965 9.25093 7.96607C9.25283 7.70139 9.17228 7.44269 9.02043 7.2259C8.98829 7.1878 8.96936 7.1403 8.96649 7.09054C9.01102 6.35827 9.26826 5.65491 9.70666 5.06669C10.1853 4.5376 10.8392 4.19957 11.5476 4.11504C12.4932 3.95035 13.4611 3.96183 14.4026 4.14888C14.9562 4.22272 15.4725 4.46899 15.8782 4.85275C16.284 5.23651 16.5587 5.73829 16.6633 6.28692C16.6971 6.42227 16.7309 6.55128 16.7584 6.68662C16.7992 6.80724 16.8125 6.93547 16.7973 7.0619C16.7822 7.18833 16.7389 7.30976 16.6707 7.41728C16.5789 7.58025 16.5343 7.76547 16.5416 7.95232C16.5279 8.87225 16.5353 9.79323 16.5416 10.7015C16.5549 10.8784 16.5772 11.0545 16.6083 11.2292Z" fill="#555555"/>
<path d="M17.5684 11.4397C17.4089 11.3687 17.2755 11.2496 17.1869 11.0991C17.0984 10.9485 17.0591 10.7741 17.0746 10.6001C17.0884 9.74787 17.081 8.88821 17.0746 8.03489C17.0645 7.9181 17.0826 7.80058 17.1273 7.69221C17.172 7.58384 17.2421 7.48778 17.3316 7.41209C17.3498 7.39609 17.3641 7.37616 17.3734 7.35381C17.3828 7.33146 17.3869 7.30727 17.3855 7.28309C17.3313 6.56639 17.143 5.86623 16.8304 5.21906C16.6239 4.83227 16.3351 4.49548 15.9843 4.2324C15.6335 3.96932 15.2293 3.78636 14.8002 3.69642C13.5696 3.39066 12.2835 3.38595 11.0507 3.68267C10.4187 3.8149 9.84142 4.13505 9.39459 4.60112C8.94776 5.0672 8.65224 5.65744 8.54677 6.29443C8.49919 6.49111 8.46534 6.68672 8.4315 6.8834C8.39767 7.1266 8.32577 7.36345 8.5732 7.56647C8.66117 7.67753 8.70453 7.81742 8.6948 7.95876C8.70855 8.87869 8.70114 9.79968 8.70114 10.708C8.70598 10.7973 8.69229 10.8866 8.66095 10.9703C8.62961 11.054 8.5813 11.1304 8.51903 11.1945C8.45677 11.2587 8.38191 11.3092 8.29915 11.3431C8.2164 11.3769 8.12753 11.3932 8.03816 11.3911C7.72024 11.4045 7.40301 11.4045 7.0865 11.3911C6.99519 11.3937 6.90434 11.3773 6.8197 11.343C6.73505 11.3086 6.65847 11.2571 6.59483 11.1915C6.53119 11.126 6.48188 11.048 6.45002 10.9623C6.41816 10.8767 6.40445 10.7854 6.40977 10.6942C6.40272 9.77783 6.40272 8.86425 6.40977 7.95348C6.40443 7.86396 6.41747 7.7743 6.44805 7.69C6.47864 7.60571 6.52615 7.52856 6.58765 7.4633C6.64915 7.39803 6.72334 7.34604 6.80568 7.3105C6.88801 7.27497 6.97674 7.25664 7.06641 7.25665C7.13179 7.24986 7.19771 7.24986 7.26309 7.25665C7.39844 7.2704 7.45236 7.22916 7.46611 7.08113C7.52649 6.37139 7.70258 5.67632 7.9874 5.02344C8.239 4.45538 8.62161 3.95501 9.10389 3.56334C9.58617 3.17167 10.1544 2.89985 10.762 2.77014C12.2109 2.39882 13.7314 2.41048 15.1745 2.80398C15.9228 2.9955 16.6001 3.39868 17.1252 3.96522C17.6503 4.53176 18.001 5.23765 18.1352 5.99835C18.223 6.36421 18.2769 6.73853 18.3319 7.10862C18.3456 7.22388 18.3794 7.27146 18.501 7.26406C18.6049 7.25852 18.709 7.26313 18.8119 7.27781C18.969 7.29443 19.1145 7.36829 19.2205 7.4853C19.3266 7.60232 19.3859 7.75429 19.3871 7.91224C19.3935 8.86389 19.3935 9.80074 19.3871 10.7482C19.3879 10.8377 19.3699 10.9264 19.3345 11.0087C19.2992 11.091 19.247 11.165 19.1815 11.226C19.116 11.2871 19.0385 11.3338 18.9539 11.3633C18.8694 11.3928 18.7796 11.4044 18.6903 11.3974C18.6093 11.3945 18.5287 11.4108 18.4552 11.445C18.3817 11.4792 18.3174 11.5303 18.2674 11.5941C17.8913 11.9641 17.4121 12.2118 16.8928 12.3046C15.9925 12.4971 15.0721 12.5788 14.152 12.5478C14.0437 12.5676 13.939 12.6032 13.8411 12.6536C13.7261 12.7061 13.606 12.7469 13.4827 12.7752C13.2168 12.7909 12.9504 12.793 12.6843 12.7815C12.5344 12.7815 12.3907 12.722 12.2847 12.616C12.1787 12.51 12.1192 12.3662 12.1192 12.2163C12.1192 12.0665 12.1787 11.9227 12.2847 11.8167C12.3907 11.7107 12.5344 11.6512 12.6843 11.6512C12.9481 11.6329 13.2129 11.6351 13.4763 11.6575C13.6321 11.7004 13.7804 11.7667 13.9162 11.8542C13.9775 11.8817 14.0315 11.9494 14.0854 11.9494C15.0037 11.9941 15.9238 11.9123 16.8198 11.7062C17.0757 11.6365 17.326 11.5474 17.5684 11.4397Z" fill="#555555"/>
</svg>
