<svg width="393" height="852" viewBox="0 0 393 852" fill="none" xmlns="http://www.w3.org/2000/svg">
<g clip-path="url(#clip0_238_4111)">
<rect width="393" height="852" fill="white"/>
<path d="M52.1996 23.2045C52.7185 23.2083 53.2299 23.303 53.7337 23.4886C54.2375 23.6742 54.692 23.9773 55.0973 24.3977C55.5064 24.8182 55.8321 25.3864 56.0746 26.1023C56.3208 26.8144 56.4458 27.7008 56.4496 28.7614C56.4496 29.7803 56.3473 30.6875 56.1428 31.483C55.9382 32.2746 55.6446 32.9432 55.2621 33.4886C54.8833 34.0341 54.4231 34.4489 53.8814 34.733C53.3397 35.017 52.7299 35.1591 52.0518 35.1591C51.3587 35.1591 50.7431 35.0227 50.2053 34.75C49.6674 34.4773 49.2299 34.1004 48.8928 33.6193C48.5556 33.1345 48.3454 32.5777 48.2621 31.9489H49.995C50.1087 32.4489 50.3397 32.8542 50.6882 33.1648C51.0405 33.4716 51.495 33.625 52.0518 33.625C52.9041 33.625 53.5689 33.2538 54.0462 32.5114C54.5234 31.7652 54.764 30.7235 54.7678 29.3864H54.6768C54.4799 29.7121 54.2337 29.9924 53.9382 30.2273C53.6465 30.4621 53.3189 30.6439 52.9553 30.7727C52.5916 30.9015 52.2034 30.9659 51.7905 30.9659C51.12 30.9659 50.5102 30.8011 49.9609 30.4716C49.4117 30.142 48.9742 29.6894 48.6484 29.1136C48.3227 28.5379 48.1598 27.8807 48.1598 27.142C48.1598 26.4072 48.3265 25.7405 48.6598 25.142C48.9969 24.5436 49.4666 24.0701 50.0689 23.7216C50.675 23.3693 51.3852 23.197 52.1996 23.2045ZM52.2053 24.6818C51.7621 24.6818 51.3625 24.7917 51.0064 25.0114C50.6541 25.2273 50.3757 25.5208 50.1712 25.892C49.9666 26.2595 49.8643 26.6686 49.8643 27.1193C49.8643 27.5701 49.9628 27.9792 50.1598 28.3466C50.3606 28.7102 50.6333 29 50.978 29.2159C51.3265 29.428 51.7242 29.5341 52.1712 29.5341C52.5045 29.5341 52.8151 29.4697 53.103 29.3409C53.3909 29.2121 53.6428 29.0341 53.8587 28.8068C54.0746 28.5758 54.2431 28.3144 54.3643 28.0227C54.4856 27.7311 54.5462 27.4242 54.5462 27.1023C54.5462 26.6742 54.4439 26.2765 54.2393 25.9091C54.0386 25.5417 53.7621 25.2462 53.4098 25.0227C53.0575 24.7955 52.656 24.6818 52.2053 24.6818ZM59.6442 33.5568C59.3336 33.5568 59.0665 33.447 58.843 33.2273C58.6196 33.0038 58.5078 32.7348 58.5078 32.4205C58.5078 32.1098 58.6196 31.8447 58.843 31.625C59.0665 31.4015 59.3336 31.2898 59.6442 31.2898C59.9548 31.2898 60.2218 31.4015 60.4453 31.625C60.6688 31.8447 60.7805 32.1098 60.7805 32.4205C60.7805 32.6288 60.7275 32.8201 60.6214 32.9943C60.5192 33.1648 60.3828 33.3011 60.2124 33.4034C60.0419 33.5057 59.8525 33.5568 59.6442 33.5568ZM59.6442 27.7273C59.3336 27.7273 59.0665 27.6174 58.843 27.3977C58.6196 27.1742 58.5078 26.9053 58.5078 26.5909C58.5078 26.2803 58.6196 26.0152 58.843 25.7955C59.0665 25.572 59.3336 25.4602 59.6442 25.4602C59.9548 25.4602 60.2218 25.572 60.4453 25.7955C60.6688 26.0152 60.7805 26.2803 60.7805 26.5909C60.7805 26.7992 60.7275 26.9905 60.6214 27.1648C60.5192 27.3352 60.3828 27.4716 60.2124 27.5739C60.0419 27.6761 59.8525 27.7273 59.6442 27.7273ZM62.7891 32.7273V31.3068L67.8175 23.3636H68.9368V25.4545H68.2266L64.63 31.1477V31.2386H71.522V32.7273H62.7891ZM68.3061 35V32.2955L68.3175 31.6477V23.3636H69.9822V35H68.3061ZM77.7607 23.3636V35H75.9993V25.125H75.9311L73.147 26.9432V25.2614L76.0504 23.3636H77.7607Z" fill="black"/>
<rect x="308" y="24" width="3" height="10" rx="1" fill="black"/>
<rect x="293" y="30" width="3" height="4" rx="1" fill="black"/>
<rect x="298" y="28" width="3" height="6" rx="1" fill="black"/>
<rect x="303" y="26" width="3" height="8" rx="1" fill="black"/>
<path d="M325.646 34.6464L323.743 32.7427C323.619 32.6194 323.645 32.4131 323.794 32.3234C325.152 31.5088 326.848 31.5088 328.206 32.3234C328.355 32.4131 328.381 32.6194 328.257 32.7427L326.354 34.6464C326.158 34.8417 325.842 34.8417 325.646 34.6464Z" fill="black"/>
<path d="M321.324 30.3244L322.294 31.2938C322.41 31.4102 322.596 31.4173 322.721 31.3102C324.608 29.6931 327.392 29.6931 329.279 31.3102C329.404 31.4173 329.59 31.4102 329.706 31.2938L330.676 30.3244C330.852 30.1481 330.844 29.8599 330.659 29.6931C328.01 27.3093 323.99 27.3093 321.341 29.6931C321.156 29.8599 321.148 30.1481 321.324 30.3244Z" fill="black"/>
<path d="M318.392 27.392L319.237 28.2367C319.387 28.3873 319.626 28.4029 319.795 28.273C323.453 25.4591 328.547 25.4591 332.205 28.273C332.374 28.4029 332.613 28.3873 332.763 28.2367L333.608 27.392C333.818 27.1824 333.8 26.8373 333.57 26.6503C329.161 23.0681 322.839 23.0681 318.43 26.6503C318.2 26.8373 318.182 27.1824 318.392 27.392Z" fill="black"/>
<rect opacity="0.3" x="337.5" y="23.5" width="22" height="11" rx="2.5" stroke="black"/>
<rect x="339" y="25" width="19" height="8" rx="1" fill="black"/>
<path opacity="0.3" d="M361 31C362.105 31 363 30.1046 363 29C363 27.8954 362.105 27 361 27V31Z" fill="black"/>
<rect x="197" y="-204.37" width="891.217" height="891.217" rx="31" transform="rotate(45 197 -204.37)" fill="url(#paint0_linear_238_4111)"/>
<g clip-path="url(#clip1_238_4111)">
<path d="M158.734 500.626C159.358 500.884 159.669 501.401 159.669 502.073C159.669 502.641 159.462 503.054 159.098 503.313C158.734 503.623 158.266 503.778 157.694 503.778H155.2V497.628H157.538C158.11 497.628 158.578 497.783 158.942 498.042C159.306 498.352 159.462 498.765 159.462 499.282C159.514 499.902 159.254 500.367 158.734 500.626ZM156.031 498.352V500.367H157.59C157.902 500.367 158.214 500.264 158.422 500.109C158.63 499.954 158.734 499.695 158.734 499.334C158.734 498.972 158.63 498.714 158.422 498.558C158.214 498.403 157.954 498.3 157.59 498.3H156.031V498.352ZM157.694 503.054C158.006 503.054 158.266 502.951 158.526 502.796C158.734 502.641 158.89 502.383 158.89 502.021C158.89 501.659 158.786 501.401 158.526 501.246C158.318 501.091 158.006 500.987 157.694 500.987H156.031V503.054H157.694Z" fill="white"/>
<path d="M164.191 503.83C163.62 503.83 163.1 503.623 162.684 503.158C162.268 502.744 162.06 502.176 162.06 501.556C162.06 500.936 162.268 500.367 162.684 499.954C163.1 499.54 163.568 499.282 164.191 499.282C164.919 499.282 165.439 499.54 165.906 500.005V499.334H166.686V503.675H165.906V503.054C165.439 503.623 164.867 503.83 164.191 503.83ZM163.308 502.693C163.62 503.003 163.931 503.158 164.399 503.158C164.815 503.158 165.179 503.003 165.491 502.693C165.803 502.383 165.906 502.021 165.906 501.607C165.906 501.194 165.751 500.832 165.491 500.522C165.179 500.212 164.867 500.057 164.399 500.057C163.983 500.057 163.62 500.212 163.308 500.522C162.996 500.832 162.892 501.194 162.892 501.607C162.892 502.021 162.996 502.383 163.308 502.693Z" fill="white"/>
<path d="M171.572 503.778C171.156 503.778 170.792 503.675 170.532 503.416C170.272 503.158 170.168 502.848 170.168 502.434V500.109H169.129V499.437H170.168V498.145H170.948V499.437H172.195V500.109H170.948V502.279C170.948 502.796 171.208 503.054 171.728 503.054C171.884 503.054 172.04 503.003 172.247 502.951L172.351 503.623C172.04 503.778 171.78 503.778 171.572 503.778Z" fill="white"/>
<path d="M175.054 503.778V497.628H177.289C178.173 497.628 178.9 497.887 179.472 498.455C180.044 499.024 180.356 499.747 180.356 500.729C180.356 501.659 180.044 502.434 179.472 503.003C178.9 503.571 178.173 503.83 177.289 503.83H175.054V503.778ZM175.886 502.951H177.289C177.965 502.951 178.484 502.744 178.9 502.331C179.316 501.917 179.524 501.349 179.524 500.626C179.524 499.902 179.316 499.334 178.9 498.972C178.484 498.558 177.913 498.403 177.289 498.403H175.886V502.951Z" fill="white"/>
<path d="M186.748 503.209C186.281 503.675 185.761 503.881 185.085 503.881C184.462 503.881 183.89 503.675 183.474 503.209C183.006 502.744 182.798 502.228 182.798 501.607C182.798 500.987 183.006 500.419 183.474 500.005C183.942 499.54 184.462 499.334 185.085 499.334C185.709 499.334 186.281 499.54 186.748 500.005C187.216 500.471 187.424 500.987 187.424 501.607C187.424 502.228 187.164 502.796 186.748 503.209ZM184.046 502.693C184.306 503.003 184.669 503.158 185.085 503.158C185.501 503.158 185.865 503.003 186.125 502.693C186.437 502.383 186.541 502.021 186.541 501.607C186.541 501.194 186.385 500.832 186.125 500.522C185.813 500.212 185.501 500.057 185.085 500.057C184.669 500.057 184.306 500.212 184.046 500.522C183.734 500.832 183.63 501.194 183.63 501.607C183.63 502.021 183.734 502.383 184.046 502.693Z" fill="white"/>
<path d="M190.023 503.778V499.437H190.803V500.005C191.166 499.592 191.634 499.385 192.206 499.385C192.778 499.385 193.245 499.592 193.609 499.954C193.973 500.316 194.129 500.884 194.129 501.556V503.778H193.349V501.607C193.349 501.091 193.245 500.729 192.985 500.471C192.778 500.212 192.466 500.109 192.102 500.109C191.738 500.109 191.374 500.264 191.166 500.522C190.958 500.781 190.803 501.194 190.803 501.711V503.83H190.023V503.778Z" fill="white"/>
<path d="M198.859 506C198.391 506 197.975 505.897 197.611 505.742C197.247 505.535 196.936 505.277 196.728 504.966L197.299 504.45C197.663 504.966 198.235 505.277 198.911 505.277C199.326 505.277 199.69 505.122 200.002 504.863C200.314 504.605 200.47 504.191 200.47 503.675V503.209C200.106 503.675 199.534 503.933 198.807 503.933C198.183 503.933 197.663 503.726 197.299 503.313C196.884 502.899 196.676 502.331 196.676 501.711C196.676 501.091 196.884 500.522 197.299 500.109C197.715 499.695 198.235 499.437 198.807 499.437C199.482 499.437 200.054 499.695 200.47 500.16V499.489H201.249V503.623C201.249 504.398 201.042 504.966 200.574 505.38C200.106 505.742 199.534 505.948 198.859 506ZM197.871 502.693C198.131 503.003 198.495 503.158 198.911 503.158C199.326 503.158 199.69 503.003 200.002 502.693C200.314 502.383 200.418 502.021 200.418 501.607C200.418 501.194 200.262 500.832 200.002 500.522C199.69 500.212 199.378 500.057 198.911 500.057C198.443 500.057 198.131 500.212 197.871 500.522C197.611 500.832 197.455 501.194 197.455 501.607C197.455 502.021 197.611 502.383 197.871 502.693Z" fill="white"/>
<path d="M206.187 503.881C205.615 503.881 205.096 503.726 204.68 503.468C204.264 503.158 203.952 502.796 203.796 502.279L204.628 502.073C204.732 502.434 204.94 502.693 205.2 502.848C205.511 503.054 205.823 503.106 206.187 503.106C206.603 503.106 206.915 503.003 207.175 502.848C207.435 502.641 207.538 502.434 207.538 502.124C207.538 502.021 207.538 501.917 207.486 501.814C207.435 501.711 207.383 501.659 207.331 501.607C207.279 501.556 207.175 501.504 207.123 501.452C207.071 501.401 206.967 501.349 206.863 501.297C206.759 501.246 206.655 501.246 206.551 501.194C206.499 501.194 206.343 501.142 206.187 501.091C206.031 501.039 205.927 501.039 205.875 500.987C205.667 500.936 205.563 500.884 205.459 500.884C205.356 500.884 205.252 500.832 205.096 500.781C204.94 500.729 204.784 500.677 204.68 500.626C204.576 500.574 204.472 500.522 204.368 500.419C204.264 500.316 204.16 500.212 204.108 500.109C204.056 500.005 204.004 499.902 203.952 499.747C203.9 499.592 203.9 499.437 203.9 499.282C203.9 498.765 204.108 498.352 204.524 498.042C204.94 497.68 205.459 497.525 206.031 497.525C206.551 497.525 207.019 497.68 207.383 497.938C207.746 498.197 208.006 498.61 208.162 499.075L207.383 499.282C207.175 498.61 206.707 498.248 206.031 498.248C205.667 498.248 205.304 498.352 205.096 498.558C204.836 498.765 204.732 499.024 204.732 499.282C204.732 499.385 204.732 499.437 204.784 499.489C204.836 499.54 204.836 499.644 204.888 499.695C204.94 499.747 204.992 499.799 204.992 499.85C205.044 499.902 205.096 499.954 205.148 499.954C205.252 500.005 205.304 500.005 205.356 500.057C205.407 500.109 205.459 500.109 205.563 500.16C205.667 500.212 205.771 500.212 205.823 500.212C205.875 500.212 205.979 500.264 206.083 500.264C206.187 500.315 206.291 500.316 206.343 500.316C206.395 500.316 206.447 500.367 206.499 500.367C206.759 500.419 206.915 500.471 207.019 500.522C207.123 500.574 207.331 500.626 207.486 500.729C207.694 500.832 207.85 500.936 207.954 501.039C208.058 501.142 208.162 501.297 208.214 501.452C208.318 501.607 208.318 501.814 208.318 502.021C208.318 502.589 208.11 503.003 207.694 503.313C207.383 503.726 206.863 503.881 206.187 503.881Z" fill="white"/>
<path d="M212.892 503.83C212.32 503.83 211.8 503.623 211.385 503.158C210.969 502.744 210.761 502.176 210.761 501.556C210.761 500.936 210.969 500.367 211.385 499.954C211.8 499.54 212.268 499.282 212.892 499.282C213.62 499.282 214.139 499.54 214.607 500.005V499.334H215.387V503.675H214.607V503.054C214.139 503.623 213.568 503.83 212.892 503.83ZM212.008 502.693C212.32 503.003 212.632 503.158 213.1 503.158C213.516 503.158 213.879 503.003 214.191 502.693C214.503 502.383 214.607 502.021 214.607 501.607C214.607 501.194 214.451 500.832 214.191 500.522C213.879 500.212 213.568 500.057 213.1 500.057C212.684 500.057 212.32 500.212 212.008 500.522C211.696 500.832 211.593 501.194 211.593 501.607C211.593 502.021 211.696 502.383 212.008 502.693Z" fill="white"/>
<path d="M218.193 503.778V499.437H218.973V500.005C219.337 499.592 219.805 499.385 220.376 499.385C220.948 499.385 221.416 499.592 221.78 499.954C222.143 500.316 222.299 500.884 222.299 501.556V503.778H221.52V501.607C221.52 501.091 221.416 500.729 221.156 500.471C220.948 500.212 220.636 500.109 220.272 500.109C219.909 500.109 219.545 500.264 219.337 500.522C219.077 500.781 218.973 501.194 218.973 501.711V503.83H218.193V503.778Z" fill="white"/>
<path d="M167.362 494.786C163.775 494.786 160.761 493.546 158.318 491.065C155.875 488.585 154.628 485.536 154.628 482.022C154.628 478.456 155.875 475.459 158.318 472.978C160.761 470.498 163.827 469.257 167.362 469.257C169.753 469.257 171.936 469.878 173.963 471.066C175.054 471.738 175.99 472.513 176.769 473.392C177.809 474.58 177.445 476.441 176.042 477.164L175.678 477.371C174.638 477.888 173.495 477.578 172.663 476.802C172.195 476.337 171.728 475.924 171.156 475.614C170.012 474.942 168.765 474.58 167.362 474.58C165.283 474.58 163.516 475.304 162.112 476.751C160.709 478.198 159.981 479.955 159.981 482.073C159.981 484.141 160.709 485.949 162.112 487.396C163.568 488.843 165.283 489.567 167.362 489.567C168.765 489.567 170.064 489.205 171.208 488.533C171.78 488.171 172.299 487.758 172.715 487.293C173.495 486.466 174.69 486.156 175.73 486.673L176.042 486.828C177.497 487.551 177.861 489.463 176.821 490.652C175.99 491.582 175.054 492.357 173.963 493.029C171.988 494.166 169.805 494.786 167.362 494.786Z" fill="white"/>
<path d="M181.915 491.944V470.291C181.915 468.896 183.058 467.811 184.41 467.811C185.813 467.811 186.904 468.947 186.904 470.291V478.921C188.204 477.422 189.919 476.647 192.154 476.647C194.441 476.647 196.312 477.422 197.715 478.921C199.119 480.42 199.794 482.59 199.794 485.329V491.995C199.794 493.391 198.651 494.476 197.299 494.476C195.896 494.476 194.805 493.339 194.805 491.995V485.743C194.805 484.192 194.441 483.004 193.765 482.177C193.037 481.35 192.102 480.937 190.958 480.937C189.711 480.937 188.724 481.35 187.996 482.228C187.268 483.107 186.904 484.296 186.904 485.846V491.995C186.904 493.391 185.761 494.476 184.41 494.476C183.006 494.424 181.915 493.287 181.915 491.944Z" fill="white"/>
<path d="M219.285 492.202C217.414 494.011 215.179 494.941 212.528 494.941C209.929 494.941 207.642 494.011 205.771 492.202C203.9 490.393 202.965 488.171 202.965 485.587C202.965 483.004 203.9 480.782 205.771 478.973C207.642 477.112 209.877 476.234 212.528 476.234C215.127 476.234 217.414 477.164 219.285 478.973C221.156 480.833 222.091 483.004 222.091 485.587C222.091 488.171 221.156 490.393 219.285 492.202ZM212.528 490.238C213.723 490.238 214.763 489.825 215.595 488.947C216.426 488.068 216.842 486.931 216.842 485.639C216.842 484.296 216.426 483.159 215.595 482.28C214.763 481.402 213.723 480.937 212.528 480.988C211.333 480.988 210.293 481.402 209.41 482.28C208.578 483.159 208.162 484.296 208.162 485.639C208.162 486.983 208.578 488.068 209.41 488.947C210.241 489.825 211.333 490.29 212.528 490.238Z" fill="white"/>
<path d="M234.358 494.476C232.331 494.476 230.667 493.908 229.42 492.771C228.173 491.634 227.549 490.083 227.549 488.223V481.195H225.99C224.794 481.195 223.807 480.213 223.807 479.024C223.807 477.836 224.794 476.854 225.99 476.854H227.549V474.167C227.549 472.823 228.64 471.738 229.992 471.738C231.343 471.738 232.435 472.823 232.435 474.167V476.854H235.189C236.385 476.854 237.372 477.836 237.372 479.024C237.372 480.213 236.385 481.195 235.189 481.195H232.435V487.138C232.435 489.05 233.422 489.98 235.449 489.98C236.021 489.98 237.164 489.773 237.32 489.567V491.479C237.424 493.132 236.021 494.476 234.358 494.476Z" fill="white"/>
<path d="M236.437 497.112H225.782C225.262 497.112 224.846 497.525 224.846 498.042V505.018C224.846 505.535 225.262 505.948 225.782 505.948H236.437C236.956 505.948 237.372 505.535 237.372 505.018V498.042C237.424 497.577 237.008 497.112 236.437 497.112ZM226.457 503.726C226.353 503.83 226.25 503.881 226.094 503.881C225.938 503.881 225.834 503.83 225.73 503.726C225.626 503.623 225.574 503.519 225.574 503.364C225.574 503.209 225.626 503.106 225.73 503.003C225.834 502.899 225.938 502.848 226.094 502.848C226.25 502.848 226.353 502.899 226.457 503.003C226.561 503.106 226.613 503.209 226.613 503.364C226.613 503.468 226.561 503.623 226.457 503.726ZM229.784 503.778H228.9L227.029 499.334H227.861L229.316 502.951L230.771 499.334H231.603L229.784 503.778ZM236.437 503.778H235.605V501.556C235.605 501.039 235.501 500.626 235.241 500.367C235.033 500.109 234.721 499.954 234.358 499.954C233.942 499.954 233.63 500.109 233.422 500.367C233.162 500.626 233.058 501.039 233.058 501.556V503.726H232.279V499.282H233.11V499.85C233.474 499.437 233.942 499.179 234.514 499.179C235.085 499.179 235.605 499.385 235.917 499.747C236.281 500.109 236.437 500.677 236.437 501.401V503.778Z" fill="white"/>
<path d="M236.541 416.133C236.541 420.061 235.553 423.782 233.786 426.985L224.274 436.442C221 438.199 217.31 439.181 213.36 439.181C206.447 439.181 200.21 436.184 196 431.378L228.692 398.821C233.526 403.059 236.541 409.26 236.541 416.133Z" fill="url(#paint1_linear_238_4111)"/>
<path d="M224.326 436.442L201.665 458.974C198.547 462.074 193.453 462.074 190.335 458.974L148.339 417.218C147.455 416.34 146.832 415.358 146.468 414.17C146.156 413.343 146 412.464 146 411.586V384.714C146 383.835 146.156 382.956 146.468 382.13L196 431.378L196.052 431.43C200.314 436.184 206.499 439.233 213.412 439.233C217.362 439.181 221.104 438.199 224.326 436.442Z" fill="white"/>
<path d="M155.459 380.166C155.459 376.238 156.447 372.518 158.214 369.314L167.726 359.857C171 358.1 174.69 357.118 178.64 357.118C185.553 357.118 191.79 360.115 196 364.921L163.308 397.478C158.474 393.24 155.459 387.091 155.459 380.166Z" fill="url(#paint2_linear_238_4111)"/>
<path d="M246 384.714V411.637C246 412.516 245.844 413.394 245.532 414.221L196.052 364.973L196 364.921C191.738 360.167 185.553 357.17 178.588 357.17C174.638 357.17 170.896 358.151 167.674 359.908L190.335 337.325C193.453 334.225 198.547 334.225 201.665 337.325L243.661 379.081C244.545 379.959 245.168 380.941 245.532 382.13C245.844 382.956 246 383.783 246 384.714Z" fill="white"/>
<path d="M163.308 397.478L146.468 414.221C146.156 413.394 146 412.516 146 411.637V384.714C146 383.835 146.156 382.956 146.468 382.13C146.884 380.993 147.507 379.959 148.339 379.081L158.162 369.314C156.395 372.569 155.407 376.238 155.407 380.166C155.459 387.091 158.474 393.24 163.308 397.478Z" fill="white"/>
<path d="M246 384.714V411.637C246 412.516 245.844 413.394 245.532 414.221C245.116 415.358 244.493 416.392 243.661 417.27L233.838 427.037C235.605 423.782 236.592 420.112 236.592 416.185C236.592 409.312 233.578 403.111 228.744 398.925L245.584 382.181C245.844 382.956 246 383.783 246 384.714Z" fill="white"/>
<path d="M203.794 388.33L196.003 380.583L188.211 388.33L196.003 396.077L203.794 388.33Z" fill="white"/>
<path d="M213.682 398.216L205.891 390.47L198.1 398.216L205.891 405.963L213.682 398.216Z" fill="white"/>
<path d="M193.888 398.198L186.096 390.452L178.305 398.198L186.096 405.945L193.888 398.198Z" fill="white"/>
<path d="M203.776 408.011L195.985 400.265L188.193 408.011L195.985 415.758L203.776 408.011Z" fill="white"/>
</g>
</g>
<defs>
<linearGradient id="paint0_linear_238_4111" x1="984.979" y1="539.768" x2="437.325" y2="-7.88635" gradientUnits="userSpaceOnUse">
<stop stop-color="#12E6C8"/>
<stop offset="1" stop-color="#4C28A5"/>
</linearGradient>
<linearGradient id="paint1_linear_238_4111" x1="237.708" y1="406.54" x2="206.652" y2="437.775" gradientUnits="userSpaceOnUse">
<stop stop-color="white"/>
<stop offset="0.4109" stop-color="#FBFCFC"/>
<stop offset="0.7781" stop-color="#F2F2F2"/>
<stop offset="1" stop-color="#E5E5E4"/>
</linearGradient>
<linearGradient id="paint2_linear_238_4111" x1="156.898" y1="387.201" x2="183.766" y2="360.178" gradientUnits="userSpaceOnUse">
<stop stop-color="white"/>
<stop offset="0.4109" stop-color="#FBFCFC"/>
<stop offset="0.7781" stop-color="#F2F2F2"/>
<stop offset="1" stop-color="#E5E5E4"/>
</linearGradient>
<clipPath id="clip0_238_4111">
<rect width="393" height="852" fill="white"/>
</clipPath>
<clipPath id="clip1_238_4111">
<rect width="100" height="171" fill="white" transform="translate(146 335)"/>
</clipPath>
</defs>
</svg>
