<svg width="59" height="59" viewBox="0 0 59 59" fill="none" xmlns="http://www.w3.org/2000/svg">
<rect x="0.5" y="0.5" width="58" height="58" rx="15.5" fill="#FFF5F8"/>
<rect x="0.5" y="0.5" width="58" height="58" rx="15.5" stroke="#F1416C"/>
<path d="M32.8654 28.2847C32.8654 27.6201 32.3571 27.0694 31.7436 27.0694H27.2564C26.6429 27.0694 26.1346 27.6201 26.1346 28.2847C26.1346 28.9493 26.6429 29.5 27.2564 29.5H31.7436C32.3571 29.5 32.8654 28.9493 32.8654 28.2847ZM42.9615 24.6389V42.8681C42.9615 43.5327 42.4532 44.0833 41.8398 44.0833H17.1603C16.5468 44.0833 16.0385 43.5327 16.0385 42.8681V24.6389C16.0385 23.9743 16.5468 23.4236 17.1603 23.4236H41.8398C42.4532 23.4236 42.9615 23.9743 42.9615 24.6389ZM44.0833 16.1319V20.9931C44.0833 21.6577 43.575 22.2083 42.9615 22.2083H16.0385C15.425 22.2083 14.9167 21.6577 14.9167 20.9931V16.1319C14.9167 15.4673 15.425 14.9167 16.0385 14.9167H42.9615C43.575 14.9167 44.0833 15.4673 44.0833 16.1319Z" fill="#F1416C"/>
</svg>
