<svg width="60" height="59" viewBox="0 0 60 59" fill="none" xmlns="http://www.w3.org/2000/svg">
<rect x="1" y="0.5" width="58" height="58" rx="15.5" fill="#DCFDFD"/>
<rect x="1" y="0.5" width="58" height="58" rx="15.5" stroke="#0ADBDB"/>
<g clip-path="url(#clip0_1_673)">
<path d="M12.3866 43.7149C12.5648 43.3584 12.9213 43.3584 13.2778 43.3584C14.3472 43.3584 15.2384 43.3584 16.3079 43.3584C16.8426 43.3584 16.8426 43.3584 16.8426 42.8237C16.8426 37.6547 16.8426 32.4857 16.8426 27.3168C16.8426 24.4649 16.8426 21.6131 16.8426 18.583C16.8426 16.0876 18.4468 14.1269 20.9421 13.5922C22.7245 13.414 24.6852 14.3052 25.7546 15.9094C26.1111 16.2658 25.9329 16.6223 25.5764 16.8006C25.2199 16.9788 25.0417 16.8006 24.6852 16.4441C24.1505 15.7311 23.4375 15.1964 22.3681 15.0181C19.5162 14.4834 17.7338 16.6223 17.7338 18.7612C17.7338 26.782 17.7338 34.9811 17.7338 43.0019C17.912 43.3584 17.912 43.3584 18.2685 43.3584C18.4468 43.3584 18.625 43.3584 18.625 43.3584C18.8032 43.5367 18.9815 43.7149 18.9815 43.8931C18.9815 44.0714 18.8032 44.2496 18.4468 44.4279C18.2685 44.4279 18.2685 44.4279 18.0903 44.4279C16.4861 44.4279 14.7037 44.4279 13.0995 44.4279C12.7431 44.4279 12.3866 44.4279 12.2083 44.0714C12.3866 44.0714 12.3866 43.8931 12.3866 43.7149Z" fill="#0ADBDB"/>
<path d="M33.419 32.4858C33.419 33.9117 33.419 35.5158 33.419 36.9418C33.419 37.4765 33.2407 37.6547 32.5278 37.6547C31.1018 37.6547 29.6759 37.6547 28.25 37.6547C27.537 37.6547 27.537 37.4765 27.537 36.9418C27.537 34.9811 26.4676 33.5552 24.8634 33.0205C24.3287 32.8422 23.9722 32.8422 23.4375 32.8422C22.9028 32.8422 22.7245 32.664 22.7245 32.1293C22.7245 31.4163 22.7245 30.5251 22.7245 29.8121C22.9028 28.3862 24.1505 27.1385 25.7546 27.1385C28.0718 27.1385 30.3889 27.1385 32.706 27.1385C33.2407 27.1385 33.419 27.3168 33.419 27.8515C33.419 29.4557 33.419 30.8816 33.419 32.4858Z" fill="#0ADBDB"/>
<path d="M34.4884 32.4857C34.4884 31.0598 34.4884 29.4556 34.4884 28.0297C34.4884 27.495 34.6667 27.3168 35.2014 27.3168C37.3403 27.3168 39.4792 27.3168 41.6181 27.3168C43.5787 27.3168 44.8264 28.5644 44.8264 30.5251C44.8264 31.0598 44.8264 31.5945 44.8264 32.3075C44.8264 33.0205 44.6481 33.1987 43.9352 33.1987C41.9745 33.1987 40.5486 34.4464 40.1921 36.2288C40.1921 36.5853 40.1921 36.9418 40.0139 37.2982C40.0139 37.833 39.8356 38.0112 39.3009 38.0112C37.875 38.0112 36.2708 38.0112 34.8449 38.0112C34.3102 38.0112 34.1319 37.833 34.1319 37.2982C34.4884 35.5158 34.4884 34.0899 34.4884 32.4857Z" fill="#0ADBDB"/>
<path d="M33.9537 44.4279C32.1713 44.4279 30.2106 44.4279 28.4282 44.4279C27.7153 44.4279 27.537 44.2496 27.537 43.5366C27.537 42.289 27.537 40.863 27.537 39.6154C27.537 39.0806 27.7153 38.9024 28.25 38.9024C31.993 38.9024 35.7361 38.9024 39.4792 38.9024C40.0139 38.9024 40.1921 39.0806 40.1921 39.6154C40.1921 40.863 40.1921 42.289 40.1921 43.5366C40.1921 44.0714 40.0139 44.2496 39.4792 44.2496C37.6967 44.4278 35.7361 44.4279 33.9537 44.4279Z" fill="#0ADBDB"/>
<path d="M41.4398 40.3283C41.4398 39.2589 41.4398 38.1894 41.4398 37.12C41.4398 35.3376 42.5093 34.2681 44.2917 34.2681C44.8264 34.2681 45.5394 34.2681 46.0741 34.4464C46.9653 34.9811 47.5 35.694 47.5 36.7635C47.5 38.5459 47.5 40.1501 47.5 41.9325C47.5 43.3584 46.4306 44.4278 45.0046 44.4278C43.9352 44.4278 42.8657 44.4278 41.9745 44.4278C41.6181 44.4278 41.4398 44.2496 41.2616 43.7149C41.4398 42.6454 41.4398 41.3977 41.4398 40.3283Z" fill="#0ADBDB"/>
<path d="M26.2894 40.3283C26.2894 41.3978 26.2894 42.6454 26.2894 43.7149C26.2894 44.2496 26.1111 44.4279 25.5764 44.4279C24.6852 44.4279 23.794 44.4279 22.9028 44.4279C21.2986 44.4279 20.2292 43.3584 20.2292 41.576C20.2292 39.9718 20.2292 38.3677 20.2292 36.7635C20.2292 35.1593 21.2986 33.9117 23.081 33.9117C23.4375 33.9117 23.794 33.9117 24.1505 33.9117C25.5764 34.0899 26.4676 35.1593 26.4676 36.5853C26.2894 38.0112 26.2894 39.0806 26.2894 40.3283Z" fill="#0ADBDB"/>
<path d="M26.1111 23.7519C24.8634 23.7519 23.794 23.7519 22.7245 23.7519C22.1898 23.7519 22.0116 23.5737 22.0116 22.8607C22.0116 21.9695 22.0116 21.0783 22.3681 20.1871C23.2593 18.583 25.0417 17.5135 26.8241 17.87C28.7847 18.4047 30.2106 20.0089 30.2106 21.9695C30.2106 22.326 30.2106 22.6825 30.2106 23.039C30.2106 23.5737 30.0324 23.7519 29.4977 23.7519C28.25 23.7519 27.1806 23.7519 26.1111 23.7519Z" fill="#0ADBDB"/>
</g>
<defs>
<clipPath id="clip0_1_673">
<rect width="35" height="35" fill="white" transform="translate(12.5 12)"/>
</clipPath>
</defs>
</svg>
