<svg width="59" height="59" viewBox="0 0 59 59" fill="none" xmlns="http://www.w3.org/2000/svg">
<rect x="0.5" y="0.5" width="58" height="58" rx="15.5" fill="#FFF8DD"/>
<rect x="0.5" y="0.5" width="58" height="58" rx="15.5" stroke="#FD822E"/>
<path d="M34.9788 37.4742C34.9788 38.885 34.9788 40.2958 34.9788 41.7067C34.9788 42.6942 34.4145 43.3997 33.2858 43.3997C31.875 43.3997 30.4642 43.3997 28.9123 43.3997C28.3479 43.3997 28.0658 43.1175 28.0658 42.5532C28.0658 41.1423 28.0658 39.5904 28.0658 38.1796C28.0658 37.6153 27.7836 37.3331 27.2193 37.3331C26.2317 37.3331 25.3852 37.3331 24.3976 37.3331C23.8333 37.3331 23.5511 37.6153 23.5511 38.1796C23.5511 39.5904 23.5511 41.1423 23.5511 42.5532C23.5511 43.1175 23.269 43.3997 22.7046 43.3997C21.2938 43.3997 19.883 43.3997 18.3311 43.3997C17.3435 43.3997 16.6381 42.6942 16.6381 41.8478C16.6381 39.0261 16.6381 36.0634 16.6381 33.2417C16.6381 32.6774 16.7791 32.3952 17.2024 31.972C19.7419 29.7146 22.1403 27.4573 24.6798 25.2C25.5263 24.4946 26.3728 24.4946 26.9371 25.0589C29.4766 27.3162 31.875 29.5735 34.4145 31.8309C34.8377 32.113 34.9788 32.5363 34.9788 33.1006C34.9788 34.5114 34.9788 36.0634 34.9788 37.4742Z" fill="#FD822E"/>
<path d="M41.8919 16.5939C37.3772 16.5939 32.7215 16.5939 28.2069 16.5939C27.7836 16.5939 27.3604 17.0172 27.3604 17.4404V22.8016C27.7836 22.9426 28.0658 23.2248 28.3479 23.507L31.1696 26.0465C31.7339 26.0465 32.4393 26.0465 33.0037 26.0465C33.1448 26.0465 33.2858 26.1875 33.2858 26.3286V28.0216L35.8253 30.279C36.3897 30.7022 36.6718 31.4076 36.954 31.9719C37.6594 31.9719 38.3648 31.9719 38.9292 31.9719C39.0702 31.9719 39.2113 31.9719 39.2113 32.2541C39.2113 32.9595 39.2113 33.5239 39.2113 34.2293C39.2113 34.5114 39.0702 34.5114 38.9292 34.5114C38.647 34.5114 38.2237 34.5114 37.9416 34.5114C37.6594 34.5114 37.3772 34.5114 37.0951 34.5114V38.0385H38.0827C38.3648 38.0385 38.9292 37.8974 39.2113 38.1796C39.4935 38.4618 39.2113 38.885 39.2113 39.3083C39.2113 39.7315 39.3524 40.1547 39.2113 40.4369C38.9292 40.7191 38.5059 40.4369 38.0827 40.578C37.8005 40.578 37.3772 40.578 37.0951 40.578V41.8477C37.0951 42.4121 36.954 42.9764 36.6718 43.5407H41.4686C42.033 43.5407 42.5973 42.9764 42.5973 42.4121C42.5973 38.6028 42.5973 34.7936 42.5973 30.9844C42.5973 26.6108 42.5973 22.0961 42.5973 17.5815C42.7384 17.0172 42.3151 16.5939 41.8919 16.5939ZM33.2858 21.3907C33.2858 21.6729 33.2858 21.9551 33.2858 22.2372C33.2858 22.5194 33.2858 22.5194 33.0037 22.5194C32.2983 22.5194 31.5929 22.5194 31.0285 22.5194C30.7464 22.5194 30.7464 22.3783 30.7464 22.2372C30.7464 21.6729 30.7464 20.9675 30.7464 20.4032C30.7464 20.121 30.7464 20.121 31.0285 20.121H32.1572C32.4393 20.121 33.0037 19.9799 33.2858 20.2621C33.568 20.5442 33.2858 20.9675 33.2858 21.3907ZM39.3524 28.1627C39.3524 28.4449 39.2113 28.4449 39.0702 28.4449C38.7881 28.4449 38.3648 28.4449 38.0827 28.4449C37.8005 28.4449 37.5183 28.4449 37.2362 28.4449C36.954 28.4449 36.8129 28.4449 36.8129 28.0216C36.8129 27.4573 36.8129 26.893 36.8129 26.3286C36.8129 26.0465 36.8129 26.0465 37.0951 26.0465C37.8005 26.0465 38.3648 26.0465 39.0702 26.0465C39.3524 26.0465 39.3524 26.0465 39.3524 26.3286C39.2113 27.034 39.2113 27.5984 39.3524 28.1627ZM39.3524 22.3783C39.3524 22.6605 39.2113 22.6605 39.0702 22.6605H37.0951C36.8129 22.6605 36.8129 22.6605 36.8129 22.3783C36.8129 21.814 36.8129 21.1086 36.8129 20.5442C36.6718 20.2621 36.8129 20.121 36.954 20.121H38.9292C39.0702 20.121 39.2113 20.121 39.2113 20.4032C39.2113 21.1086 39.2113 21.6729 39.3524 22.3783Z" fill="#FD822E"/>
</svg>
