<svg width="75" height="106" viewBox="0 0 75 106" fill="none" xmlns="http://www.w3.org/2000/svg">
<path d="M57.8081 41.0035C57.8081 42.9911 57.3156 44.8644 56.4273 46.5002L51.6606 51.267C50.0247 52.1465 48.1514 52.6478 46.1638 52.6478C42.6899 52.6478 39.5589 51.1263 37.4306 48.7165L53.8505 32.2791C56.2866 34.3986 57.8081 37.5207 57.8081 41.0035Z" fill="url(#paint0_linear_200_3684)"/>
<path d="M51.6605 51.267L40.28 62.6475C38.7058 64.2217 36.1641 64.2217 34.5898 62.6475L13.4911 41.5576C13.0514 41.1178 12.7348 40.6077 12.5413 40.0273C12.383 39.6051 12.3126 39.1654 12.3126 38.7168V25.1201C12.3126 24.6628 12.383 24.223 12.5413 23.8185L37.4129 48.6901L37.4393 48.7165C39.5677 51.1263 42.6898 52.6478 46.1725 52.6478C48.1514 52.639 50.0247 52.1465 51.6605 51.267Z" fill="#4F3594"/>
<path d="M17.053 22.8335C17.053 20.8458 17.5455 18.9725 18.4338 17.3367L23.2006 12.5699C24.8364 11.6905 26.7097 11.1892 28.6973 11.1892C32.1713 11.1892 35.3022 12.7107 37.4306 15.1204L21.0019 31.5579C18.5745 29.4295 17.053 26.3074 17.053 22.8335Z" fill="url(#paint1_linear_200_3684)"/>
<path d="M62.5484 25.1201V38.7168C62.5484 39.1742 62.4781 39.6139 62.3198 40.0185L37.4481 15.1556L37.4217 15.1292C35.2934 12.7195 32.1712 11.198 28.6885 11.198C26.7009 11.198 24.8276 11.6905 23.1918 12.5787L34.581 1.1807C36.1553 -0.393567 38.697 -0.393567 40.2712 1.1807L61.3611 22.2706C61.8009 22.7103 62.1175 23.2204 62.311 23.8009C62.4781 24.223 62.5484 24.6628 62.5484 25.1201Z" fill="#0AAF85"/>
<path d="M21.0019 31.5579L12.5413 40.0185C12.383 39.6051 12.3126 39.1654 12.3126 38.7168V25.1201C12.3126 24.6628 12.383 24.223 12.5413 23.8185C12.7436 23.238 13.0514 22.7279 13.4911 22.2882L18.4338 17.3455C17.5543 18.9813 17.053 20.8546 17.053 22.8423C17.053 26.3074 18.5745 29.4295 21.0019 31.5579Z" fill="#0AAF85"/>
<path d="M62.5484 25.1201V38.7168C62.5484 39.1742 62.4781 39.6139 62.3198 40.0185C62.1175 40.5989 61.8097 41.109 61.3699 41.5488L56.4273 46.4914C57.3067 44.8556 57.808 42.9823 57.808 40.9947C57.808 37.5208 56.2866 34.3898 53.8592 32.2615L62.3198 23.8009C62.4781 24.223 62.5484 24.6628 62.5484 25.1201Z" fill="#4F3594"/>
<path d="M41.3352 26.949L37.4297 23.0436L33.5243 26.949L37.4297 30.8544L41.3352 26.949Z" fill="#0AAF85"/>
<path d="M46.3023 31.9188L42.3969 28.0134L38.4915 31.9188L42.3969 35.8242L46.3023 31.9188Z" fill="#0AAF85"/>
<path d="M36.3653 31.9162L32.4599 28.0108L28.5545 31.9162L32.4599 35.8216L36.3653 31.9162Z" fill="#0AAF85"/>
<path d="M41.3388 36.8798L37.4334 32.9744L33.528 36.8798L37.4334 40.7852L41.3388 36.8798Z" fill="#0AAF85"/>
<path d="M3.73779 100.236C4.30066 100.483 4.58209 100.922 4.58209 101.547C4.58209 102.039 4.41499 102.426 4.07199 102.69C3.72899 102.963 3.30685 103.095 2.80555 103.095H0.554077V97.5012H2.69121C3.20131 97.5012 3.61467 97.6331 3.94007 97.8969C4.26548 98.1608 4.43258 98.5302 4.43258 99.0227C4.44138 99.5768 4.20392 99.9901 3.73779 100.236ZM1.30164 98.152V99.9813H2.69121C2.99023 99.9813 3.23649 99.911 3.42118 99.7614C3.61466 99.6207 3.70261 99.3833 3.70261 99.0667C3.70261 98.75 3.60587 98.5126 3.41238 98.3631C3.2189 98.2136 2.98144 98.1432 2.68242 98.1432H1.30164V98.152ZM2.78795 102.453C3.06939 102.453 3.31564 102.373 3.52672 102.215C3.73779 102.057 3.83453 101.819 3.83453 101.512C3.83453 101.195 3.729 100.966 3.51792 100.808C3.30685 100.65 3.06059 100.579 2.78795 100.579H1.30164V102.461H2.78795V102.453Z" fill="#050606"/>
<path d="M8.67159 103.156C8.13511 103.156 7.67778 102.963 7.31719 102.567C6.94781 102.171 6.77191 101.696 6.77191 101.125C6.77191 100.553 6.9566 100.06 7.31719 99.6735C7.68657 99.2777 8.13511 99.0842 8.67159 99.0842C9.31361 99.0842 9.8237 99.3041 10.2019 99.7351V99.1458H10.9231V103.103H10.2019V102.514C9.80611 102.945 9.29602 103.156 8.67159 103.156ZM7.87126 102.118C8.1351 102.391 8.45172 102.523 8.83869 102.523C9.22566 102.523 9.54227 102.391 9.80612 102.118C10.07 101.846 10.2019 101.52 10.2019 101.125C10.2019 100.729 10.07 100.395 9.80612 100.122C9.54227 99.8494 9.22566 99.7175 8.83869 99.7175C8.45172 99.7175 8.1351 99.8494 7.87126 100.122C7.60742 100.395 7.4755 100.729 7.4755 101.125C7.4755 101.52 7.60742 101.846 7.87126 102.118Z" fill="#050606"/>
<path d="M15.3293 103.112C14.9511 103.112 14.6433 103.007 14.4059 102.787C14.1684 102.567 14.0541 102.277 14.0541 101.899V99.7702H13.1218V99.137H14.0541V97.9849H14.7665V99.137H15.8922V99.7702H14.7665V101.758C14.7665 102.224 15.0039 102.461 15.4788 102.461C15.6108 102.461 15.7515 102.435 15.9274 102.391L16.0065 103.016C15.7866 103.077 15.558 103.112 15.3293 103.112Z" fill="#050606"/>
<path d="M18.4954 103.103V97.5012H20.527C21.3098 97.5012 21.9694 97.7474 22.4971 98.2487C23.0247 98.75 23.2886 99.4272 23.2886 100.289C23.2886 101.151 23.0247 101.837 22.4971 102.338C21.9694 102.84 21.3098 103.095 20.5358 103.095H18.4954V103.103ZM19.2518 102.365H20.5006C21.0987 102.365 21.5912 102.18 21.9694 101.819C22.3475 101.459 22.541 100.949 22.541 100.289C22.541 99.6383 22.3475 99.137 21.9694 98.7764C21.5912 98.4158 21.0987 98.2399 20.5006 98.2399H19.2518V102.365Z" fill="#050606"/>
<path d="M29.0491 102.585C28.6446 102.989 28.1433 103.191 27.5628 103.191C26.9824 103.191 26.4899 102.989 26.0853 102.585C25.6807 102.18 25.4785 101.687 25.4785 101.116C25.4785 100.535 25.6807 100.043 26.0853 99.6383C26.4899 99.2338 26.9824 99.0315 27.5628 99.0315C28.1433 99.0315 28.6358 99.2338 29.0491 99.6383C29.4537 100.043 29.6648 100.535 29.6648 101.116C29.6648 101.696 29.4625 102.18 29.0491 102.585ZM26.613 102.118C26.868 102.391 27.1934 102.523 27.5716 102.523C27.9498 102.523 28.2664 102.391 28.5302 102.118C28.7941 101.846 28.926 101.52 28.926 101.125C28.926 100.729 28.7941 100.395 28.5302 100.122C28.2664 99.8494 27.9498 99.7175 27.5716 99.7175C27.1934 99.7175 26.8768 99.8494 26.613 100.122C26.3579 100.395 26.226 100.729 26.226 101.125C26.226 101.52 26.3491 101.846 26.613 102.118Z" fill="#050606"/>
<path d="M32.0306 103.103V99.1458H32.7518V99.6735C33.0772 99.2865 33.4994 99.093 34.0183 99.093C34.546 99.093 34.9681 99.2601 35.2847 99.5943C35.6013 99.9285 35.7596 100.421 35.7596 101.063V103.103H35.0385V101.116C35.0385 100.65 34.9329 100.298 34.7218 100.06C34.5108 99.8318 34.2469 99.7087 33.9215 99.7087C33.5697 99.7087 33.2883 99.8318 33.0684 100.087C32.8486 100.342 32.743 100.694 32.743 101.151V103.095H32.0306V103.103Z" fill="#050606"/>
<path d="M40.0338 105.1C39.6117 105.109 39.2335 105.021 38.8817 104.845C38.5387 104.669 38.2661 104.431 38.0638 104.132L38.6003 103.666C38.9433 104.159 39.427 104.405 40.0426 104.405C40.4208 104.405 40.7462 104.273 41.0277 104.018C41.3091 103.763 41.4498 103.402 41.4498 102.945V102.514C41.1156 102.936 40.6231 103.156 39.9547 103.156C39.4006 103.156 38.9345 102.963 38.5739 102.576C38.2045 102.189 38.0198 101.705 38.0198 101.125C38.0198 100.553 38.2045 100.06 38.5739 99.6735C38.9433 99.2777 39.4006 99.0842 39.9547 99.0842C40.5879 99.0842 41.0892 99.3041 41.4498 99.7351V99.1458H42.171V102.91C42.171 103.605 41.9687 104.15 41.5553 104.528C41.142 104.898 40.6319 105.091 40.0338 105.1ZM39.128 102.118C39.383 102.391 39.7084 102.523 40.0866 102.523C40.4648 102.523 40.7902 102.391 41.054 102.118C41.3179 101.846 41.4498 101.52 41.4498 101.125C41.4498 100.729 41.3179 100.395 41.054 100.122C40.7902 99.8494 40.4736 99.7175 40.0866 99.7175C39.6996 99.7175 39.383 99.8494 39.128 100.122C38.8729 100.395 38.741 100.729 38.741 101.125C38.7498 101.52 38.8729 101.846 39.128 102.118Z" fill="#050606"/>
<path d="M46.6563 103.191C46.1286 103.191 45.6713 103.059 45.2755 102.804C44.8798 102.549 44.6247 102.189 44.484 101.723L45.214 101.52C45.3107 101.837 45.4866 102.074 45.7505 102.25C46.0143 102.417 46.3133 102.505 46.6651 102.505C47.0345 102.505 47.3335 102.417 47.5622 102.25C47.7908 102.083 47.914 101.855 47.914 101.573C47.914 101.476 47.8964 101.388 47.87 101.309C47.8436 101.23 47.7996 101.169 47.7381 101.107C47.6765 101.054 47.615 101.002 47.5534 100.966C47.5006 100.922 47.4127 100.887 47.2983 100.843C47.184 100.799 47.0961 100.773 47.0345 100.755C46.9729 100.738 46.8674 100.711 46.7179 100.676C46.5684 100.641 46.4716 100.615 46.4189 100.597C46.2518 100.553 46.1286 100.518 46.0495 100.5C45.9703 100.474 45.856 100.439 45.7065 100.386C45.557 100.333 45.4338 100.28 45.3547 100.236C45.2755 100.184 45.1788 100.122 45.0645 100.034C44.9589 99.9461 44.871 99.8582 44.8182 99.7702C44.7654 99.6823 44.7215 99.568 44.6775 99.436C44.6335 99.3041 44.6159 99.1634 44.6159 99.0051C44.6159 98.5478 44.8006 98.1608 45.1788 97.853C45.5482 97.5452 46.0143 97.3956 46.5596 97.3956C47.0521 97.3956 47.4654 97.5188 47.7908 97.7562C48.125 97.9937 48.3537 98.3455 48.4944 98.8028L47.8084 98.9963C47.6062 98.3807 47.1928 98.0641 46.5684 98.0641C46.2166 98.0641 45.9351 98.1608 45.7153 98.3455C45.4954 98.5302 45.3899 98.75 45.3899 99.0051C45.3899 99.0755 45.3987 99.1458 45.4163 99.2162C45.4338 99.2777 45.4602 99.3393 45.4954 99.3921C45.5306 99.4448 45.5658 99.4888 45.6009 99.524C45.6361 99.568 45.6889 99.6031 45.7592 99.6383C45.8296 99.6735 45.8912 99.7087 45.9264 99.7263C45.9703 99.7526 46.0407 99.779 46.1374 99.8054C46.2342 99.8318 46.3045 99.8582 46.3485 99.867C46.3925 99.8846 46.4716 99.9022 46.586 99.9285C46.7003 99.9549 46.7707 99.9813 46.8146 99.9901C46.8498 99.9989 46.8938 100.016 46.9641 100.034C47.1752 100.096 47.3423 100.14 47.4566 100.166C47.571 100.201 47.7205 100.254 47.8964 100.342C48.0811 100.43 48.213 100.518 48.3097 100.606C48.4065 100.702 48.4856 100.826 48.5648 100.984C48.6439 101.142 48.6791 101.318 48.6791 101.52C48.6791 102.013 48.4856 102.417 48.0987 102.708C47.7205 103.042 47.2368 103.191 46.6563 103.191Z" fill="#050606"/>
<path d="M52.7072 103.156C52.1707 103.156 51.7134 102.963 51.3528 102.567C50.9834 102.171 50.8075 101.696 50.8075 101.125C50.8075 100.553 50.9922 100.06 51.3528 99.6735C51.7222 99.2777 52.1707 99.0842 52.7072 99.0842C53.3492 99.0842 53.8593 99.3041 54.2375 99.7351V99.1458H54.9586V103.103H54.2375V102.514C53.8417 102.945 53.3316 103.156 52.7072 103.156ZM51.9068 102.118C52.1707 102.391 52.4873 102.523 52.8743 102.523C53.2612 102.523 53.5779 102.391 53.8417 102.118C54.1055 101.846 54.2375 101.52 54.2375 101.125C54.2375 100.729 54.1055 100.395 53.8417 100.122C53.5779 99.8494 53.2612 99.7175 52.8743 99.7175C52.4873 99.7175 52.1707 99.8494 51.9068 100.122C51.643 100.395 51.5111 100.729 51.5111 101.125C51.5111 101.52 51.643 101.846 51.9068 102.118Z" fill="#050606"/>
<path d="M57.5179 103.103V99.1458H58.239V99.6735C58.5645 99.2865 58.9866 99.093 59.5055 99.093C60.0332 99.093 60.4553 99.2601 60.772 99.5943C61.0886 99.9285 61.2469 100.421 61.2469 101.063V103.103H60.5257V101.116C60.5257 100.65 60.4202 100.298 60.2091 100.06C59.998 99.8318 59.7342 99.7087 59.4088 99.7087C59.057 99.7087 58.7755 99.8318 58.5557 100.087C58.3358 100.342 58.2303 100.694 58.2303 101.151V103.095H57.5179V103.103Z" fill="#050606"/>
<path d="M11.5388 94.9155C8.31107 94.9155 5.5759 93.781 3.34202 91.5207C1.10815 89.2605 0 86.5165 0 83.28C0 80.0435 1.11694 77.2996 3.34202 75.0393C5.5759 72.779 8.30228 71.6445 11.5388 71.6445C13.7111 71.6445 15.6987 72.1898 17.484 73.2891C18.4603 73.8872 19.3046 74.5908 20.0345 75.4087C20.9932 76.4816 20.6414 78.1878 19.3573 78.8474L19.0231 79.0145C18.0997 79.4895 17.0267 79.2168 16.3055 78.4781C15.901 78.0647 15.4436 77.7041 14.9248 77.3875C13.887 76.7631 12.7524 76.4465 11.5036 76.4465C9.63029 76.4465 8.04723 77.1061 6.7544 78.4341C5.46156 79.7621 4.81955 81.3715 4.81955 83.2624C4.81955 85.1621 5.46156 86.7715 6.7544 88.0908C8.04723 89.4188 9.63029 90.0784 11.5036 90.0784C12.77 90.0784 13.9309 89.7618 14.9775 89.1285C15.4964 88.8119 15.9625 88.4426 16.3583 88.0116C17.0707 87.2465 18.1612 86.9562 19.0935 87.4399L19.3925 87.5983C20.6853 88.2579 21.0547 89.9816 20.0961 91.0722C19.3661 91.8989 18.5042 92.6113 17.528 93.2269C15.7339 94.3527 13.7375 94.9155 11.5388 94.9155Z" fill="#4F3594"/>
<path d="M24.6869 92.3298V72.6207C24.6869 71.3719 25.6983 70.3605 26.9471 70.3605C28.196 70.3605 29.2074 71.3719 29.2074 72.6207V80.4745C30.3683 79.0937 31.9514 78.4077 33.9566 78.4077C36.0498 78.4077 37.7208 79.0937 38.9784 80.4745C40.2361 81.8553 40.8693 83.7901 40.8693 86.2878V92.3298C40.8693 93.5787 39.8579 94.5901 38.609 94.5901C37.3602 94.5901 36.3488 93.5787 36.3488 92.3298V86.6396C36.3488 85.2149 36.0322 84.1331 35.3989 83.3768C34.7657 82.6204 33.9214 82.2422 32.866 82.2422C31.7403 82.2422 30.8608 82.638 30.2012 83.4383C29.5416 84.2386 29.2162 85.338 29.2162 86.7364V92.3298C29.2162 93.5787 28.2048 94.5901 26.9559 94.5901C25.6983 94.5901 24.6869 93.5787 24.6869 92.3298Z" fill="#4F3594"/>
<path d="M58.4677 92.5673C56.7791 94.2119 54.7475 95.0386 52.3729 95.0386C49.9983 95.0386 47.9755 94.2119 46.2781 92.5673C44.5895 90.9227 43.7452 88.9175 43.7452 86.5693C43.7452 84.2211 44.5895 82.2158 46.2781 80.5448C47.9667 78.8738 49.9983 78.0383 52.3729 78.0383C54.7387 78.0383 56.7703 78.8738 58.4677 80.5448C60.1563 82.2158 61.0006 84.2211 61.0006 86.5693C61.0006 88.9263 60.1563 90.9227 58.4677 92.5673ZM52.3729 90.8084C53.4723 90.8259 54.4045 90.439 55.1697 89.6299C55.9348 88.8207 56.313 87.8181 56.313 86.6132C56.313 85.382 55.9348 84.3706 55.1697 83.5615C54.4045 82.7523 53.4723 82.3654 52.3729 82.3829C51.2736 82.3654 50.3413 82.7523 49.5762 83.5615C48.811 84.3706 48.4329 85.3908 48.4329 86.6132C48.4329 87.8181 48.811 88.8295 49.5762 89.6299C50.3413 90.439 51.2824 90.8347 52.3729 90.8084Z" fill="#4F3594"/>
<path d="M72.1172 94.6517C70.2879 94.6517 68.8016 94.1328 67.6583 93.0862C66.515 92.0396 65.9433 90.6588 65.9433 88.9351V82.5413H64.5185C63.428 82.5413 62.5485 81.6618 62.5485 80.5712C62.5485 79.4807 63.428 78.6012 64.5185 78.6012H65.9433V76.1826C65.9433 74.9514 66.9459 73.9488 68.1772 73.9488C69.4085 73.9488 70.4111 74.9514 70.4111 76.1826V78.6012H72.9C73.9905 78.6012 74.87 79.4807 74.87 80.5712C74.87 81.6618 73.9905 82.5413 72.9 82.5413H70.4111V87.9413C70.4111 89.665 71.3257 90.5269 73.155 90.5269C73.6915 90.5269 74.7205 90.3246 74.87 90.1487V91.8989C74.87 93.4204 73.6387 94.6517 72.1172 94.6517Z" fill="#4F3594"/>
<path d="M74.0168 97.0527H64.3602C63.8853 97.0527 63.5071 97.4396 63.5071 97.9057V104.238C63.5071 104.713 63.8941 105.091 64.3602 105.091H74.0168C74.4918 105.091 74.8699 104.704 74.8699 104.238V97.9057C74.8699 97.4396 74.483 97.0527 74.0168 97.0527ZM64.9758 103.033C64.8879 103.121 64.7735 103.165 64.6504 103.165C64.5273 103.165 64.4217 103.121 64.3338 103.033C64.2458 102.945 64.2019 102.831 64.2019 102.708C64.2019 102.593 64.2458 102.488 64.3338 102.4C64.4217 102.312 64.5273 102.268 64.6504 102.268C64.7735 102.268 64.8791 102.312 64.9758 102.4C65.0638 102.488 65.1165 102.593 65.1165 102.708C65.1165 102.831 65.0638 102.945 64.9758 103.033ZM67.9572 103.103H67.1393L65.4507 99.0842H66.2159L67.5439 102.373L68.8719 99.0842H69.6458L67.9572 103.103ZM73.9993 103.103H73.2693V101.089C73.2693 100.615 73.1638 100.254 72.9527 100.025C72.7416 99.7878 72.469 99.6735 72.1436 99.6735C71.7918 99.6735 71.5015 99.8054 71.2817 100.06C71.0618 100.316 70.9563 100.676 70.9563 101.133V103.103H70.2263V99.0842H70.9563V99.6207C71.2817 99.225 71.7126 99.0315 72.2403 99.0315C72.7768 99.0315 73.2077 99.1986 73.5243 99.5416C73.8497 99.8846 74.0081 100.377 74.0081 101.037V103.103H73.9993Z" fill="#0AAF85"/>
<defs>
<linearGradient id="paint0_linear_200_3684" x1="56.3877" y1="37.3091" x2="44.1108" y2="50.6733" gradientUnits="userSpaceOnUse">
<stop stop-color="#4F3594"/>
<stop offset="0.2679" stop-color="#4C3490"/>
<stop offset="0.5076" stop-color="#463388"/>
<stop offset="0.7365" stop-color="#3B317D"/>
<stop offset="0.9576" stop-color="#2A2F6F"/>
<stop offset="1" stop-color="#272E6B"/>
</linearGradient>
<linearGradient id="paint1_linear_200_3684" x1="18.4727" y1="26.5202" x2="30.7495" y2="13.156" gradientUnits="userSpaceOnUse">
<stop stop-color="#0AAF85"/>
<stop offset="0.2843" stop-color="#09AB82"/>
<stop offset="0.5387" stop-color="#06A179"/>
<stop offset="0.7808" stop-color="#03936D"/>
<stop offset="1" stop-color="#00835D"/>
</linearGradient>
</defs>
</svg>
